G04 Layer_Color=8388736*
%FSLAX25Y25*%
%MOIN*%
G70*
G01*
G75*
%ADD43R,0.04737X0.11824*%
%ADD44R,0.03162X0.07493*%
%ADD45R,0.15761X0.05524*%
%ADD46R,0.10642X0.40170*%
%ADD47R,0.29146X0.25210*%
%ADD48R,0.22060X0.14579*%
%ADD49R,0.08674X0.08674*%
%ADD50R,0.03950X0.03950*%
%ADD51R,0.08674X0.08674*%
%ADD52R,0.03950X0.03950*%
%ADD53R,0.05131X0.05524*%
%ADD54R,0.04461X0.04658*%
%ADD55O,0.34265X0.12611*%
%ADD56C,0.06312*%
%ADD57C,0.05524*%
%ADD58C,0.04343*%
%ADD59O,0.26391X0.32296*%
%ADD60R,0.07887X0.07887*%
%ADD61C,0.07887*%
%ADD62R,0.07887X0.07887*%
%ADD63C,0.08674*%
D43*
X126259Y359095D02*
D03*
X145747D02*
D03*
X204756D02*
D03*
X224244D02*
D03*
X152425D02*
D03*
X171913D02*
D03*
X178590D02*
D03*
X198079D02*
D03*
D44*
X138464Y345905D02*
D03*
X133543D02*
D03*
X216961D02*
D03*
X212039D02*
D03*
X164629D02*
D03*
X159708D02*
D03*
X190795D02*
D03*
X185874D02*
D03*
D45*
X205000Y222307D02*
D03*
Y249079D02*
D03*
Y242386D02*
D03*
Y229000D02*
D03*
Y235693D02*
D03*
D46*
X258569D02*
D03*
D47*
X247520D02*
D03*
D48*
X212000Y159331D02*
D03*
Y200669D02*
D03*
D49*
X132874Y214000D02*
D03*
X117126D02*
D03*
D50*
X169000Y98350D02*
D03*
Y104650D02*
D03*
D51*
X189500Y258874D02*
D03*
Y243126D02*
D03*
D52*
X172650Y300200D02*
D03*
X166350D02*
D03*
X155650D02*
D03*
X149350D02*
D03*
D53*
X120260Y263000D02*
D03*
X127740D02*
D03*
X189240Y62700D02*
D03*
X181760D02*
D03*
D54*
X126819Y282000D02*
D03*
X120756D02*
D03*
X170031Y62500D02*
D03*
X163969D02*
D03*
D55*
X138000Y134228D02*
D03*
Y161000D02*
D03*
Y187772D02*
D03*
D56*
X39102Y307488D02*
D03*
Y331504D02*
D03*
X67449D02*
D03*
Y307488D02*
D03*
X39102Y166488D02*
D03*
Y190504D02*
D03*
X67449D02*
D03*
Y166488D02*
D03*
X39102Y108756D02*
D03*
Y132772D02*
D03*
X67449D02*
D03*
Y108756D02*
D03*
X39102Y52496D02*
D03*
Y76512D02*
D03*
X67449D02*
D03*
Y52496D02*
D03*
X39102Y229488D02*
D03*
Y253504D02*
D03*
X67449D02*
D03*
Y229488D02*
D03*
D57*
X44614Y309260D02*
D03*
X48551Y313000D02*
D03*
X29653D02*
D03*
X33591Y309260D02*
D03*
X44614Y329732D02*
D03*
X48551Y325992D02*
D03*
X29653D02*
D03*
X33591Y329732D02*
D03*
X61937D02*
D03*
X58000Y325992D02*
D03*
X76898D02*
D03*
X72961Y329732D02*
D03*
X61937Y309260D02*
D03*
X58000Y313000D02*
D03*
X76898D02*
D03*
X72961Y309260D02*
D03*
X44614Y168260D02*
D03*
X48551Y172000D02*
D03*
X29653D02*
D03*
X33591Y168260D02*
D03*
X44614Y188732D02*
D03*
X48551Y184992D02*
D03*
X29653D02*
D03*
X33591Y188732D02*
D03*
X61937D02*
D03*
X58000Y184992D02*
D03*
X76898D02*
D03*
X72961Y188732D02*
D03*
X61937Y168260D02*
D03*
X58000Y172000D02*
D03*
X76898D02*
D03*
X72961Y168260D02*
D03*
X44614Y110528D02*
D03*
X48551Y114268D02*
D03*
X29653D02*
D03*
X33591Y110528D02*
D03*
X44614Y131000D02*
D03*
X48551Y127260D02*
D03*
X29653D02*
D03*
X33591Y131000D02*
D03*
X61937D02*
D03*
X58000Y127260D02*
D03*
X76898D02*
D03*
X72961Y131000D02*
D03*
X61937Y110528D02*
D03*
X58000Y114268D02*
D03*
X76898D02*
D03*
X72961Y110528D02*
D03*
X44614Y54268D02*
D03*
X48551Y58008D02*
D03*
X29653D02*
D03*
X33591Y54268D02*
D03*
X44614Y74740D02*
D03*
X48551Y71000D02*
D03*
X29653D02*
D03*
X33591Y74740D02*
D03*
X61937D02*
D03*
X58000Y71000D02*
D03*
X76898D02*
D03*
X72961Y74740D02*
D03*
X61937Y54268D02*
D03*
X58000Y58008D02*
D03*
X76898D02*
D03*
X72961Y54268D02*
D03*
X44614Y231260D02*
D03*
X48551Y235000D02*
D03*
X29653D02*
D03*
X33591Y231260D02*
D03*
X44614Y251732D02*
D03*
X48551Y247992D02*
D03*
X29653D02*
D03*
X33591Y251732D02*
D03*
X61937D02*
D03*
X58000Y247992D02*
D03*
X76898D02*
D03*
X72961Y251732D02*
D03*
X61937Y231260D02*
D03*
X58000Y235000D02*
D03*
X76898D02*
D03*
X72961Y231260D02*
D03*
D58*
X49929Y319496D02*
D03*
X28276D02*
D03*
X56622D02*
D03*
X78276D02*
D03*
X49929Y178496D02*
D03*
X28276D02*
D03*
X56622D02*
D03*
X78276D02*
D03*
X49929Y120764D02*
D03*
X28276D02*
D03*
X56622D02*
D03*
X78276D02*
D03*
X49929Y64504D02*
D03*
X28276D02*
D03*
X56622D02*
D03*
X78276D02*
D03*
X49929Y241496D02*
D03*
X28276D02*
D03*
X56622D02*
D03*
X78276D02*
D03*
D59*
X67449Y319496D02*
D03*
X39102D02*
D03*
X67449Y178496D02*
D03*
X39102D02*
D03*
X67449Y120764D02*
D03*
X39102D02*
D03*
X67449Y64504D02*
D03*
X39102D02*
D03*
X67449Y241496D02*
D03*
X39102D02*
D03*
D60*
X198000Y99500D02*
D03*
D61*
Y119185D02*
D03*
X220000Y295000D02*
D03*
D62*
X200315D02*
D03*
D63*
X240500Y62500D02*
D03*
Y72500D02*
D03*
Y107500D02*
D03*
Y117500D02*
D03*
X209000Y34000D02*
D03*
X219000D02*
D03*
X170000D02*
D03*
X180000D02*
D03*
X131000D02*
D03*
X141000D02*
D03*
X245500Y322000D02*
D03*
Y312000D02*
D03*
M02*
