G04 Layer_Color=128*
%FSLAX25Y25*%
%MOIN*%
G70*
G01*
G75*
%ADD69C,0.00200*%
D69*
X135244Y134228D02*
X140756D01*
X138000Y131472D02*
Y136984D01*
X135244Y161000D02*
X140756D01*
X138000Y158244D02*
Y163756D01*
X135244Y187772D02*
X140756D01*
X138000Y185016D02*
Y190527D01*
X37528Y307488D02*
X40677D01*
X39102Y305913D02*
Y309063D01*
X43039Y309260D02*
X46189D01*
X44614Y307685D02*
Y310835D01*
X46976Y313000D02*
X50126D01*
X48551Y311425D02*
Y314575D01*
X28079Y313000D02*
X31228D01*
X29653Y311425D02*
Y314575D01*
X32016Y309260D02*
X35165D01*
X33591Y307685D02*
Y310835D01*
X43039Y329732D02*
X46189D01*
X44614Y328157D02*
Y331307D01*
X46976Y325992D02*
X50126D01*
X48551Y324417D02*
Y327567D01*
X28079Y325992D02*
X31228D01*
X29653Y324417D02*
Y327567D01*
X32016Y329732D02*
X35165D01*
X33591Y328157D02*
Y331307D01*
X37528Y331504D02*
X40677D01*
X39102Y329929D02*
Y333079D01*
X48945Y319496D02*
X50913D01*
X49929Y318512D02*
Y320480D01*
X27291Y319496D02*
X29260D01*
X28276Y318512D02*
Y320480D01*
X55638Y319496D02*
X57606D01*
X56622Y318512D02*
Y320480D01*
X77291Y319496D02*
X79260D01*
X78276Y318512D02*
Y320480D01*
X65874Y331504D02*
X69024D01*
X67449Y329929D02*
Y333079D01*
X60362Y329732D02*
X63512D01*
X61937Y328157D02*
Y331307D01*
X56425Y325992D02*
X59575D01*
X58000Y324417D02*
Y327567D01*
X75323Y325992D02*
X78472D01*
X76898Y324417D02*
Y327567D01*
X71386Y329732D02*
X74535D01*
X72961Y328157D02*
Y331307D01*
X60362Y309260D02*
X63512D01*
X61937Y307685D02*
Y310835D01*
X56425Y313000D02*
X59575D01*
X58000Y311425D02*
Y314575D01*
X75323Y313000D02*
X78472D01*
X76898Y311425D02*
Y314575D01*
X58591Y319496D02*
X76307D01*
X67449Y310638D02*
Y328354D01*
X30244Y319496D02*
X47961D01*
X39102Y310638D02*
Y328354D01*
X71386Y309260D02*
X74535D01*
X72961Y307685D02*
Y310835D01*
X65874Y307488D02*
X69024D01*
X67449Y305913D02*
Y309063D01*
X37528Y166488D02*
X40677D01*
X39102Y164913D02*
Y168063D01*
X43039Y168260D02*
X46189D01*
X44614Y166685D02*
Y169835D01*
X46976Y172000D02*
X50126D01*
X48551Y170425D02*
Y173575D01*
X28079Y172000D02*
X31228D01*
X29653Y170425D02*
Y173575D01*
X32016Y168260D02*
X35165D01*
X33591Y166685D02*
Y169835D01*
X43039Y188732D02*
X46189D01*
X44614Y187157D02*
Y190307D01*
X46976Y184992D02*
X50126D01*
X48551Y183417D02*
Y186567D01*
X28079Y184992D02*
X31228D01*
X29653Y183417D02*
Y186567D01*
X32016Y188732D02*
X35165D01*
X33591Y187157D02*
Y190307D01*
X37528Y190504D02*
X40677D01*
X39102Y188929D02*
Y192079D01*
X48945Y178496D02*
X50913D01*
X49929Y177512D02*
Y179480D01*
X27291Y178496D02*
X29260D01*
X28276Y177512D02*
Y179480D01*
X55638Y178496D02*
X57606D01*
X56622Y177512D02*
Y179480D01*
X77291Y178496D02*
X79260D01*
X78276Y177512D02*
Y179480D01*
X65874Y190504D02*
X69024D01*
X67449Y188929D02*
Y192079D01*
X60362Y188732D02*
X63512D01*
X61937Y187157D02*
Y190307D01*
X56425Y184992D02*
X59575D01*
X58000Y183417D02*
Y186567D01*
X75323Y184992D02*
X78472D01*
X76898Y183417D02*
Y186567D01*
X71386Y188732D02*
X74535D01*
X72961Y187157D02*
Y190307D01*
X60362Y168260D02*
X63512D01*
X61937Y166685D02*
Y169835D01*
X56425Y172000D02*
X59575D01*
X58000Y170425D02*
Y173575D01*
X75323Y172000D02*
X78472D01*
X76898Y170425D02*
Y173575D01*
X58591Y178496D02*
X76307D01*
X67449Y169638D02*
Y187354D01*
X30244Y178496D02*
X47961D01*
X39102Y169638D02*
Y187354D01*
X71386Y168260D02*
X74535D01*
X72961Y166685D02*
Y169835D01*
X65874Y166488D02*
X69024D01*
X67449Y164913D02*
Y168063D01*
X196425Y99500D02*
X199575D01*
X198000Y97925D02*
Y101075D01*
X196425Y119185D02*
X199575D01*
X198000Y117610D02*
Y120760D01*
X198740Y295000D02*
X201890D01*
X200315Y293425D02*
Y296575D01*
X218425Y295000D02*
X221575D01*
X220000Y293425D02*
Y296575D01*
X37528Y108756D02*
X40677D01*
X39102Y107181D02*
Y110331D01*
X43039Y110528D02*
X46189D01*
X44614Y108953D02*
Y112102D01*
X46976Y114268D02*
X50126D01*
X48551Y112693D02*
Y115842D01*
X28079Y114268D02*
X31228D01*
X29653Y112693D02*
Y115842D01*
X32016Y110528D02*
X35165D01*
X33591Y108953D02*
Y112102D01*
X43039Y131000D02*
X46189D01*
X44614Y129425D02*
Y132575D01*
X46976Y127260D02*
X50126D01*
X48551Y125685D02*
Y128835D01*
X28079Y127260D02*
X31228D01*
X29653Y125685D02*
Y128835D01*
X32016Y131000D02*
X35165D01*
X33591Y129425D02*
Y132575D01*
X37528Y132772D02*
X40677D01*
X39102Y131197D02*
Y134346D01*
X48945Y120764D02*
X50913D01*
X49929Y119780D02*
Y121748D01*
X27291Y120764D02*
X29260D01*
X28276Y119780D02*
Y121748D01*
X55638Y120764D02*
X57606D01*
X56622Y119780D02*
Y121748D01*
X77291Y120764D02*
X79260D01*
X78276Y119780D02*
Y121748D01*
X65874Y132772D02*
X69024D01*
X67449Y131197D02*
Y134346D01*
X60362Y131000D02*
X63512D01*
X61937Y129425D02*
Y132575D01*
X56425Y127260D02*
X59575D01*
X58000Y125685D02*
Y128835D01*
X75323Y127260D02*
X78472D01*
X76898Y125685D02*
Y128835D01*
X71386Y131000D02*
X74535D01*
X72961Y129425D02*
Y132575D01*
X60362Y110528D02*
X63512D01*
X61937Y108953D02*
Y112102D01*
X56425Y114268D02*
X59575D01*
X58000Y112693D02*
Y115842D01*
X75323Y114268D02*
X78472D01*
X76898Y112693D02*
Y115842D01*
X58591Y120764D02*
X76307D01*
X67449Y111906D02*
Y129622D01*
X30244Y120764D02*
X47961D01*
X39102Y111906D02*
Y129622D01*
X71386Y110528D02*
X74535D01*
X72961Y108953D02*
Y112102D01*
X65874Y108756D02*
X69024D01*
X67449Y107181D02*
Y110331D01*
X238531Y62500D02*
X242469D01*
X240500Y60532D02*
Y64468D01*
X238531Y72500D02*
X242469D01*
X240500Y70531D02*
Y74468D01*
X37528Y52496D02*
X40677D01*
X39102Y50921D02*
Y54071D01*
X43039Y54268D02*
X46189D01*
X44614Y52693D02*
Y55843D01*
X46976Y58008D02*
X50126D01*
X48551Y56433D02*
Y59583D01*
X28079Y58008D02*
X31228D01*
X29653Y56433D02*
Y59583D01*
X32016Y54268D02*
X35165D01*
X33591Y52693D02*
Y55843D01*
X43039Y74740D02*
X46189D01*
X44614Y73165D02*
Y76315D01*
X46976Y71000D02*
X50126D01*
X48551Y69425D02*
Y72575D01*
X28079Y71000D02*
X31228D01*
X29653Y69425D02*
Y72575D01*
X32016Y74740D02*
X35165D01*
X33591Y73165D02*
Y76315D01*
X37528Y76512D02*
X40677D01*
X39102Y74937D02*
Y78087D01*
X48945Y64504D02*
X50913D01*
X49929Y63520D02*
Y65488D01*
X27291Y64504D02*
X29260D01*
X28276Y63520D02*
Y65488D01*
X55638Y64504D02*
X57606D01*
X56622Y63520D02*
Y65488D01*
X77291Y64504D02*
X79260D01*
X78276Y63520D02*
Y65488D01*
X65874Y76512D02*
X69024D01*
X67449Y74937D02*
Y78087D01*
X60362Y74740D02*
X63512D01*
X61937Y73165D02*
Y76315D01*
X56425Y71000D02*
X59575D01*
X58000Y69425D02*
Y72575D01*
X75323Y71000D02*
X78472D01*
X76898Y69425D02*
Y72575D01*
X71386Y74740D02*
X74535D01*
X72961Y73165D02*
Y76315D01*
X60362Y54268D02*
X63512D01*
X61937Y52693D02*
Y55843D01*
X56425Y58008D02*
X59575D01*
X58000Y56433D02*
Y59583D01*
X75323Y58008D02*
X78472D01*
X76898Y56433D02*
Y59583D01*
X58591Y64504D02*
X76307D01*
X67449Y55646D02*
Y73362D01*
X30244Y64504D02*
X47961D01*
X39102Y55646D02*
Y73362D01*
X71386Y54268D02*
X74535D01*
X72961Y52693D02*
Y55843D01*
X65874Y52496D02*
X69024D01*
X67449Y50921D02*
Y54071D01*
X238531Y107500D02*
X242469D01*
X240500Y105532D02*
Y109468D01*
X238531Y117500D02*
X242469D01*
X240500Y115532D02*
Y119468D01*
X37528Y229488D02*
X40677D01*
X39102Y227913D02*
Y231063D01*
X43039Y231260D02*
X46189D01*
X44614Y229685D02*
Y232835D01*
X46976Y235000D02*
X50126D01*
X48551Y233425D02*
Y236575D01*
X28079Y235000D02*
X31228D01*
X29653Y233425D02*
Y236575D01*
X32016Y231260D02*
X35165D01*
X33591Y229685D02*
Y232835D01*
X43039Y251732D02*
X46189D01*
X44614Y250157D02*
Y253307D01*
X46976Y247992D02*
X50126D01*
X48551Y246417D02*
Y249567D01*
X28079Y247992D02*
X31228D01*
X29653Y246417D02*
Y249567D01*
X32016Y251732D02*
X35165D01*
X33591Y250157D02*
Y253307D01*
X37528Y253504D02*
X40677D01*
X39102Y251929D02*
Y255079D01*
X48945Y241496D02*
X50913D01*
X49929Y240512D02*
Y242480D01*
X27291Y241496D02*
X29260D01*
X28276Y240512D02*
Y242480D01*
X55638Y241496D02*
X57606D01*
X56622Y240512D02*
Y242480D01*
X77291Y241496D02*
X79260D01*
X78276Y240512D02*
Y242480D01*
X65874Y253504D02*
X69024D01*
X67449Y251929D02*
Y255079D01*
X60362Y251732D02*
X63512D01*
X61937Y250157D02*
Y253307D01*
X56425Y247992D02*
X59575D01*
X58000Y246417D02*
Y249567D01*
X75323Y247992D02*
X78472D01*
X76898Y246417D02*
Y249567D01*
X71386Y251732D02*
X74535D01*
X72961Y250157D02*
Y253307D01*
X60362Y231260D02*
X63512D01*
X61937Y229685D02*
Y232835D01*
X56425Y235000D02*
X59575D01*
X58000Y233425D02*
Y236575D01*
X75323Y235000D02*
X78472D01*
X76898Y233425D02*
Y236575D01*
X58591Y241496D02*
X76307D01*
X67449Y232638D02*
Y250354D01*
X30244Y241496D02*
X47961D01*
X39102Y232638D02*
Y250354D01*
X71386Y231260D02*
X74535D01*
X72961Y229685D02*
Y232835D01*
X65874Y229488D02*
X69024D01*
X67449Y227913D02*
Y231063D01*
X207031Y34000D02*
X210968D01*
X209000Y32032D02*
Y35969D01*
X217032Y34000D02*
X220969D01*
X219000Y32032D02*
Y35969D01*
X168032Y34000D02*
X171968D01*
X170000Y32032D02*
Y35969D01*
X178032Y34000D02*
X181968D01*
X180000Y32032D02*
Y35969D01*
X129032Y34000D02*
X132968D01*
X131000Y32032D02*
Y35969D01*
X139032Y34000D02*
X142968D01*
X141000Y32032D02*
Y35969D01*
X243531Y322000D02*
X247468D01*
X245500Y320031D02*
Y323969D01*
X243531Y312000D02*
X247468D01*
X245500Y310032D02*
Y313968D01*
X194250Y233000D02*
X195750D01*
X195000Y232250D02*
Y233750D01*
X194250Y236000D02*
X195750D01*
X195000Y235250D02*
Y236750D01*
X191650Y236000D02*
X193150D01*
X192400Y235250D02*
Y236750D01*
X191650Y233000D02*
X193150D01*
X192400Y232250D02*
Y233750D01*
X188750Y236000D02*
X190250D01*
X189500Y235250D02*
Y236750D01*
X188750Y233000D02*
X190250D01*
X189500Y232250D02*
Y233750D01*
X197750Y224000D02*
X199250D01*
X198500Y223250D02*
Y224750D01*
X197750Y220956D02*
X199250D01*
X198500Y220206D02*
Y221706D01*
X197650Y217718D02*
X199150D01*
X198400Y216968D02*
Y218468D01*
X197750Y214793D02*
X199250D01*
X198500Y214043D02*
Y215543D01*
X194187Y214793D02*
X195687D01*
X194937Y214043D02*
Y215543D01*
X194187Y218000D02*
X195687D01*
X194937Y217250D02*
Y218750D01*
X194187Y221000D02*
X195687D01*
X194937Y220250D02*
Y221750D01*
X194187Y224000D02*
X195687D01*
X194937Y223250D02*
Y224750D01*
X244750Y227500D02*
X246250D01*
X245500Y226750D02*
Y228250D01*
X244750Y230500D02*
X246250D01*
X245500Y229750D02*
Y231250D01*
X244750Y234000D02*
X246250D01*
X245500Y233250D02*
Y234750D01*
X244750Y237500D02*
X246250D01*
X245500Y236750D02*
Y238250D01*
X240750Y237500D02*
X242250D01*
X241500Y236750D02*
Y238250D01*
X240750Y234000D02*
X242250D01*
X241500Y233250D02*
Y234750D01*
X240750Y230500D02*
X242250D01*
X241500Y229750D02*
Y231250D01*
X240750Y227500D02*
X242250D01*
X241500Y226750D02*
Y228250D01*
X248750Y237500D02*
X250250D01*
X249500Y236750D02*
Y238250D01*
X248750Y234000D02*
X250250D01*
X249500Y233250D02*
Y234750D01*
X248750Y230500D02*
X250250D01*
X249500Y229750D02*
Y231250D01*
X248750Y227500D02*
X250250D01*
X249500Y226750D02*
Y228250D01*
X252750Y237500D02*
X254250D01*
X253500Y236750D02*
Y238250D01*
X252750Y234000D02*
X254250D01*
X253500Y233250D02*
Y234750D01*
X252750Y230500D02*
X254250D01*
X253500Y229750D02*
Y231250D01*
X252750Y227500D02*
X254250D01*
X253500Y226750D02*
Y228250D01*
X236750Y237500D02*
X238250D01*
X237500Y236750D02*
Y238250D01*
X236750Y234000D02*
X238250D01*
X237500Y233250D02*
Y234750D01*
X236750Y230500D02*
X238250D01*
X237500Y229750D02*
Y231250D01*
X236750Y227500D02*
X238250D01*
X237500Y226750D02*
Y228250D01*
X236750Y224500D02*
X238250D01*
X237500Y223750D02*
Y225250D01*
X240750Y224500D02*
X242250D01*
X241500Y223750D02*
Y225250D01*
X244750Y224500D02*
X246250D01*
X245500Y223750D02*
Y225250D01*
X248750Y224500D02*
X250250D01*
X249500Y223750D02*
Y225250D01*
X252750Y224500D02*
X254250D01*
X253500Y223750D02*
Y225250D01*
X252750Y221500D02*
X254250D01*
X253500Y220750D02*
Y222250D01*
X244750Y221500D02*
X246250D01*
X245500Y220750D02*
Y222250D01*
X236750Y221500D02*
X238250D01*
X237500Y220750D02*
Y222250D01*
X240750Y221500D02*
X242250D01*
X241500Y220750D02*
Y222250D01*
X248750Y221500D02*
X250250D01*
X249500Y220750D02*
Y222250D01*
X247123Y71000D02*
X248623D01*
X247873Y70250D02*
Y71750D01*
X247123Y75000D02*
X248623D01*
X247873Y74250D02*
Y75750D01*
X247123Y79500D02*
X248623D01*
X247873Y78750D02*
Y80250D01*
X242750Y79500D02*
X244250D01*
X243500Y78750D02*
Y80250D01*
X237750Y79500D02*
X239250D01*
X238500Y78750D02*
Y80250D01*
X237750Y83000D02*
X239250D01*
X238500Y82250D02*
Y83750D01*
X242750Y83500D02*
X244250D01*
X243500Y82750D02*
Y84250D01*
X247250Y83500D02*
X248750D01*
X248000Y82750D02*
Y84250D01*
X248750Y116500D02*
X250250D01*
X249500Y115750D02*
Y117250D01*
X248821Y121000D02*
X250321D01*
X249571Y120250D02*
Y121750D01*
X248821Y125500D02*
X250321D01*
X249571Y124750D02*
Y126250D01*
X244049Y125500D02*
X245549D01*
X244799Y124750D02*
Y126250D01*
X239750Y125500D02*
X241250D01*
X240500Y124750D02*
Y126250D01*
X235750Y125500D02*
X237250D01*
X236500Y124750D02*
Y126250D01*
X235750Y129500D02*
X237250D01*
X236500Y128750D02*
Y130250D01*
X239750Y129500D02*
X241250D01*
X240500Y128750D02*
Y130250D01*
X244049Y129500D02*
X245549D01*
X244799Y128750D02*
Y130250D01*
X248821Y129500D02*
X250321D01*
X249571Y128750D02*
Y130250D01*
X252822Y125500D02*
X254322D01*
X253572Y124750D02*
Y126250D01*
X252822Y129500D02*
X254322D01*
X253572Y128750D02*
Y130250D01*
X252822Y121000D02*
X254322D01*
X253572Y120250D02*
Y121750D01*
X252822Y116500D02*
X254322D01*
X253572Y115750D02*
Y117250D01*
X251209Y83500D02*
X252709D01*
X251959Y82750D02*
Y84250D01*
X251209Y79500D02*
X252709D01*
X251959Y78750D02*
Y80250D01*
X251209Y75000D02*
X252709D01*
X251959Y74250D02*
Y75750D01*
X251209Y71000D02*
X252709D01*
X251959Y70250D02*
Y71750D01*
X218250Y41367D02*
X219750D01*
X219000Y40617D02*
Y42117D01*
X221750Y41367D02*
X223250D01*
X222500Y40617D02*
Y42117D01*
X225750Y41367D02*
X227250D01*
X226500Y40617D02*
Y42117D01*
X225750Y45000D02*
X227250D01*
X226500Y44250D02*
Y45750D01*
X221750Y45000D02*
X223250D01*
X222500Y44250D02*
Y45750D01*
X218250Y45000D02*
X219750D01*
X219000Y44250D02*
Y45750D01*
X225750Y38000D02*
X227250D01*
X226500Y37250D02*
Y38750D01*
X225750Y34500D02*
X227250D01*
X226500Y33750D02*
Y35250D01*
X225750Y30000D02*
X227250D01*
X226500Y29250D02*
Y30750D01*
X186750Y35201D02*
X188250D01*
X187500Y34451D02*
Y35951D01*
X186750Y32000D02*
X188250D01*
X187500Y31250D02*
Y32750D01*
X186750Y28529D02*
X188250D01*
X187500Y27779D02*
Y29279D01*
X183250Y28500D02*
X184750D01*
X184000Y27750D02*
Y29250D01*
X183250Y25505D02*
X184750D01*
X184000Y24755D02*
Y26255D01*
X180250Y25505D02*
X181750D01*
X181000Y24755D02*
Y26255D01*
X186750Y25505D02*
X188250D01*
X187500Y24755D02*
Y26255D01*
X176750Y25505D02*
X178250D01*
X177500Y24755D02*
Y26255D01*
X148250Y34000D02*
X149750D01*
X149000Y33250D02*
Y34750D01*
X148250Y30500D02*
X149750D01*
X149000Y29750D02*
Y31250D01*
X148250Y27343D02*
X149750D01*
X149000Y26594D02*
Y28093D01*
X144250Y27343D02*
X145750D01*
X145000Y26594D02*
Y28093D01*
X139750Y27377D02*
X141250D01*
X140500Y26627D02*
Y28127D01*
X139750Y23500D02*
X141250D01*
X140500Y22750D02*
Y24250D01*
X144250Y23500D02*
X145750D01*
X145000Y22750D02*
Y24250D01*
X148250Y23632D02*
X149750D01*
X149000Y22882D02*
Y24382D01*
X152750Y27377D02*
X154250D01*
X153500Y26627D02*
Y28127D01*
X152750Y30500D02*
X154250D01*
X153500Y29750D02*
Y31250D01*
X152750Y34000D02*
X154250D01*
X153500Y33250D02*
Y34750D01*
X152750Y23632D02*
X154250D01*
X153500Y22882D02*
Y24382D01*
X197186Y125500D02*
X198686D01*
X197936Y124750D02*
Y126250D01*
X193250Y125500D02*
X194750D01*
X194000Y124750D02*
Y126250D01*
X189250Y125500D02*
X190750D01*
X190000Y124750D02*
Y126250D01*
X185748Y125500D02*
X187248D01*
X186498Y124750D02*
Y126250D01*
X182250Y125500D02*
X183750D01*
X183000Y124750D02*
Y126250D01*
X182250Y122500D02*
X183750D01*
X183000Y121750D02*
Y123250D01*
X185748Y122500D02*
X187248D01*
X186498Y121750D02*
Y123250D01*
X189250Y122500D02*
X190750D01*
X190000Y121750D02*
Y123250D01*
X189250Y119500D02*
X190750D01*
X190000Y118750D02*
Y120250D01*
X185748Y119500D02*
X187248D01*
X186498Y118750D02*
Y120250D01*
X182250Y119500D02*
X183750D01*
X183000Y118750D02*
Y120250D01*
X172635Y105000D02*
X174135D01*
X173385Y104250D02*
Y105750D01*
X172558Y108500D02*
X174058D01*
X173308Y107750D02*
Y109250D01*
X168913Y108500D02*
X170413D01*
X169663Y107750D02*
Y109250D01*
X168913Y111162D02*
X170413D01*
X169663Y110412D02*
Y111912D01*
X172720Y111162D02*
X174220D01*
X173470Y110412D02*
Y111912D01*
X182285Y58000D02*
X183785D01*
X183035Y57250D02*
Y58750D01*
X178349Y58000D02*
X179849D01*
X179099Y57250D02*
Y58750D01*
X178250Y54715D02*
X179750D01*
X179000Y53965D02*
Y55465D01*
X182250Y54500D02*
X183750D01*
X183000Y53750D02*
Y55250D01*
X236250Y292000D02*
X237750D01*
X237000Y291250D02*
Y292750D01*
X236250Y297024D02*
X237750D01*
X237000Y296274D02*
Y297774D01*
X241250Y297024D02*
X242750D01*
X242000Y296274D02*
Y297774D01*
X241250Y292000D02*
X242750D01*
X242000Y291250D02*
Y292750D01*
X241250Y287500D02*
X242750D01*
X242000Y286750D02*
Y288250D01*
X236250Y287500D02*
X237750D01*
X237000Y286750D02*
Y288250D01*
X236250Y283000D02*
X237750D01*
X237000Y282250D02*
Y283750D01*
X241250Y283000D02*
X242750D01*
X242000Y282250D02*
Y283750D01*
X125483Y258500D02*
X126983D01*
X126233Y257750D02*
Y259250D01*
X128750Y258500D02*
X130250D01*
X129500Y257750D02*
Y259250D01*
X128750Y255500D02*
X130250D01*
X129500Y254750D02*
Y256250D01*
X125483Y255500D02*
X126983D01*
X126233Y254750D02*
Y256250D01*
X167250Y296663D02*
X168750D01*
X168000Y295913D02*
Y297413D01*
X163750Y296500D02*
X165250D01*
X164500Y295750D02*
Y297250D01*
X160044Y296000D02*
X161544D01*
X160794Y295250D02*
Y296750D01*
X160044Y293500D02*
X161544D01*
X160794Y292750D02*
Y294250D01*
X149362Y296000D02*
X150862D01*
X150112Y295250D02*
Y296750D01*
X149362Y293500D02*
X150862D01*
X150112Y292750D02*
Y294250D01*
X146250Y296000D02*
X147750D01*
X147000Y295250D02*
Y296750D01*
X146250Y293500D02*
X147750D01*
X147000Y292750D02*
Y294250D01*
X143250Y296000D02*
X144750D01*
X144000Y295250D02*
Y296750D01*
X143250Y293500D02*
X144750D01*
X144000Y292750D02*
Y294250D01*
X252750Y245000D02*
X254250D01*
X253500Y244250D02*
Y245750D01*
X252750Y249000D02*
X254250D01*
X253500Y248250D02*
Y249750D01*
X252750Y252500D02*
X254250D01*
X253500Y251750D02*
Y253250D01*
X248750Y252500D02*
X250250D01*
X249500Y251750D02*
Y253250D01*
X248750Y249000D02*
X250250D01*
X249500Y248250D02*
Y249750D01*
X248750Y245000D02*
X250250D01*
X249500Y244250D02*
Y245750D01*
X248750Y241500D02*
X250250D01*
X249500Y240750D02*
Y242250D01*
X244750Y241500D02*
X246250D01*
X245500Y240750D02*
Y242250D01*
X244750Y245000D02*
X246250D01*
X245500Y244250D02*
Y245750D01*
X244750Y249000D02*
X246250D01*
X245500Y248250D02*
Y249750D01*
X244750Y252500D02*
X246250D01*
X245500Y251750D02*
Y253250D01*
X240750Y241500D02*
X242250D01*
X241500Y240750D02*
Y242250D01*
X240750Y245000D02*
X242250D01*
X241500Y244250D02*
Y245750D01*
X240750Y249000D02*
X242250D01*
X241500Y248250D02*
Y249750D01*
X240750Y252500D02*
X242250D01*
X241500Y251750D02*
Y253250D01*
X236750Y241500D02*
X238250D01*
X237500Y240750D02*
Y242250D01*
X236750Y245000D02*
X238250D01*
X237500Y244250D02*
Y245750D01*
X236750Y249000D02*
X238250D01*
X237500Y248250D02*
Y249750D01*
X236750Y252500D02*
X238250D01*
X237500Y251750D02*
Y253250D01*
X252750Y241500D02*
X254250D01*
X253500Y240750D02*
Y242250D01*
X185750Y233058D02*
X187250D01*
X186500Y232308D02*
Y233808D01*
X185750Y236000D02*
X187250D01*
X186500Y235250D02*
Y236750D01*
X181250Y236500D02*
X182750D01*
X182000Y235750D02*
Y237250D01*
X181250Y233500D02*
X182750D01*
X182000Y232750D02*
Y234250D01*
X181250Y239500D02*
X182750D01*
X182000Y238750D02*
Y240250D01*
X181250Y242500D02*
X182750D01*
X182000Y241750D02*
Y243250D01*
X181250Y245500D02*
X182750D01*
X182000Y244750D02*
Y246250D01*
X181250Y248500D02*
X182750D01*
X182000Y247750D02*
Y249250D01*
X177250Y248500D02*
X178750D01*
X178000Y247750D02*
Y249250D01*
X177250Y245500D02*
X178750D01*
X178000Y244750D02*
Y246250D01*
X177250Y242500D02*
X178750D01*
X178000Y241750D02*
Y243250D01*
X177250Y239500D02*
X178750D01*
X178000Y238750D02*
Y240250D01*
X177250Y236500D02*
X178750D01*
X178000Y235750D02*
Y237250D01*
X177250Y233500D02*
X178750D01*
X178000Y232750D02*
Y234250D01*
M02*
