G04 Layer_Color=2752767*
%FSLAX25Y25*%
%MOIN*%
G70*
G01*
G75*
%ADD69C,0.00200*%
%ADD70C,0.00267*%
D69*
X137200Y133428D02*
Y135028D01*
X138800D01*
Y133428D01*
X137200D01*
Y160200D02*
Y161800D01*
X138800D01*
Y160200D01*
X137200D01*
Y186972D02*
Y188572D01*
X138800D01*
Y186972D01*
X137200D01*
X49929Y318696D02*
X49129Y320296D01*
X50729D01*
X49929Y318696D01*
X28276D02*
X27476Y320296D01*
X29076D01*
X28276Y318696D01*
X56622D02*
X55822Y320296D01*
X57422D01*
X56622Y318696D01*
X78276D02*
X77476Y320296D01*
X79076D01*
X78276Y318696D01*
X67449D02*
X67849Y319096D01*
X68249D01*
X67849Y319496D01*
X68249Y319896D01*
X67849D01*
X67449Y320296D01*
X67049Y319896D01*
X66649D01*
X67049Y319496D01*
X66649Y319096D01*
X67049D01*
X67449Y318696D01*
X39102D02*
X39502Y319096D01*
X39902D01*
X39502Y319496D01*
X39902Y319896D01*
X39502D01*
X39102Y320296D01*
X38702Y319896D01*
X38302D01*
X38702Y319496D01*
X38302Y319096D01*
X38702D01*
X39102Y318696D01*
X49929Y177696D02*
X49129Y179296D01*
X50729D01*
X49929Y177696D01*
X28276D02*
X27476Y179296D01*
X29076D01*
X28276Y177696D01*
X56622D02*
X55822Y179296D01*
X57422D01*
X56622Y177696D01*
X78276D02*
X77476Y179296D01*
X79076D01*
X78276Y177696D01*
X67449D02*
X67849Y178096D01*
X68249D01*
X67849Y178496D01*
X68249Y178896D01*
X67849D01*
X67449Y179296D01*
X67049Y178896D01*
X66649D01*
X67049Y178496D01*
X66649Y178096D01*
X67049D01*
X67449Y177696D01*
X39102D02*
X39502Y178096D01*
X39902D01*
X39502Y178496D01*
X39902Y178896D01*
X39502D01*
X39102Y179296D01*
X38702Y178896D01*
X38302D01*
X38702Y178496D01*
X38302Y178096D01*
X38702D01*
X39102Y177696D01*
X49929Y119964D02*
X49129Y121564D01*
X50729D01*
X49929Y119964D01*
X28276D02*
X27476Y121564D01*
X29076D01*
X28276Y119964D01*
X56622D02*
X55822Y121564D01*
X57422D01*
X56622Y119964D01*
X78276D02*
X77476Y121564D01*
X79076D01*
X78276Y119964D01*
X67449D02*
X67849Y120364D01*
X68249D01*
X67849Y120764D01*
X68249Y121164D01*
X67849D01*
X67449Y121564D01*
X67049Y121164D01*
X66649D01*
X67049Y120764D01*
X66649Y120364D01*
X67049D01*
X67449Y119964D01*
X39102D02*
X39502Y120364D01*
X39902D01*
X39502Y120764D01*
X39902Y121164D01*
X39502D01*
X39102Y121564D01*
X38702Y121164D01*
X38302D01*
X38702Y120764D01*
X38302Y120364D01*
X38702D01*
X39102Y119964D01*
X239700Y61700D02*
X240100Y62500D01*
X239700Y63300D01*
X240500Y62900D01*
X241300Y63300D01*
X240900Y62500D01*
X241300Y61700D01*
X240500Y62100D01*
X239700Y61700D01*
Y71700D02*
X240100Y72500D01*
X239700Y73300D01*
X240500Y72900D01*
X241300Y73300D01*
X240900Y72500D01*
X241300Y71700D01*
X240500Y72100D01*
X239700Y71700D01*
X49929Y63704D02*
X49129Y65304D01*
X50729D01*
X49929Y63704D01*
X28276D02*
X27476Y65304D01*
X29076D01*
X28276Y63704D01*
X56622D02*
X55822Y65304D01*
X57422D01*
X56622Y63704D01*
X78276D02*
X77476Y65304D01*
X79076D01*
X78276Y63704D01*
X67449D02*
X67849Y64104D01*
X68249D01*
X67849Y64504D01*
X68249Y64904D01*
X67849D01*
X67449Y65304D01*
X67049Y64904D01*
X66649D01*
X67049Y64504D01*
X66649Y64104D01*
X67049D01*
X67449Y63704D01*
X39102D02*
X39502Y64104D01*
X39902D01*
X39502Y64504D01*
X39902Y64904D01*
X39502D01*
X39102Y65304D01*
X38702Y64904D01*
X38302D01*
X38702Y64504D01*
X38302Y64104D01*
X38702D01*
X39102Y63704D01*
X239700Y106700D02*
X240100Y107500D01*
X239700Y108300D01*
X240500Y107900D01*
X241300Y108300D01*
X240900Y107500D01*
X241300Y106700D01*
X240500Y107100D01*
X239700Y106700D01*
Y116700D02*
X240100Y117500D01*
X239700Y118300D01*
X240500Y117900D01*
X241300Y118300D01*
X240900Y117500D01*
X241300Y116700D01*
X240500Y117100D01*
X239700Y116700D01*
X49929Y240696D02*
X49129Y242296D01*
X50729D01*
X49929Y240696D01*
X28276D02*
X27476Y242296D01*
X29076D01*
X28276Y240696D01*
X56622D02*
X55822Y242296D01*
X57422D01*
X56622Y240696D01*
X78276D02*
X77476Y242296D01*
X79076D01*
X78276Y240696D01*
X67449D02*
X67849Y241096D01*
X68249D01*
X67849Y241496D01*
X68249Y241896D01*
X67849D01*
X67449Y242296D01*
X67049Y241896D01*
X66649D01*
X67049Y241496D01*
X66649Y241096D01*
X67049D01*
X67449Y240696D01*
X39102D02*
X39502Y241096D01*
X39902D01*
X39502Y241496D01*
X39902Y241896D01*
X39502D01*
X39102Y242296D01*
X38702Y241896D01*
X38302D01*
X38702Y241496D01*
X38302Y241096D01*
X38702D01*
X39102Y240696D01*
X208200Y33200D02*
X208600Y34000D01*
X208200Y34800D01*
X209000Y34400D01*
X209800Y34800D01*
X209400Y34000D01*
X209800Y33200D01*
X209000Y33600D01*
X208200Y33200D01*
X218200D02*
X218600Y34000D01*
X218200Y34800D01*
X219000Y34400D01*
X219800Y34800D01*
X219400Y34000D01*
X219800Y33200D01*
X219000Y33600D01*
X218200Y33200D01*
X169200D02*
X169600Y34000D01*
X169200Y34800D01*
X170000Y34400D01*
X170800Y34800D01*
X170400Y34000D01*
X170800Y33200D01*
X170000Y33600D01*
X169200Y33200D01*
X179200D02*
X179600Y34000D01*
X179200Y34800D01*
X180000Y34400D01*
X180800Y34800D01*
X180400Y34000D01*
X180800Y33200D01*
X180000Y33600D01*
X179200Y33200D01*
X130200D02*
X130600Y34000D01*
X130200Y34800D01*
X131000Y34400D01*
X131800Y34800D01*
X131400Y34000D01*
X131800Y33200D01*
X131000Y33600D01*
X130200Y33200D01*
X140200D02*
X140600Y34000D01*
X140200Y34800D01*
X141000Y34400D01*
X141800Y34800D01*
X141400Y34000D01*
X141800Y33200D01*
X141000Y33600D01*
X140200Y33200D01*
X244700Y321200D02*
X245100Y322000D01*
X244700Y322800D01*
X245500Y322400D01*
X246300Y322800D01*
X245900Y322000D01*
X246300Y321200D01*
X245500Y321600D01*
X244700Y321200D01*
Y311200D02*
X245100Y312000D01*
X244700Y312800D01*
X245500Y312400D01*
X246300Y312800D01*
X245900Y312000D01*
X246300Y311200D01*
X245500Y311600D01*
X244700Y311200D01*
X194600Y232600D02*
Y232200D01*
X195400D01*
Y232600D01*
X195800D01*
Y233400D01*
X195400D01*
Y233800D01*
X194600D01*
Y233400D01*
X194200D01*
Y232600D01*
X194600D01*
Y235600D02*
Y235200D01*
X195400D01*
Y235600D01*
X195800D01*
Y236400D01*
X195400D01*
Y236800D01*
X194600D01*
Y236400D01*
X194200D01*
Y235600D01*
X194600D01*
X192000D02*
Y235200D01*
X192800D01*
Y235600D01*
X193200D01*
Y236400D01*
X192800D01*
Y236800D01*
X192000D01*
Y236400D01*
X191600D01*
Y235600D01*
X192000D01*
Y232600D02*
Y232200D01*
X192800D01*
Y232600D01*
X193200D01*
Y233400D01*
X192800D01*
Y233800D01*
X192000D01*
Y233400D01*
X191600D01*
Y232600D01*
X192000D01*
X189100Y235600D02*
Y235200D01*
X189900D01*
Y235600D01*
X190300D01*
Y236400D01*
X189900D01*
Y236800D01*
X189100D01*
Y236400D01*
X188700D01*
Y235600D01*
X189100D01*
Y232600D02*
Y232200D01*
X189900D01*
Y232600D01*
X190300D01*
Y233400D01*
X189900D01*
Y233800D01*
X189100D01*
Y233400D01*
X188700D01*
Y232600D01*
X189100D01*
X198100Y223600D02*
Y223200D01*
X198900D01*
Y223600D01*
X199300D01*
Y224400D01*
X198900D01*
Y224800D01*
X198100D01*
Y224400D01*
X197700D01*
Y223600D01*
X198100D01*
Y220556D02*
Y220156D01*
X198900D01*
Y220556D01*
X199300D01*
Y221356D01*
X198900D01*
Y221756D01*
X198100D01*
Y221356D01*
X197700D01*
Y220556D01*
X198100D01*
X198000Y217318D02*
Y216918D01*
X198800D01*
Y217318D01*
X199200D01*
Y218118D01*
X198800D01*
Y218518D01*
X198000D01*
Y218118D01*
X197600D01*
Y217318D01*
X198000D01*
X198100Y214393D02*
Y213993D01*
X198900D01*
Y214393D01*
X199300D01*
Y215193D01*
X198900D01*
Y215593D01*
X198100D01*
Y215193D01*
X197700D01*
Y214393D01*
X198100D01*
X194537D02*
Y213993D01*
X195337D01*
Y214393D01*
X195737D01*
Y215193D01*
X195337D01*
Y215593D01*
X194537D01*
Y215193D01*
X194137D01*
Y214393D01*
X194537D01*
Y217600D02*
Y217200D01*
X195337D01*
Y217600D01*
X195737D01*
Y218400D01*
X195337D01*
Y218800D01*
X194537D01*
Y218400D01*
X194137D01*
Y217600D01*
X194537D01*
Y220600D02*
Y220200D01*
X195337D01*
Y220600D01*
X195737D01*
Y221400D01*
X195337D01*
Y221800D01*
X194537D01*
Y221400D01*
X194137D01*
Y220600D01*
X194537D01*
Y223600D02*
Y223200D01*
X195337D01*
Y223600D01*
X195737D01*
Y224400D01*
X195337D01*
Y224800D01*
X194537D01*
Y224400D01*
X194137D01*
Y223600D01*
X194537D01*
X245100Y227100D02*
Y226700D01*
X245900D01*
Y227100D01*
X246300D01*
Y227900D01*
X245900D01*
Y228300D01*
X245100D01*
Y227900D01*
X244700D01*
Y227100D01*
X245100D01*
Y230100D02*
Y229700D01*
X245900D01*
Y230100D01*
X246300D01*
Y230900D01*
X245900D01*
Y231300D01*
X245100D01*
Y230900D01*
X244700D01*
Y230100D01*
X245100D01*
Y233600D02*
Y233200D01*
X245900D01*
Y233600D01*
X246300D01*
Y234400D01*
X245900D01*
Y234800D01*
X245100D01*
Y234400D01*
X244700D01*
Y233600D01*
X245100D01*
Y237100D02*
Y236700D01*
X245900D01*
Y237100D01*
X246300D01*
Y237900D01*
X245900D01*
Y238300D01*
X245100D01*
Y237900D01*
X244700D01*
Y237100D01*
X245100D01*
X241100D02*
Y236700D01*
X241900D01*
Y237100D01*
X242300D01*
Y237900D01*
X241900D01*
Y238300D01*
X241100D01*
Y237900D01*
X240700D01*
Y237100D01*
X241100D01*
Y233600D02*
Y233200D01*
X241900D01*
Y233600D01*
X242300D01*
Y234400D01*
X241900D01*
Y234800D01*
X241100D01*
Y234400D01*
X240700D01*
Y233600D01*
X241100D01*
Y230100D02*
Y229700D01*
X241900D01*
Y230100D01*
X242300D01*
Y230900D01*
X241900D01*
Y231300D01*
X241100D01*
Y230900D01*
X240700D01*
Y230100D01*
X241100D01*
Y227100D02*
Y226700D01*
X241900D01*
Y227100D01*
X242300D01*
Y227900D01*
X241900D01*
Y228300D01*
X241100D01*
Y227900D01*
X240700D01*
Y227100D01*
X241100D01*
X249100Y237100D02*
Y236700D01*
X249900D01*
Y237100D01*
X250300D01*
Y237900D01*
X249900D01*
Y238300D01*
X249100D01*
Y237900D01*
X248700D01*
Y237100D01*
X249100D01*
Y233600D02*
Y233200D01*
X249900D01*
Y233600D01*
X250300D01*
Y234400D01*
X249900D01*
Y234800D01*
X249100D01*
Y234400D01*
X248700D01*
Y233600D01*
X249100D01*
Y230100D02*
Y229700D01*
X249900D01*
Y230100D01*
X250300D01*
Y230900D01*
X249900D01*
Y231300D01*
X249100D01*
Y230900D01*
X248700D01*
Y230100D01*
X249100D01*
Y227100D02*
Y226700D01*
X249900D01*
Y227100D01*
X250300D01*
Y227900D01*
X249900D01*
Y228300D01*
X249100D01*
Y227900D01*
X248700D01*
Y227100D01*
X249100D01*
X253100Y237100D02*
Y236700D01*
X253900D01*
Y237100D01*
X254300D01*
Y237900D01*
X253900D01*
Y238300D01*
X253100D01*
Y237900D01*
X252700D01*
Y237100D01*
X253100D01*
Y233600D02*
Y233200D01*
X253900D01*
Y233600D01*
X254300D01*
Y234400D01*
X253900D01*
Y234800D01*
X253100D01*
Y234400D01*
X252700D01*
Y233600D01*
X253100D01*
Y230100D02*
Y229700D01*
X253900D01*
Y230100D01*
X254300D01*
Y230900D01*
X253900D01*
Y231300D01*
X253100D01*
Y230900D01*
X252700D01*
Y230100D01*
X253100D01*
Y227100D02*
Y226700D01*
X253900D01*
Y227100D01*
X254300D01*
Y227900D01*
X253900D01*
Y228300D01*
X253100D01*
Y227900D01*
X252700D01*
Y227100D01*
X253100D01*
X237100Y237100D02*
Y236700D01*
X237900D01*
Y237100D01*
X238300D01*
Y237900D01*
X237900D01*
Y238300D01*
X237100D01*
Y237900D01*
X236700D01*
Y237100D01*
X237100D01*
Y233600D02*
Y233200D01*
X237900D01*
Y233600D01*
X238300D01*
Y234400D01*
X237900D01*
Y234800D01*
X237100D01*
Y234400D01*
X236700D01*
Y233600D01*
X237100D01*
Y230100D02*
Y229700D01*
X237900D01*
Y230100D01*
X238300D01*
Y230900D01*
X237900D01*
Y231300D01*
X237100D01*
Y230900D01*
X236700D01*
Y230100D01*
X237100D01*
Y227100D02*
Y226700D01*
X237900D01*
Y227100D01*
X238300D01*
Y227900D01*
X237900D01*
Y228300D01*
X237100D01*
Y227900D01*
X236700D01*
Y227100D01*
X237100D01*
Y224100D02*
Y223700D01*
X237900D01*
Y224100D01*
X238300D01*
Y224900D01*
X237900D01*
Y225300D01*
X237100D01*
Y224900D01*
X236700D01*
Y224100D01*
X237100D01*
X241100D02*
Y223700D01*
X241900D01*
Y224100D01*
X242300D01*
Y224900D01*
X241900D01*
Y225300D01*
X241100D01*
Y224900D01*
X240700D01*
Y224100D01*
X241100D01*
X245100D02*
Y223700D01*
X245900D01*
Y224100D01*
X246300D01*
Y224900D01*
X245900D01*
Y225300D01*
X245100D01*
Y224900D01*
X244700D01*
Y224100D01*
X245100D01*
X249100D02*
Y223700D01*
X249900D01*
Y224100D01*
X250300D01*
Y224900D01*
X249900D01*
Y225300D01*
X249100D01*
Y224900D01*
X248700D01*
Y224100D01*
X249100D01*
X253100D02*
Y223700D01*
X253900D01*
Y224100D01*
X254300D01*
Y224900D01*
X253900D01*
Y225300D01*
X253100D01*
Y224900D01*
X252700D01*
Y224100D01*
X253100D01*
Y221100D02*
Y220700D01*
X253900D01*
Y221100D01*
X254300D01*
Y221900D01*
X253900D01*
Y222300D01*
X253100D01*
Y221900D01*
X252700D01*
Y221100D01*
X253100D01*
X245100D02*
Y220700D01*
X245900D01*
Y221100D01*
X246300D01*
Y221900D01*
X245900D01*
Y222300D01*
X245100D01*
Y221900D01*
X244700D01*
Y221100D01*
X245100D01*
X237100D02*
Y220700D01*
X237900D01*
Y221100D01*
X238300D01*
Y221900D01*
X237900D01*
Y222300D01*
X237100D01*
Y221900D01*
X236700D01*
Y221100D01*
X237100D01*
X241100D02*
Y220700D01*
X241900D01*
Y221100D01*
X242300D01*
Y221900D01*
X241900D01*
Y222300D01*
X241100D01*
Y221900D01*
X240700D01*
Y221100D01*
X241100D01*
X249100D02*
Y220700D01*
X249900D01*
Y221100D01*
X250300D01*
Y221900D01*
X249900D01*
Y222300D01*
X249100D01*
Y221900D01*
X248700D01*
Y221100D01*
X249100D01*
X247473Y70600D02*
Y70200D01*
X248273D01*
Y70600D01*
X248673D01*
Y71400D01*
X248273D01*
Y71800D01*
X247473D01*
Y71400D01*
X247073D01*
Y70600D01*
X247473D01*
Y74600D02*
Y74200D01*
X248273D01*
Y74600D01*
X248673D01*
Y75400D01*
X248273D01*
Y75800D01*
X247473D01*
Y75400D01*
X247073D01*
Y74600D01*
X247473D01*
Y79100D02*
Y78700D01*
X248273D01*
Y79100D01*
X248673D01*
Y79900D01*
X248273D01*
Y80300D01*
X247473D01*
Y79900D01*
X247073D01*
Y79100D01*
X247473D01*
X243100D02*
Y78700D01*
X243900D01*
Y79100D01*
X244300D01*
Y79900D01*
X243900D01*
Y80300D01*
X243100D01*
Y79900D01*
X242700D01*
Y79100D01*
X243100D01*
X238100D02*
Y78700D01*
X238900D01*
Y79100D01*
X239300D01*
Y79900D01*
X238900D01*
Y80300D01*
X238100D01*
Y79900D01*
X237700D01*
Y79100D01*
X238100D01*
Y82600D02*
Y82200D01*
X238900D01*
Y82600D01*
X239300D01*
Y83400D01*
X238900D01*
Y83800D01*
X238100D01*
Y83400D01*
X237700D01*
Y82600D01*
X238100D01*
X243100Y83100D02*
Y82700D01*
X243900D01*
Y83100D01*
X244300D01*
Y83900D01*
X243900D01*
Y84300D01*
X243100D01*
Y83900D01*
X242700D01*
Y83100D01*
X243100D01*
X247600D02*
Y82700D01*
X248400D01*
Y83100D01*
X248800D01*
Y83900D01*
X248400D01*
Y84300D01*
X247600D01*
Y83900D01*
X247200D01*
Y83100D01*
X247600D01*
X249100Y116100D02*
Y115700D01*
X249900D01*
Y116100D01*
X250300D01*
Y116900D01*
X249900D01*
Y117300D01*
X249100D01*
Y116900D01*
X248700D01*
Y116100D01*
X249100D01*
X249171Y120600D02*
Y120200D01*
X249971D01*
Y120600D01*
X250371D01*
Y121400D01*
X249971D01*
Y121800D01*
X249171D01*
Y121400D01*
X248771D01*
Y120600D01*
X249171D01*
Y125100D02*
Y124700D01*
X249971D01*
Y125100D01*
X250371D01*
Y125900D01*
X249971D01*
Y126300D01*
X249171D01*
Y125900D01*
X248771D01*
Y125100D01*
X249171D01*
X244399D02*
Y124700D01*
X245199D01*
Y125100D01*
X245599D01*
Y125900D01*
X245199D01*
Y126300D01*
X244399D01*
Y125900D01*
X243999D01*
Y125100D01*
X244399D01*
X240100D02*
Y124700D01*
X240900D01*
Y125100D01*
X241300D01*
Y125900D01*
X240900D01*
Y126300D01*
X240100D01*
Y125900D01*
X239700D01*
Y125100D01*
X240100D01*
X236100D02*
Y124700D01*
X236900D01*
Y125100D01*
X237300D01*
Y125900D01*
X236900D01*
Y126300D01*
X236100D01*
Y125900D01*
X235700D01*
Y125100D01*
X236100D01*
Y129100D02*
Y128700D01*
X236900D01*
Y129100D01*
X237300D01*
Y129900D01*
X236900D01*
Y130300D01*
X236100D01*
Y129900D01*
X235700D01*
Y129100D01*
X236100D01*
X240100D02*
Y128700D01*
X240900D01*
Y129100D01*
X241300D01*
Y129900D01*
X240900D01*
Y130300D01*
X240100D01*
Y129900D01*
X239700D01*
Y129100D01*
X240100D01*
X244399D02*
Y128700D01*
X245199D01*
Y129100D01*
X245599D01*
Y129900D01*
X245199D01*
Y130300D01*
X244399D01*
Y129900D01*
X243999D01*
Y129100D01*
X244399D01*
X249171D02*
Y128700D01*
X249971D01*
Y129100D01*
X250371D01*
Y129900D01*
X249971D01*
Y130300D01*
X249171D01*
Y129900D01*
X248771D01*
Y129100D01*
X249171D01*
X253172Y125100D02*
Y124700D01*
X253972D01*
Y125100D01*
X254372D01*
Y125900D01*
X253972D01*
Y126300D01*
X253172D01*
Y125900D01*
X252772D01*
Y125100D01*
X253172D01*
Y129100D02*
Y128700D01*
X253972D01*
Y129100D01*
X254372D01*
Y129900D01*
X253972D01*
Y130300D01*
X253172D01*
Y129900D01*
X252772D01*
Y129100D01*
X253172D01*
Y120600D02*
Y120200D01*
X253972D01*
Y120600D01*
X254372D01*
Y121400D01*
X253972D01*
Y121800D01*
X253172D01*
Y121400D01*
X252772D01*
Y120600D01*
X253172D01*
Y116100D02*
Y115700D01*
X253972D01*
Y116100D01*
X254372D01*
Y116900D01*
X253972D01*
Y117300D01*
X253172D01*
Y116900D01*
X252772D01*
Y116100D01*
X253172D01*
X251559Y83100D02*
Y82700D01*
X252359D01*
Y83100D01*
X252759D01*
Y83900D01*
X252359D01*
Y84300D01*
X251559D01*
Y83900D01*
X251159D01*
Y83100D01*
X251559D01*
Y79100D02*
Y78700D01*
X252359D01*
Y79100D01*
X252759D01*
Y79900D01*
X252359D01*
Y80300D01*
X251559D01*
Y79900D01*
X251159D01*
Y79100D01*
X251559D01*
Y74600D02*
Y74200D01*
X252359D01*
Y74600D01*
X252759D01*
Y75400D01*
X252359D01*
Y75800D01*
X251559D01*
Y75400D01*
X251159D01*
Y74600D01*
X251559D01*
Y70600D02*
Y70200D01*
X252359D01*
Y70600D01*
X252759D01*
Y71400D01*
X252359D01*
Y71800D01*
X251559D01*
Y71400D01*
X251159D01*
Y70600D01*
X251559D01*
X218600Y40967D02*
Y40567D01*
X219400D01*
Y40967D01*
X219800D01*
Y41767D01*
X219400D01*
Y42167D01*
X218600D01*
Y41767D01*
X218200D01*
Y40967D01*
X218600D01*
X222100D02*
Y40567D01*
X222900D01*
Y40967D01*
X223300D01*
Y41767D01*
X222900D01*
Y42167D01*
X222100D01*
Y41767D01*
X221700D01*
Y40967D01*
X222100D01*
X226100D02*
Y40567D01*
X226900D01*
Y40967D01*
X227300D01*
Y41767D01*
X226900D01*
Y42167D01*
X226100D01*
Y41767D01*
X225700D01*
Y40967D01*
X226100D01*
Y44600D02*
Y44200D01*
X226900D01*
Y44600D01*
X227300D01*
Y45400D01*
X226900D01*
Y45800D01*
X226100D01*
Y45400D01*
X225700D01*
Y44600D01*
X226100D01*
X222100D02*
Y44200D01*
X222900D01*
Y44600D01*
X223300D01*
Y45400D01*
X222900D01*
Y45800D01*
X222100D01*
Y45400D01*
X221700D01*
Y44600D01*
X222100D01*
X218600D02*
Y44200D01*
X219400D01*
Y44600D01*
X219800D01*
Y45400D01*
X219400D01*
Y45800D01*
X218600D01*
Y45400D01*
X218200D01*
Y44600D01*
X218600D01*
X226100Y37600D02*
Y37200D01*
X226900D01*
Y37600D01*
X227300D01*
Y38400D01*
X226900D01*
Y38800D01*
X226100D01*
Y38400D01*
X225700D01*
Y37600D01*
X226100D01*
Y34100D02*
Y33700D01*
X226900D01*
Y34100D01*
X227300D01*
Y34900D01*
X226900D01*
Y35300D01*
X226100D01*
Y34900D01*
X225700D01*
Y34100D01*
X226100D01*
Y29600D02*
Y29200D01*
X226900D01*
Y29600D01*
X227300D01*
Y30400D01*
X226900D01*
Y30800D01*
X226100D01*
Y30400D01*
X225700D01*
Y29600D01*
X226100D01*
X187100Y34801D02*
Y34401D01*
X187900D01*
Y34801D01*
X188300D01*
Y35601D01*
X187900D01*
Y36001D01*
X187100D01*
Y35601D01*
X186700D01*
Y34801D01*
X187100D01*
Y31600D02*
Y31200D01*
X187900D01*
Y31600D01*
X188300D01*
Y32400D01*
X187900D01*
Y32800D01*
X187100D01*
Y32400D01*
X186700D01*
Y31600D01*
X187100D01*
Y28129D02*
Y27729D01*
X187900D01*
Y28129D01*
X188300D01*
Y28929D01*
X187900D01*
Y29329D01*
X187100D01*
Y28929D01*
X186700D01*
Y28129D01*
X187100D01*
X183600Y28100D02*
Y27700D01*
X184400D01*
Y28100D01*
X184800D01*
Y28900D01*
X184400D01*
Y29300D01*
X183600D01*
Y28900D01*
X183200D01*
Y28100D01*
X183600D01*
Y25105D02*
Y24705D01*
X184400D01*
Y25105D01*
X184800D01*
Y25905D01*
X184400D01*
Y26305D01*
X183600D01*
Y25905D01*
X183200D01*
Y25105D01*
X183600D01*
X180600D02*
Y24705D01*
X181400D01*
Y25105D01*
X181800D01*
Y25905D01*
X181400D01*
Y26305D01*
X180600D01*
Y25905D01*
X180200D01*
Y25105D01*
X180600D01*
X187100D02*
Y24705D01*
X187900D01*
Y25105D01*
X188300D01*
Y25905D01*
X187900D01*
Y26305D01*
X187100D01*
Y25905D01*
X186700D01*
Y25105D01*
X187100D01*
X177100D02*
Y24705D01*
X177900D01*
Y25105D01*
X178300D01*
Y25905D01*
X177900D01*
Y26305D01*
X177100D01*
Y25905D01*
X176700D01*
Y25105D01*
X177100D01*
X148600Y33600D02*
Y33200D01*
X149400D01*
Y33600D01*
X149800D01*
Y34400D01*
X149400D01*
Y34800D01*
X148600D01*
Y34400D01*
X148200D01*
Y33600D01*
X148600D01*
Y30100D02*
Y29700D01*
X149400D01*
Y30100D01*
X149800D01*
Y30900D01*
X149400D01*
Y31300D01*
X148600D01*
Y30900D01*
X148200D01*
Y30100D01*
X148600D01*
Y26943D02*
Y26544D01*
X149400D01*
Y26943D01*
X149800D01*
Y27744D01*
X149400D01*
Y28144D01*
X148600D01*
Y27744D01*
X148200D01*
Y26943D01*
X148600D01*
X144600D02*
Y26544D01*
X145400D01*
Y26943D01*
X145800D01*
Y27744D01*
X145400D01*
Y28144D01*
X144600D01*
Y27744D01*
X144200D01*
Y26943D01*
X144600D01*
X140100Y26977D02*
Y26577D01*
X140900D01*
Y26977D01*
X141300D01*
Y27777D01*
X140900D01*
Y28177D01*
X140100D01*
Y27777D01*
X139700D01*
Y26977D01*
X140100D01*
Y23100D02*
Y22700D01*
X140900D01*
Y23100D01*
X141300D01*
Y23900D01*
X140900D01*
Y24300D01*
X140100D01*
Y23900D01*
X139700D01*
Y23100D01*
X140100D01*
X144600D02*
Y22700D01*
X145400D01*
Y23100D01*
X145800D01*
Y23900D01*
X145400D01*
Y24300D01*
X144600D01*
Y23900D01*
X144200D01*
Y23100D01*
X144600D01*
X148600Y23232D02*
Y22832D01*
X149400D01*
Y23232D01*
X149800D01*
Y24032D01*
X149400D01*
Y24432D01*
X148600D01*
Y24032D01*
X148200D01*
Y23232D01*
X148600D01*
X153100Y26977D02*
Y26577D01*
X153900D01*
Y26977D01*
X154300D01*
Y27777D01*
X153900D01*
Y28177D01*
X153100D01*
Y27777D01*
X152700D01*
Y26977D01*
X153100D01*
Y30100D02*
Y29700D01*
X153900D01*
Y30100D01*
X154300D01*
Y30900D01*
X153900D01*
Y31300D01*
X153100D01*
Y30900D01*
X152700D01*
Y30100D01*
X153100D01*
Y33600D02*
Y33200D01*
X153900D01*
Y33600D01*
X154300D01*
Y34400D01*
X153900D01*
Y34800D01*
X153100D01*
Y34400D01*
X152700D01*
Y33600D01*
X153100D01*
Y23232D02*
Y22832D01*
X153900D01*
Y23232D01*
X154300D01*
Y24032D01*
X153900D01*
Y24432D01*
X153100D01*
Y24032D01*
X152700D01*
Y23232D01*
X153100D01*
X197536Y125100D02*
Y124700D01*
X198336D01*
Y125100D01*
X198736D01*
Y125900D01*
X198336D01*
Y126300D01*
X197536D01*
Y125900D01*
X197136D01*
Y125100D01*
X197536D01*
X193600D02*
Y124700D01*
X194400D01*
Y125100D01*
X194800D01*
Y125900D01*
X194400D01*
Y126300D01*
X193600D01*
Y125900D01*
X193200D01*
Y125100D01*
X193600D01*
X189600D02*
Y124700D01*
X190400D01*
Y125100D01*
X190800D01*
Y125900D01*
X190400D01*
Y126300D01*
X189600D01*
Y125900D01*
X189200D01*
Y125100D01*
X189600D01*
X186098D02*
Y124700D01*
X186898D01*
Y125100D01*
X187298D01*
Y125900D01*
X186898D01*
Y126300D01*
X186098D01*
Y125900D01*
X185698D01*
Y125100D01*
X186098D01*
X182600D02*
Y124700D01*
X183400D01*
Y125100D01*
X183800D01*
Y125900D01*
X183400D01*
Y126300D01*
X182600D01*
Y125900D01*
X182200D01*
Y125100D01*
X182600D01*
Y122100D02*
Y121700D01*
X183400D01*
Y122100D01*
X183800D01*
Y122900D01*
X183400D01*
Y123300D01*
X182600D01*
Y122900D01*
X182200D01*
Y122100D01*
X182600D01*
X186098D02*
Y121700D01*
X186898D01*
Y122100D01*
X187298D01*
Y122900D01*
X186898D01*
Y123300D01*
X186098D01*
Y122900D01*
X185698D01*
Y122100D01*
X186098D01*
X189600D02*
Y121700D01*
X190400D01*
Y122100D01*
X190800D01*
Y122900D01*
X190400D01*
Y123300D01*
X189600D01*
Y122900D01*
X189200D01*
Y122100D01*
X189600D01*
Y119100D02*
Y118700D01*
X190400D01*
Y119100D01*
X190800D01*
Y119900D01*
X190400D01*
Y120300D01*
X189600D01*
Y119900D01*
X189200D01*
Y119100D01*
X189600D01*
X186098D02*
Y118700D01*
X186898D01*
Y119100D01*
X187298D01*
Y119900D01*
X186898D01*
Y120300D01*
X186098D01*
Y119900D01*
X185698D01*
Y119100D01*
X186098D01*
X182600D02*
Y118700D01*
X183400D01*
Y119100D01*
X183800D01*
Y119900D01*
X183400D01*
Y120300D01*
X182600D01*
Y119900D01*
X182200D01*
Y119100D01*
X182600D01*
X172985Y104600D02*
Y104200D01*
X173785D01*
Y104600D01*
X174185D01*
Y105400D01*
X173785D01*
Y105800D01*
X172985D01*
Y105400D01*
X172585D01*
Y104600D01*
X172985D01*
X172908Y108100D02*
Y107700D01*
X173708D01*
Y108100D01*
X174108D01*
Y108900D01*
X173708D01*
Y109300D01*
X172908D01*
Y108900D01*
X172508D01*
Y108100D01*
X172908D01*
X169263D02*
Y107700D01*
X170063D01*
Y108100D01*
X170463D01*
Y108900D01*
X170063D01*
Y109300D01*
X169263D01*
Y108900D01*
X168863D01*
Y108100D01*
X169263D01*
Y110762D02*
Y110362D01*
X170063D01*
Y110762D01*
X170463D01*
Y111562D01*
X170063D01*
Y111962D01*
X169263D01*
Y111562D01*
X168863D01*
Y110762D01*
X169263D01*
X173070D02*
Y110362D01*
X173870D01*
Y110762D01*
X174270D01*
Y111562D01*
X173870D01*
Y111962D01*
X173070D01*
Y111562D01*
X172670D01*
Y110762D01*
X173070D01*
X182635Y57600D02*
Y57200D01*
X183435D01*
Y57600D01*
X183835D01*
Y58400D01*
X183435D01*
Y58800D01*
X182635D01*
Y58400D01*
X182235D01*
Y57600D01*
X182635D01*
X178699D02*
Y57200D01*
X179499D01*
Y57600D01*
X179899D01*
Y58400D01*
X179499D01*
Y58800D01*
X178699D01*
Y58400D01*
X178299D01*
Y57600D01*
X178699D01*
X178600Y54315D02*
Y53915D01*
X179400D01*
Y54315D01*
X179800D01*
Y55115D01*
X179400D01*
Y55515D01*
X178600D01*
Y55115D01*
X178200D01*
Y54315D01*
X178600D01*
X182600Y54100D02*
Y53700D01*
X183400D01*
Y54100D01*
X183800D01*
Y54900D01*
X183400D01*
Y55300D01*
X182600D01*
Y54900D01*
X182200D01*
Y54100D01*
X182600D01*
X236600Y291600D02*
Y291200D01*
X237400D01*
Y291600D01*
X237800D01*
Y292400D01*
X237400D01*
Y292800D01*
X236600D01*
Y292400D01*
X236200D01*
Y291600D01*
X236600D01*
Y296624D02*
Y296224D01*
X237400D01*
Y296624D01*
X237800D01*
Y297424D01*
X237400D01*
Y297824D01*
X236600D01*
Y297424D01*
X236200D01*
Y296624D01*
X236600D01*
X241600D02*
Y296224D01*
X242400D01*
Y296624D01*
X242800D01*
Y297424D01*
X242400D01*
Y297824D01*
X241600D01*
Y297424D01*
X241200D01*
Y296624D01*
X241600D01*
Y291600D02*
Y291200D01*
X242400D01*
Y291600D01*
X242800D01*
Y292400D01*
X242400D01*
Y292800D01*
X241600D01*
Y292400D01*
X241200D01*
Y291600D01*
X241600D01*
Y287100D02*
Y286700D01*
X242400D01*
Y287100D01*
X242800D01*
Y287900D01*
X242400D01*
Y288300D01*
X241600D01*
Y287900D01*
X241200D01*
Y287100D01*
X241600D01*
X236600D02*
Y286700D01*
X237400D01*
Y287100D01*
X237800D01*
Y287900D01*
X237400D01*
Y288300D01*
X236600D01*
Y287900D01*
X236200D01*
Y287100D01*
X236600D01*
Y282600D02*
Y282200D01*
X237400D01*
Y282600D01*
X237800D01*
Y283400D01*
X237400D01*
Y283800D01*
X236600D01*
Y283400D01*
X236200D01*
Y282600D01*
X236600D01*
X241600D02*
Y282200D01*
X242400D01*
Y282600D01*
X242800D01*
Y283400D01*
X242400D01*
Y283800D01*
X241600D01*
Y283400D01*
X241200D01*
Y282600D01*
X241600D01*
X125833Y258100D02*
Y257700D01*
X126633D01*
Y258100D01*
X127033D01*
Y258900D01*
X126633D01*
Y259300D01*
X125833D01*
Y258900D01*
X125433D01*
Y258100D01*
X125833D01*
X129100D02*
Y257700D01*
X129900D01*
Y258100D01*
X130300D01*
Y258900D01*
X129900D01*
Y259300D01*
X129100D01*
Y258900D01*
X128700D01*
Y258100D01*
X129100D01*
Y255100D02*
Y254700D01*
X129900D01*
Y255100D01*
X130300D01*
Y255900D01*
X129900D01*
Y256300D01*
X129100D01*
Y255900D01*
X128700D01*
Y255100D01*
X129100D01*
X125833D02*
Y254700D01*
X126633D01*
Y255100D01*
X127033D01*
Y255900D01*
X126633D01*
Y256300D01*
X125833D01*
Y255900D01*
X125433D01*
Y255100D01*
X125833D01*
X167600Y296263D02*
Y295863D01*
X168400D01*
Y296263D01*
X168800D01*
Y297063D01*
X168400D01*
Y297463D01*
X167600D01*
Y297063D01*
X167200D01*
Y296263D01*
X167600D01*
X164100Y296100D02*
Y295700D01*
X164900D01*
Y296100D01*
X165300D01*
Y296900D01*
X164900D01*
Y297300D01*
X164100D01*
Y296900D01*
X163700D01*
Y296100D01*
X164100D01*
X160394Y295600D02*
Y295200D01*
X161194D01*
Y295600D01*
X161594D01*
Y296400D01*
X161194D01*
Y296800D01*
X160394D01*
Y296400D01*
X159994D01*
Y295600D01*
X160394D01*
Y293100D02*
Y292700D01*
X161194D01*
Y293100D01*
X161594D01*
Y293900D01*
X161194D01*
Y294300D01*
X160394D01*
Y293900D01*
X159994D01*
Y293100D01*
X160394D01*
X149712Y295600D02*
Y295200D01*
X150512D01*
Y295600D01*
X150912D01*
Y296400D01*
X150512D01*
Y296800D01*
X149712D01*
Y296400D01*
X149312D01*
Y295600D01*
X149712D01*
Y293100D02*
Y292700D01*
X150512D01*
Y293100D01*
X150912D01*
Y293900D01*
X150512D01*
Y294300D01*
X149712D01*
Y293900D01*
X149312D01*
Y293100D01*
X149712D01*
X146600Y295600D02*
Y295200D01*
X147400D01*
Y295600D01*
X147800D01*
Y296400D01*
X147400D01*
Y296800D01*
X146600D01*
Y296400D01*
X146200D01*
Y295600D01*
X146600D01*
Y293100D02*
Y292700D01*
X147400D01*
Y293100D01*
X147800D01*
Y293900D01*
X147400D01*
Y294300D01*
X146600D01*
Y293900D01*
X146200D01*
Y293100D01*
X146600D01*
X143600Y295600D02*
Y295200D01*
X144400D01*
Y295600D01*
X144800D01*
Y296400D01*
X144400D01*
Y296800D01*
X143600D01*
Y296400D01*
X143200D01*
Y295600D01*
X143600D01*
Y293100D02*
Y292700D01*
X144400D01*
Y293100D01*
X144800D01*
Y293900D01*
X144400D01*
Y294300D01*
X143600D01*
Y293900D01*
X143200D01*
Y293100D01*
X143600D01*
X253100Y244600D02*
Y244200D01*
X253900D01*
Y244600D01*
X254300D01*
Y245400D01*
X253900D01*
Y245800D01*
X253100D01*
Y245400D01*
X252700D01*
Y244600D01*
X253100D01*
Y248600D02*
Y248200D01*
X253900D01*
Y248600D01*
X254300D01*
Y249400D01*
X253900D01*
Y249800D01*
X253100D01*
Y249400D01*
X252700D01*
Y248600D01*
X253100D01*
Y252100D02*
Y251700D01*
X253900D01*
Y252100D01*
X254300D01*
Y252900D01*
X253900D01*
Y253300D01*
X253100D01*
Y252900D01*
X252700D01*
Y252100D01*
X253100D01*
X249100D02*
Y251700D01*
X249900D01*
Y252100D01*
X250300D01*
Y252900D01*
X249900D01*
Y253300D01*
X249100D01*
Y252900D01*
X248700D01*
Y252100D01*
X249100D01*
Y248600D02*
Y248200D01*
X249900D01*
Y248600D01*
X250300D01*
Y249400D01*
X249900D01*
Y249800D01*
X249100D01*
Y249400D01*
X248700D01*
Y248600D01*
X249100D01*
Y244600D02*
Y244200D01*
X249900D01*
Y244600D01*
X250300D01*
Y245400D01*
X249900D01*
Y245800D01*
X249100D01*
Y245400D01*
X248700D01*
Y244600D01*
X249100D01*
Y241100D02*
Y240700D01*
X249900D01*
Y241100D01*
X250300D01*
Y241900D01*
X249900D01*
Y242300D01*
X249100D01*
Y241900D01*
X248700D01*
Y241100D01*
X249100D01*
X245100D02*
Y240700D01*
X245900D01*
Y241100D01*
X246300D01*
Y241900D01*
X245900D01*
Y242300D01*
X245100D01*
Y241900D01*
X244700D01*
Y241100D01*
X245100D01*
Y244600D02*
Y244200D01*
X245900D01*
Y244600D01*
X246300D01*
Y245400D01*
X245900D01*
Y245800D01*
X245100D01*
Y245400D01*
X244700D01*
Y244600D01*
X245100D01*
Y248600D02*
Y248200D01*
X245900D01*
Y248600D01*
X246300D01*
Y249400D01*
X245900D01*
Y249800D01*
X245100D01*
Y249400D01*
X244700D01*
Y248600D01*
X245100D01*
Y252100D02*
Y251700D01*
X245900D01*
Y252100D01*
X246300D01*
Y252900D01*
X245900D01*
Y253300D01*
X245100D01*
Y252900D01*
X244700D01*
Y252100D01*
X245100D01*
X241100Y241100D02*
Y240700D01*
X241900D01*
Y241100D01*
X242300D01*
Y241900D01*
X241900D01*
Y242300D01*
X241100D01*
Y241900D01*
X240700D01*
Y241100D01*
X241100D01*
Y244600D02*
Y244200D01*
X241900D01*
Y244600D01*
X242300D01*
Y245400D01*
X241900D01*
Y245800D01*
X241100D01*
Y245400D01*
X240700D01*
Y244600D01*
X241100D01*
Y248600D02*
Y248200D01*
X241900D01*
Y248600D01*
X242300D01*
Y249400D01*
X241900D01*
Y249800D01*
X241100D01*
Y249400D01*
X240700D01*
Y248600D01*
X241100D01*
Y252100D02*
Y251700D01*
X241900D01*
Y252100D01*
X242300D01*
Y252900D01*
X241900D01*
Y253300D01*
X241100D01*
Y252900D01*
X240700D01*
Y252100D01*
X241100D01*
X237100Y241100D02*
Y240700D01*
X237900D01*
Y241100D01*
X238300D01*
Y241900D01*
X237900D01*
Y242300D01*
X237100D01*
Y241900D01*
X236700D01*
Y241100D01*
X237100D01*
Y244600D02*
Y244200D01*
X237900D01*
Y244600D01*
X238300D01*
Y245400D01*
X237900D01*
Y245800D01*
X237100D01*
Y245400D01*
X236700D01*
Y244600D01*
X237100D01*
Y248600D02*
Y248200D01*
X237900D01*
Y248600D01*
X238300D01*
Y249400D01*
X237900D01*
Y249800D01*
X237100D01*
Y249400D01*
X236700D01*
Y248600D01*
X237100D01*
Y252100D02*
Y251700D01*
X237900D01*
Y252100D01*
X238300D01*
Y252900D01*
X237900D01*
Y253300D01*
X237100D01*
Y252900D01*
X236700D01*
Y252100D01*
X237100D01*
X253100Y241100D02*
Y240700D01*
X253900D01*
Y241100D01*
X254300D01*
Y241900D01*
X253900D01*
Y242300D01*
X253100D01*
Y241900D01*
X252700D01*
Y241100D01*
X253100D01*
X186100Y232658D02*
Y232258D01*
X186900D01*
Y232658D01*
X187300D01*
Y233458D01*
X186900D01*
Y233858D01*
X186100D01*
Y233458D01*
X185700D01*
Y232658D01*
X186100D01*
Y235600D02*
Y235200D01*
X186900D01*
Y235600D01*
X187300D01*
Y236400D01*
X186900D01*
Y236800D01*
X186100D01*
Y236400D01*
X185700D01*
Y235600D01*
X186100D01*
X181600Y236100D02*
Y235700D01*
X182400D01*
Y236100D01*
X182800D01*
Y236900D01*
X182400D01*
Y237300D01*
X181600D01*
Y236900D01*
X181200D01*
Y236100D01*
X181600D01*
Y233100D02*
Y232700D01*
X182400D01*
Y233100D01*
X182800D01*
Y233900D01*
X182400D01*
Y234300D01*
X181600D01*
Y233900D01*
X181200D01*
Y233100D01*
X181600D01*
Y239100D02*
Y238700D01*
X182400D01*
Y239100D01*
X182800D01*
Y239900D01*
X182400D01*
Y240300D01*
X181600D01*
Y239900D01*
X181200D01*
Y239100D01*
X181600D01*
Y242100D02*
Y241700D01*
X182400D01*
Y242100D01*
X182800D01*
Y242900D01*
X182400D01*
Y243300D01*
X181600D01*
Y242900D01*
X181200D01*
Y242100D01*
X181600D01*
Y245100D02*
Y244700D01*
X182400D01*
Y245100D01*
X182800D01*
Y245900D01*
X182400D01*
Y246300D01*
X181600D01*
Y245900D01*
X181200D01*
Y245100D01*
X181600D01*
Y248100D02*
Y247700D01*
X182400D01*
Y248100D01*
X182800D01*
Y248900D01*
X182400D01*
Y249300D01*
X181600D01*
Y248900D01*
X181200D01*
Y248100D01*
X181600D01*
X177600D02*
Y247700D01*
X178400D01*
Y248100D01*
X178800D01*
Y248900D01*
X178400D01*
Y249300D01*
X177600D01*
Y248900D01*
X177200D01*
Y248100D01*
X177600D01*
Y245100D02*
Y244700D01*
X178400D01*
Y245100D01*
X178800D01*
Y245900D01*
X178400D01*
Y246300D01*
X177600D01*
Y245900D01*
X177200D01*
Y245100D01*
X177600D01*
Y242100D02*
Y241700D01*
X178400D01*
Y242100D01*
X178800D01*
Y242900D01*
X178400D01*
Y243300D01*
X177600D01*
Y242900D01*
X177200D01*
Y242100D01*
X177600D01*
Y239100D02*
Y238700D01*
X178400D01*
Y239100D01*
X178800D01*
Y239900D01*
X178400D01*
Y240300D01*
X177600D01*
Y239900D01*
X177200D01*
Y239100D01*
X177600D01*
Y236100D02*
Y235700D01*
X178400D01*
Y236100D01*
X178800D01*
Y236900D01*
X178400D01*
Y237300D01*
X177600D01*
Y236900D01*
X177200D01*
Y236100D01*
X177600D01*
Y233100D02*
Y232700D01*
X178400D01*
Y233100D01*
X178800D01*
Y233900D01*
X178400D01*
Y234300D01*
X177600D01*
Y233900D01*
X177200D01*
Y233100D01*
X177600D01*
D70*
X39902Y307488D02*
G03*
X39902Y307488I-800J0D01*
G01*
X45414Y309260D02*
G03*
X45414Y309260I-800J0D01*
G01*
X49351Y313000D02*
G03*
X49351Y313000I-800J0D01*
G01*
X30454D02*
G03*
X30454Y313000I-800J0D01*
G01*
X34391Y309260D02*
G03*
X34391Y309260I-800J0D01*
G01*
X45414Y329732D02*
G03*
X45414Y329732I-800J0D01*
G01*
X49351Y325992D02*
G03*
X49351Y325992I-800J0D01*
G01*
X30454D02*
G03*
X30454Y325992I-800J0D01*
G01*
X34391Y329732D02*
G03*
X34391Y329732I-800J0D01*
G01*
X39902Y331504D02*
G03*
X39902Y331504I-800J0D01*
G01*
X68249D02*
G03*
X68249Y331504I-800J0D01*
G01*
X62737Y329732D02*
G03*
X62737Y329732I-800J0D01*
G01*
X58800Y325992D02*
G03*
X58800Y325992I-800J0D01*
G01*
X77698D02*
G03*
X77698Y325992I-800J0D01*
G01*
X73761Y329732D02*
G03*
X73761Y329732I-800J0D01*
G01*
X62737Y309260D02*
G03*
X62737Y309260I-800J0D01*
G01*
X58800Y313000D02*
G03*
X58800Y313000I-800J0D01*
G01*
X77698D02*
G03*
X77698Y313000I-800J0D01*
G01*
X73761Y309260D02*
G03*
X73761Y309260I-800J0D01*
G01*
X68249Y307488D02*
G03*
X68249Y307488I-800J0D01*
G01*
X39902Y166488D02*
G03*
X39902Y166488I-800J0D01*
G01*
X45414Y168260D02*
G03*
X45414Y168260I-800J0D01*
G01*
X49351Y172000D02*
G03*
X49351Y172000I-800J0D01*
G01*
X30454D02*
G03*
X30454Y172000I-800J0D01*
G01*
X34391Y168260D02*
G03*
X34391Y168260I-800J0D01*
G01*
X45414Y188732D02*
G03*
X45414Y188732I-800J0D01*
G01*
X49351Y184992D02*
G03*
X49351Y184992I-800J0D01*
G01*
X30454D02*
G03*
X30454Y184992I-800J0D01*
G01*
X34391Y188732D02*
G03*
X34391Y188732I-800J0D01*
G01*
X39902Y190504D02*
G03*
X39902Y190504I-800J0D01*
G01*
X68249D02*
G03*
X68249Y190504I-800J0D01*
G01*
X62737Y188732D02*
G03*
X62737Y188732I-800J0D01*
G01*
X58800Y184992D02*
G03*
X58800Y184992I-800J0D01*
G01*
X77698D02*
G03*
X77698Y184992I-800J0D01*
G01*
X73761Y188732D02*
G03*
X73761Y188732I-800J0D01*
G01*
X62737Y168260D02*
G03*
X62737Y168260I-800J0D01*
G01*
X58800Y172000D02*
G03*
X58800Y172000I-800J0D01*
G01*
X77698D02*
G03*
X77698Y172000I-800J0D01*
G01*
X73761Y168260D02*
G03*
X73761Y168260I-800J0D01*
G01*
X68249Y166488D02*
G03*
X68249Y166488I-800J0D01*
G01*
X198800Y99500D02*
G03*
X198800Y99500I-800J0D01*
G01*
Y119185D02*
G03*
X198800Y119185I-800J0D01*
G01*
X201115Y295000D02*
G03*
X201115Y295000I-800J0D01*
G01*
X220800D02*
G03*
X220800Y295000I-800J0D01*
G01*
X39902Y108756D02*
G03*
X39902Y108756I-800J0D01*
G01*
X45414Y110528D02*
G03*
X45414Y110528I-800J0D01*
G01*
X49351Y114268D02*
G03*
X49351Y114268I-800J0D01*
G01*
X30454D02*
G03*
X30454Y114268I-800J0D01*
G01*
X34391Y110528D02*
G03*
X34391Y110528I-800J0D01*
G01*
X45414Y131000D02*
G03*
X45414Y131000I-800J0D01*
G01*
X49351Y127260D02*
G03*
X49351Y127260I-800J0D01*
G01*
X30454D02*
G03*
X30454Y127260I-800J0D01*
G01*
X34391Y131000D02*
G03*
X34391Y131000I-800J0D01*
G01*
X39902Y132772D02*
G03*
X39902Y132772I-800J0D01*
G01*
X68249D02*
G03*
X68249Y132772I-800J0D01*
G01*
X62737Y131000D02*
G03*
X62737Y131000I-800J0D01*
G01*
X58800Y127260D02*
G03*
X58800Y127260I-800J0D01*
G01*
X77698D02*
G03*
X77698Y127260I-800J0D01*
G01*
X73761Y131000D02*
G03*
X73761Y131000I-800J0D01*
G01*
X62737Y110528D02*
G03*
X62737Y110528I-800J0D01*
G01*
X58800Y114268D02*
G03*
X58800Y114268I-800J0D01*
G01*
X77698D02*
G03*
X77698Y114268I-800J0D01*
G01*
X73761Y110528D02*
G03*
X73761Y110528I-800J0D01*
G01*
X68249Y108756D02*
G03*
X68249Y108756I-800J0D01*
G01*
X39902Y52496D02*
G03*
X39902Y52496I-800J0D01*
G01*
X45414Y54268D02*
G03*
X45414Y54268I-800J0D01*
G01*
X49351Y58008D02*
G03*
X49351Y58008I-800J0D01*
G01*
X30454D02*
G03*
X30454Y58008I-800J0D01*
G01*
X34391Y54268D02*
G03*
X34391Y54268I-800J0D01*
G01*
X45414Y74740D02*
G03*
X45414Y74740I-800J0D01*
G01*
X49351Y71000D02*
G03*
X49351Y71000I-800J0D01*
G01*
X30454D02*
G03*
X30454Y71000I-800J0D01*
G01*
X34391Y74740D02*
G03*
X34391Y74740I-800J0D01*
G01*
X39902Y76512D02*
G03*
X39902Y76512I-800J0D01*
G01*
X68249D02*
G03*
X68249Y76512I-800J0D01*
G01*
X62737Y74740D02*
G03*
X62737Y74740I-800J0D01*
G01*
X58800Y71000D02*
G03*
X58800Y71000I-800J0D01*
G01*
X77698D02*
G03*
X77698Y71000I-800J0D01*
G01*
X73761Y74740D02*
G03*
X73761Y74740I-800J0D01*
G01*
X62737Y54268D02*
G03*
X62737Y54268I-800J0D01*
G01*
X58800Y58008D02*
G03*
X58800Y58008I-800J0D01*
G01*
X77698D02*
G03*
X77698Y58008I-800J0D01*
G01*
X73761Y54268D02*
G03*
X73761Y54268I-800J0D01*
G01*
X68249Y52496D02*
G03*
X68249Y52496I-800J0D01*
G01*
X39902Y229488D02*
G03*
X39902Y229488I-800J0D01*
G01*
X45414Y231260D02*
G03*
X45414Y231260I-800J0D01*
G01*
X49351Y235000D02*
G03*
X49351Y235000I-800J0D01*
G01*
X30454D02*
G03*
X30454Y235000I-800J0D01*
G01*
X34391Y231260D02*
G03*
X34391Y231260I-800J0D01*
G01*
X45414Y251732D02*
G03*
X45414Y251732I-800J0D01*
G01*
X49351Y247992D02*
G03*
X49351Y247992I-800J0D01*
G01*
X30454D02*
G03*
X30454Y247992I-800J0D01*
G01*
X34391Y251732D02*
G03*
X34391Y251732I-800J0D01*
G01*
X39902Y253504D02*
G03*
X39902Y253504I-800J0D01*
G01*
X68249D02*
G03*
X68249Y253504I-800J0D01*
G01*
X62737Y251732D02*
G03*
X62737Y251732I-800J0D01*
G01*
X58800Y247992D02*
G03*
X58800Y247992I-800J0D01*
G01*
X77698D02*
G03*
X77698Y247992I-800J0D01*
G01*
X73761Y251732D02*
G03*
X73761Y251732I-800J0D01*
G01*
X62737Y231260D02*
G03*
X62737Y231260I-800J0D01*
G01*
X58800Y235000D02*
G03*
X58800Y235000I-800J0D01*
G01*
X77698D02*
G03*
X77698Y235000I-800J0D01*
G01*
X73761Y231260D02*
G03*
X73761Y231260I-800J0D01*
G01*
X68249Y229488D02*
G03*
X68249Y229488I-800J0D01*
G01*
M02*
