G04 Layer_Physical_Order=2*
G04 Layer_Color=16711680*
%FSLAX25Y25*%
%MOIN*%
G70*
G01*
G75*
%ADD26O,0.33465X0.11811*%
%ADD27C,0.05512*%
%ADD28C,0.04724*%
%ADD29C,0.03543*%
%ADD30O,0.25590X0.31496*%
%ADD31R,0.07087X0.07087*%
%ADD32C,0.07087*%
%ADD33R,0.07087X0.07087*%
%ADD34C,0.07874*%
%ADD35C,0.02000*%
G36*
X271654Y374016D02*
X272041D01*
X272802Y373864D01*
X273518Y373568D01*
X274163Y373137D01*
X274712Y372588D01*
X275143Y371944D01*
X275439Y371227D01*
X275590Y370466D01*
Y370079D01*
Y3937D01*
Y3549D01*
X275439Y2789D01*
X275143Y2072D01*
X274712Y1427D01*
X274163Y879D01*
X273518Y448D01*
X272802Y151D01*
X272041Y0D01*
X110000D01*
Y143000D01*
X88000D01*
Y29980D01*
X57000Y29980D01*
Y345000D01*
X88000Y345000D01*
Y231500D01*
X110000D01*
Y374016D01*
X271654Y374016D01*
D02*
G37*
G36*
X50000Y30000D02*
X13386D01*
X13000Y344646D01*
X13354Y345000D01*
X50000D01*
Y30000D01*
D02*
G37*
%LPC*%
G36*
X256526Y27718D02*
X255285D01*
X255118Y27684D01*
X254947D01*
X253730Y27442D01*
X253572Y27377D01*
X253405Y27343D01*
X252258Y26869D01*
X252116Y26774D01*
X251959Y26708D01*
X250927Y26019D01*
X250806Y25898D01*
X250664Y25804D01*
X249787Y24926D01*
X249692Y24784D01*
X249571Y24664D01*
X248882Y23632D01*
X248817Y23474D01*
X248722Y23332D01*
X248247Y22186D01*
X248214Y22018D01*
X248148Y21861D01*
X247906Y20644D01*
Y20473D01*
X247873Y20305D01*
Y19065D01*
X247906Y18897D01*
Y18726D01*
X248148Y17510D01*
X248214Y17352D01*
X248247Y17184D01*
X248722Y16038D01*
X248817Y15896D01*
X248882Y15738D01*
X249571Y14706D01*
X249692Y14586D01*
X249787Y14444D01*
X250664Y13566D01*
X250806Y13472D01*
X250927Y13351D01*
X251959Y12662D01*
X252116Y12596D01*
X252258Y12501D01*
X253405Y12026D01*
X253572Y11993D01*
X253730Y11928D01*
X254947Y11686D01*
X255118D01*
X255285Y11653D01*
X256526D01*
X256693Y11686D01*
X256864D01*
X258081Y11928D01*
X258239Y11993D01*
X258406Y12026D01*
X259553Y12501D01*
X259695Y12596D01*
X259852Y12662D01*
X260884Y13351D01*
X261005Y13472D01*
X261147Y13566D01*
X262024Y14444D01*
X262119Y14586D01*
X262240Y14706D01*
X262929Y15738D01*
X262994Y15896D01*
X263089Y16038D01*
X263564Y17184D01*
X263597Y17352D01*
X263663Y17510D01*
X263905Y18726D01*
Y18897D01*
X263938Y19065D01*
Y20305D01*
X263905Y20473D01*
Y20644D01*
X263663Y21861D01*
X263597Y22018D01*
X263564Y22186D01*
X263089Y23332D01*
X262994Y23474D01*
X262929Y23632D01*
X262240Y24664D01*
X262119Y24784D01*
X262024Y24926D01*
X261147Y25804D01*
X261005Y25898D01*
X260884Y26019D01*
X259852Y26708D01*
X259695Y26774D01*
X259553Y26869D01*
X258406Y27343D01*
X258239Y27377D01*
X258081Y27442D01*
X256864Y27684D01*
X256693D01*
X256526Y27718D01*
D02*
G37*
G36*
X240500Y68186D02*
X239029Y67992D01*
X237657Y67424D01*
X236480Y66520D01*
X235576Y65343D01*
X235008Y63972D01*
X234814Y62500D01*
X235008Y61028D01*
X235576Y59657D01*
X236480Y58480D01*
X237657Y57576D01*
X239029Y57008D01*
X240500Y56814D01*
X241971Y57008D01*
X243343Y57576D01*
X244520Y58480D01*
X245424Y59657D01*
X245992Y61028D01*
X246186Y62500D01*
X245992Y63972D01*
X245424Y65343D01*
X244520Y66520D01*
X243343Y67424D01*
X241971Y67992D01*
X240500Y68186D01*
D02*
G37*
G36*
X209000Y39686D02*
X207528Y39492D01*
X206157Y38924D01*
X204980Y38020D01*
X204076Y36843D01*
X203508Y35472D01*
X203314Y34000D01*
X203508Y32528D01*
X204076Y31157D01*
X204980Y29980D01*
X206157Y29076D01*
X207528Y28508D01*
X209000Y28314D01*
X210472Y28508D01*
X211843Y29076D01*
X213020Y29980D01*
X213924Y31157D01*
X214492Y32528D01*
X214686Y34000D01*
X214492Y35472D01*
X213924Y36843D01*
X213020Y38020D01*
X211843Y38924D01*
X210472Y39492D01*
X209000Y39686D01*
D02*
G37*
G36*
X170000D02*
X168528Y39492D01*
X167157Y38924D01*
X165980Y38020D01*
X165076Y36843D01*
X164508Y35472D01*
X164314Y34000D01*
X164508Y32528D01*
X165076Y31157D01*
X165980Y29980D01*
X167157Y29076D01*
X168528Y28508D01*
X170000Y28314D01*
X171472Y28508D01*
X172843Y29076D01*
X174020Y29980D01*
X174924Y31157D01*
X175492Y32528D01*
X175686Y34000D01*
X175492Y35472D01*
X174924Y36843D01*
X174020Y38020D01*
X172843Y38924D01*
X171472Y39492D01*
X170000Y39686D01*
D02*
G37*
G36*
X131000D02*
X129528Y39492D01*
X128157Y38924D01*
X126980Y38020D01*
X126076Y36843D01*
X125508Y35472D01*
X125314Y34000D01*
X125508Y32528D01*
X126076Y31157D01*
X126980Y29980D01*
X128157Y29076D01*
X129528Y28508D01*
X131000Y28314D01*
X132472Y28508D01*
X133843Y29076D01*
X135020Y29980D01*
X135924Y31157D01*
X136492Y32528D01*
X136686Y34000D01*
X136492Y35472D01*
X135924Y36843D01*
X135020Y38020D01*
X133843Y38924D01*
X132472Y39492D01*
X131000Y39686D01*
D02*
G37*
G36*
X201543Y104777D02*
X194457D01*
X193793Y104645D01*
X193231Y104269D01*
X192855Y103707D01*
X192723Y103043D01*
Y95957D01*
X192855Y95293D01*
X193231Y94731D01*
X193793Y94355D01*
X194457Y94223D01*
X201543D01*
X202207Y94355D01*
X202769Y94731D01*
X203145Y95293D01*
X203277Y95957D01*
Y103043D01*
X203145Y103707D01*
X202769Y104269D01*
X202207Y104645D01*
X201543Y104777D01*
D02*
G37*
G36*
X203858Y300277D02*
X196772D01*
X196108Y300145D01*
X195546Y299769D01*
X195170Y299207D01*
X195038Y298543D01*
Y291457D01*
X195170Y290793D01*
X195546Y290231D01*
X196108Y289855D01*
X196772Y289723D01*
X203858D01*
X204522Y289855D01*
X205084Y290231D01*
X205460Y290793D01*
X205592Y291457D01*
Y298543D01*
X205460Y299207D01*
X205084Y299769D01*
X204522Y300145D01*
X203858Y300277D01*
D02*
G37*
G36*
X245500Y327686D02*
X244028Y327492D01*
X242657Y326924D01*
X241480Y326020D01*
X240576Y324843D01*
X240008Y323471D01*
X239814Y322000D01*
X240008Y320529D01*
X240576Y319157D01*
X241480Y317980D01*
X242346Y317315D01*
Y316685D01*
X241480Y316020D01*
X240576Y314843D01*
X240008Y313472D01*
X239814Y312000D01*
X240008Y310528D01*
X240576Y309157D01*
X241480Y307980D01*
X242657Y307076D01*
X244028Y306508D01*
X245500Y306314D01*
X246972Y306508D01*
X248343Y307076D01*
X249520Y307980D01*
X250424Y309157D01*
X250992Y310528D01*
X251186Y312000D01*
X250992Y313472D01*
X250424Y314843D01*
X249520Y316020D01*
X248654Y316685D01*
Y317315D01*
X249520Y317980D01*
X250424Y319157D01*
X250992Y320529D01*
X251186Y322000D01*
X250992Y323471D01*
X250424Y324843D01*
X249520Y326020D01*
X248343Y326924D01*
X246972Y327492D01*
X245500Y327686D01*
D02*
G37*
G36*
X256526Y362363D02*
X255285D01*
X255118Y362330D01*
X254947D01*
X253730Y362088D01*
X253572Y362022D01*
X253405Y361989D01*
X252258Y361514D01*
X252116Y361420D01*
X251959Y361354D01*
X250927Y360665D01*
X250806Y360544D01*
X250664Y360449D01*
X249787Y359572D01*
X249692Y359430D01*
X249571Y359309D01*
X248882Y358278D01*
X248817Y358120D01*
X248722Y357978D01*
X248247Y356831D01*
X248214Y356664D01*
X248148Y356506D01*
X247906Y355289D01*
Y355118D01*
X247873Y354951D01*
Y353710D01*
X247906Y353543D01*
Y353372D01*
X248148Y352155D01*
X248214Y351997D01*
X248247Y351830D01*
X248722Y350684D01*
X248817Y350542D01*
X248882Y350384D01*
X249571Y349352D01*
X249692Y349232D01*
X249787Y349090D01*
X250664Y348212D01*
X250806Y348117D01*
X250927Y347997D01*
X251959Y347307D01*
X252116Y347242D01*
X252258Y347147D01*
X253405Y346672D01*
X253572Y346639D01*
X253730Y346574D01*
X254947Y346332D01*
X255118D01*
X255285Y346298D01*
X256526D01*
X256693Y346332D01*
X256864D01*
X258081Y346574D01*
X258239Y346639D01*
X258406Y346672D01*
X259553Y347147D01*
X259695Y347242D01*
X259852Y347307D01*
X260884Y347997D01*
X261005Y348117D01*
X261147Y348212D01*
X262024Y349090D01*
X262119Y349232D01*
X262240Y349352D01*
X262929Y350384D01*
X262994Y350542D01*
X263089Y350684D01*
X263564Y351830D01*
X263597Y351997D01*
X263663Y352155D01*
X263905Y353372D01*
Y353543D01*
X263938Y353710D01*
Y354951D01*
X263905Y355119D01*
Y355289D01*
X263663Y356506D01*
X263597Y356664D01*
X263564Y356831D01*
X263089Y357978D01*
X262994Y358120D01*
X262929Y358278D01*
X262240Y359309D01*
X262119Y359430D01*
X262024Y359572D01*
X261147Y360449D01*
X261005Y360544D01*
X260884Y360665D01*
X259852Y361354D01*
X259695Y361420D01*
X259553Y361514D01*
X258406Y361989D01*
X258239Y362022D01*
X258081Y362088D01*
X256864Y362330D01*
X256693D01*
X256526Y362363D01*
D02*
G37*
G36*
X240500Y113186D02*
X239029Y112992D01*
X237657Y112424D01*
X236480Y111520D01*
X235576Y110343D01*
X235008Y108972D01*
X234814Y107500D01*
X235008Y106028D01*
X235576Y104657D01*
X236480Y103480D01*
X237657Y102576D01*
X239029Y102008D01*
X240500Y101814D01*
X241971Y102008D01*
X243343Y102576D01*
X244520Y103480D01*
X245424Y104657D01*
X245992Y106028D01*
X246186Y107500D01*
X245992Y108972D01*
X245424Y110343D01*
X244520Y111520D01*
X243343Y112424D01*
X241971Y112992D01*
X240500Y113186D01*
D02*
G37*
G36*
X148827Y168642D02*
X127173D01*
X125682Y168496D01*
X124249Y168061D01*
X122927Y167354D01*
X121769Y166404D01*
X120819Y165246D01*
X120113Y163925D01*
X119678Y162491D01*
X119531Y161000D01*
X119678Y159509D01*
X120113Y158075D01*
X120819Y156754D01*
X121769Y155596D01*
X122927Y154646D01*
X124249Y153939D01*
X125682Y153505D01*
X127173Y153358D01*
X148827D01*
X150318Y153505D01*
X151751Y153939D01*
X153073Y154646D01*
X154231Y155596D01*
X155181Y156754D01*
X155887Y158075D01*
X156322Y159509D01*
X156469Y161000D01*
X156322Y162491D01*
X155887Y163925D01*
X155181Y165246D01*
X154231Y166404D01*
X153073Y167354D01*
X151751Y168061D01*
X150318Y168496D01*
X148827Y168642D01*
D02*
G37*
G36*
Y195414D02*
X127173D01*
X125682Y195267D01*
X124249Y194832D01*
X122927Y194126D01*
X121769Y193176D01*
X120819Y192017D01*
X120113Y190696D01*
X119678Y189263D01*
X119531Y187772D01*
X119678Y186281D01*
X120113Y184847D01*
X120819Y183526D01*
X121769Y182368D01*
X122927Y181417D01*
X124249Y180711D01*
X125682Y180276D01*
X127173Y180129D01*
X148827D01*
X150318Y180276D01*
X151751Y180711D01*
X153073Y181417D01*
X154231Y182368D01*
X155181Y183526D01*
X155887Y184847D01*
X156322Y186281D01*
X156469Y187772D01*
X156322Y189263D01*
X155887Y190696D01*
X155181Y192017D01*
X154231Y193176D01*
X153073Y194126D01*
X151751Y194832D01*
X150318Y195267D01*
X148827Y195414D01*
D02*
G37*
%LPD*%
D26*
X138000Y134228D02*
D03*
Y161000D02*
D03*
Y187772D02*
D03*
D27*
X39102Y307488D02*
D03*
Y331504D02*
D03*
X67449D02*
D03*
Y307488D02*
D03*
X39102Y166488D02*
D03*
Y190504D02*
D03*
X67449D02*
D03*
Y166488D02*
D03*
X39102Y108756D02*
D03*
Y132772D02*
D03*
X67449D02*
D03*
Y108756D02*
D03*
X39102Y52496D02*
D03*
Y76512D02*
D03*
X67449D02*
D03*
Y52496D02*
D03*
X39102Y229488D02*
D03*
Y253504D02*
D03*
X67449D02*
D03*
Y229488D02*
D03*
D28*
X44614Y309260D02*
D03*
X48551Y313000D02*
D03*
X29653D02*
D03*
X33591Y309260D02*
D03*
X44614Y329732D02*
D03*
X48551Y325992D02*
D03*
X29653D02*
D03*
X33591Y329732D02*
D03*
X61937D02*
D03*
X58000Y325992D02*
D03*
X76898D02*
D03*
X72961Y329732D02*
D03*
X61937Y309260D02*
D03*
X58000Y313000D02*
D03*
X76898D02*
D03*
X72961Y309260D02*
D03*
X44614Y168260D02*
D03*
X48551Y172000D02*
D03*
X29653D02*
D03*
X33591Y168260D02*
D03*
X44614Y188732D02*
D03*
X48551Y184992D02*
D03*
X29653D02*
D03*
X33591Y188732D02*
D03*
X61937D02*
D03*
X58000Y184992D02*
D03*
X76898D02*
D03*
X72961Y188732D02*
D03*
X61937Y168260D02*
D03*
X58000Y172000D02*
D03*
X76898D02*
D03*
X72961Y168260D02*
D03*
X44614Y110528D02*
D03*
X48551Y114268D02*
D03*
X29653D02*
D03*
X33591Y110528D02*
D03*
X44614Y131000D02*
D03*
X48551Y127260D02*
D03*
X29653D02*
D03*
X33591Y131000D02*
D03*
X61937D02*
D03*
X58000Y127260D02*
D03*
X76898D02*
D03*
X72961Y131000D02*
D03*
X61937Y110528D02*
D03*
X58000Y114268D02*
D03*
X76898D02*
D03*
X72961Y110528D02*
D03*
X44614Y54268D02*
D03*
X48551Y58008D02*
D03*
X29653D02*
D03*
X33591Y54268D02*
D03*
X44614Y74740D02*
D03*
X48551Y71000D02*
D03*
X29653D02*
D03*
X33591Y74740D02*
D03*
X61937D02*
D03*
X58000Y71000D02*
D03*
X76898D02*
D03*
X72961Y74740D02*
D03*
X61937Y54268D02*
D03*
X58000Y58008D02*
D03*
X76898D02*
D03*
X72961Y54268D02*
D03*
X44614Y231260D02*
D03*
X48551Y235000D02*
D03*
X29653D02*
D03*
X33591Y231260D02*
D03*
X44614Y251732D02*
D03*
X48551Y247992D02*
D03*
X29653D02*
D03*
X33591Y251732D02*
D03*
X61937D02*
D03*
X58000Y247992D02*
D03*
X76898D02*
D03*
X72961Y251732D02*
D03*
X61937Y231260D02*
D03*
X58000Y235000D02*
D03*
X76898D02*
D03*
X72961Y231260D02*
D03*
D29*
X49929Y319496D02*
D03*
X28276D02*
D03*
X56622D02*
D03*
X78276D02*
D03*
X49929Y178496D02*
D03*
X28276D02*
D03*
X56622D02*
D03*
X78276D02*
D03*
X49929Y120764D02*
D03*
X28276D02*
D03*
X56622D02*
D03*
X78276D02*
D03*
X49929Y64504D02*
D03*
X28276D02*
D03*
X56622D02*
D03*
X78276D02*
D03*
X49929Y241496D02*
D03*
X28276D02*
D03*
X56622D02*
D03*
X78276D02*
D03*
D30*
X67449Y319496D02*
D03*
X39102D02*
D03*
X67449Y178496D02*
D03*
X39102D02*
D03*
X67449Y120764D02*
D03*
X39102D02*
D03*
X67449Y64504D02*
D03*
X39102D02*
D03*
X67449Y241496D02*
D03*
X39102D02*
D03*
D31*
X198000Y99500D02*
D03*
D32*
Y119185D02*
D03*
X220000Y295000D02*
D03*
D33*
X200315D02*
D03*
D34*
X240500Y62500D02*
D03*
Y72500D02*
D03*
Y107500D02*
D03*
Y117500D02*
D03*
X209000Y34000D02*
D03*
X219000D02*
D03*
X170000D02*
D03*
X180000D02*
D03*
X131000D02*
D03*
X141000D02*
D03*
X245500Y322000D02*
D03*
Y312000D02*
D03*
D35*
X195000Y233000D02*
D03*
Y236000D02*
D03*
X192400D02*
D03*
Y233000D02*
D03*
X189500Y236000D02*
D03*
Y233000D02*
D03*
X198500Y224000D02*
D03*
Y220956D02*
D03*
X198400Y217718D02*
D03*
X198500Y214793D02*
D03*
X194937D02*
D03*
Y218000D02*
D03*
Y221000D02*
D03*
Y224000D02*
D03*
X245500Y227500D02*
D03*
Y230500D02*
D03*
Y234000D02*
D03*
Y237500D02*
D03*
X241500D02*
D03*
Y234000D02*
D03*
Y230500D02*
D03*
Y227500D02*
D03*
X249500Y237500D02*
D03*
Y234000D02*
D03*
Y230500D02*
D03*
Y227500D02*
D03*
X253500Y237500D02*
D03*
Y234000D02*
D03*
Y230500D02*
D03*
Y227500D02*
D03*
X237500Y237500D02*
D03*
Y234000D02*
D03*
Y230500D02*
D03*
Y227500D02*
D03*
Y224500D02*
D03*
X241500D02*
D03*
X245500D02*
D03*
X249500D02*
D03*
X253500D02*
D03*
Y221500D02*
D03*
X245500D02*
D03*
X237500D02*
D03*
X241500D02*
D03*
X249500D02*
D03*
X247873Y71000D02*
D03*
Y75000D02*
D03*
Y79500D02*
D03*
X243500D02*
D03*
X238500D02*
D03*
Y83000D02*
D03*
X243500Y83500D02*
D03*
X248000D02*
D03*
X249500Y116500D02*
D03*
X249571Y121000D02*
D03*
Y125500D02*
D03*
X244799D02*
D03*
X240500D02*
D03*
X236500D02*
D03*
Y129500D02*
D03*
X240500D02*
D03*
X244799D02*
D03*
X249571D02*
D03*
X253572Y125500D02*
D03*
Y129500D02*
D03*
Y121000D02*
D03*
Y116500D02*
D03*
X251959Y83500D02*
D03*
Y79500D02*
D03*
Y75000D02*
D03*
Y71000D02*
D03*
X219000Y41367D02*
D03*
X222500D02*
D03*
X226500D02*
D03*
Y45000D02*
D03*
X222500D02*
D03*
X219000D02*
D03*
X226500Y38000D02*
D03*
Y34500D02*
D03*
Y30000D02*
D03*
X187500Y35201D02*
D03*
Y32000D02*
D03*
Y28529D02*
D03*
X184000Y28500D02*
D03*
Y25505D02*
D03*
X181000D02*
D03*
X187500D02*
D03*
X177500D02*
D03*
X149000Y34000D02*
D03*
Y30500D02*
D03*
Y27343D02*
D03*
X145000D02*
D03*
X140500Y27377D02*
D03*
Y23500D02*
D03*
X145000D02*
D03*
X149000Y23632D02*
D03*
X153500Y27377D02*
D03*
Y30500D02*
D03*
Y34000D02*
D03*
Y23632D02*
D03*
X197936Y125500D02*
D03*
X194000D02*
D03*
X190000D02*
D03*
X186498D02*
D03*
X183000D02*
D03*
Y122500D02*
D03*
X186498D02*
D03*
X190000D02*
D03*
Y119500D02*
D03*
X186498D02*
D03*
X183000D02*
D03*
X173385Y105000D02*
D03*
X173308Y108500D02*
D03*
X169663D02*
D03*
Y111162D02*
D03*
X173470D02*
D03*
X183035Y58000D02*
D03*
X179099D02*
D03*
X179000Y54715D02*
D03*
X183000Y54500D02*
D03*
X237000Y292000D02*
D03*
Y297024D02*
D03*
X242000D02*
D03*
Y292000D02*
D03*
Y287500D02*
D03*
X237000D02*
D03*
Y283000D02*
D03*
X242000D02*
D03*
X126233Y258500D02*
D03*
X129500D02*
D03*
Y255500D02*
D03*
X126233D02*
D03*
X168000Y296663D02*
D03*
X164500Y296500D02*
D03*
X160794Y296000D02*
D03*
Y293500D02*
D03*
X150112Y296000D02*
D03*
Y293500D02*
D03*
X147000Y296000D02*
D03*
Y293500D02*
D03*
X144000Y296000D02*
D03*
Y293500D02*
D03*
X253500Y245000D02*
D03*
Y249000D02*
D03*
Y252500D02*
D03*
X249500D02*
D03*
Y249000D02*
D03*
Y245000D02*
D03*
Y241500D02*
D03*
X245500D02*
D03*
Y245000D02*
D03*
Y249000D02*
D03*
Y252500D02*
D03*
X241500Y241500D02*
D03*
Y245000D02*
D03*
Y249000D02*
D03*
Y252500D02*
D03*
X237500Y241500D02*
D03*
Y245000D02*
D03*
Y249000D02*
D03*
Y252500D02*
D03*
X253500Y241500D02*
D03*
X186500Y233058D02*
D03*
Y236000D02*
D03*
X182000Y236500D02*
D03*
Y233500D02*
D03*
Y239500D02*
D03*
Y242500D02*
D03*
Y245500D02*
D03*
Y248500D02*
D03*
X178000D02*
D03*
Y245500D02*
D03*
Y242500D02*
D03*
Y239500D02*
D03*
Y236500D02*
D03*
Y233500D02*
D03*
M02*
