G04 Layer_Color=16711935*
%FSLAX25Y25*%
%MOIN*%
G70*
G01*
G75*
%ADD37C,0.01000*%
D37*
X3937Y374016D02*
G03*
X0Y370079I0J-3937D01*
G01*
Y3937D02*
G03*
X3937Y0I3937J0D01*
G01*
X271654D02*
G03*
X275590Y3937I0J3937D01*
G01*
Y370079D02*
G03*
X271654Y374016I-3937J0D01*
G01*
X25984Y354331D02*
G03*
X25984Y354331I-6299J0D01*
G01*
X262205Y19685D02*
G03*
X262205Y19685I-6299J0D01*
G01*
Y354331D02*
G03*
X262205Y354331I-6299J0D01*
G01*
X25984Y19685D02*
G03*
X25984Y19685I-6299J0D01*
G01*
X103000Y48917D02*
G03*
X97000Y48917I-3000J0D01*
G01*
Y23083D02*
G03*
X103000Y23083I3000J331D01*
G01*
X97000Y64669D02*
G03*
X103000Y64669I3000J331D01*
G01*
Y90504D02*
G03*
X97000Y90504I-3000J0D01*
G01*
Y108196D02*
G03*
X103000Y108196I3000J331D01*
G01*
Y134031D02*
G03*
X97000Y134031I-3000J0D01*
G01*
Y240669D02*
G03*
X103000Y240669I3000J331D01*
G01*
Y266504D02*
G03*
X97000Y266504I-3000J0D01*
G01*
Y285669D02*
G03*
X103000Y285669I3000J331D01*
G01*
Y311504D02*
G03*
X97000Y311504I-3000J0D01*
G01*
Y329669D02*
G03*
X103000Y329669I3000J331D01*
G01*
Y355504D02*
G03*
X97000Y355504I-3000J0D01*
G01*
X0Y3937D02*
Y370079D01*
X3937Y374016D02*
X271654D01*
X275590Y3937D02*
Y370079D01*
X3937Y0D02*
X271654D01*
X97000Y23083D02*
Y48917D01*
X103000Y23083D02*
Y48917D01*
Y64669D02*
Y90504D01*
X97000Y64669D02*
Y90504D01*
X103000Y108196D02*
Y134031D01*
X97000Y108196D02*
Y134031D01*
X103000Y240669D02*
Y266504D01*
X97000Y240669D02*
Y266504D01*
X103000Y285669D02*
Y311504D01*
X97000Y285669D02*
Y311504D01*
X103000Y329669D02*
Y355504D01*
X97000Y329669D02*
Y355504D01*
M02*
