G04 Layer_Physical_Order=1*
G04 Layer_Color=255*
%FSLAX25Y25*%
%MOIN*%
G70*
G01*
G75*
%ADD10R,0.03937X0.11024*%
%ADD11R,0.02362X0.06693*%
%ADD12R,0.14961X0.04724*%
%ADD13R,0.09842X0.39370*%
%ADD14R,0.28346X0.24410*%
%ADD15R,0.21260X0.13780*%
%ADD16R,0.07874X0.07874*%
%ADD17R,0.03150X0.03150*%
%ADD18R,0.07874X0.07874*%
%ADD19R,0.03150X0.03150*%
%ADD20R,0.04331X0.04724*%
%ADD21R,0.03661X0.03858*%
%ADD22C,0.12000*%
%ADD23C,0.01500*%
%ADD24C,0.05000*%
%ADD25C,0.00800*%
%ADD26O,0.33465X0.11811*%
%ADD27C,0.05512*%
%ADD28C,0.04724*%
%ADD29C,0.03543*%
%ADD30O,0.25590X0.31496*%
%ADD31R,0.07087X0.07087*%
%ADD32C,0.07087*%
%ADD33R,0.07087X0.07087*%
%ADD34C,0.07874*%
%ADD35C,0.02000*%
G36*
X197545Y227807D02*
X197530Y227950D01*
X197484Y228077D01*
X197409Y228190D01*
X197303Y228287D01*
X197167Y228370D01*
X197000Y228437D01*
X196804Y228490D01*
X196577Y228527D01*
X196320Y228550D01*
X196033Y228557D01*
Y230057D01*
X196320Y230065D01*
X196577Y230087D01*
X196804Y230125D01*
X197000Y230177D01*
X197167Y230245D01*
X197303Y230327D01*
X197409Y230425D01*
X197484Y230537D01*
X197530Y230665D01*
X197545Y230807D01*
Y227807D01*
D02*
G37*
G36*
X271654Y374016D02*
X272041D01*
X272802Y373864D01*
X273518Y373568D01*
X274163Y373137D01*
X274712Y372588D01*
X275143Y371944D01*
X275439Y371227D01*
X275590Y370466D01*
Y370079D01*
Y3937D01*
Y3549D01*
X275439Y2789D01*
X275143Y2072D01*
X274712Y1427D01*
X274163Y879D01*
X273518Y448D01*
X272802Y151D01*
X272041Y0D01*
X109000D01*
Y149896D01*
X109462Y150087D01*
X110774Y148774D01*
X111337Y148399D01*
X112000Y148267D01*
X157000D01*
X157663Y148399D01*
X158226Y148774D01*
X162226Y152774D01*
X162601Y153337D01*
X162733Y154000D01*
Y168000D01*
X162601Y168663D01*
X162226Y169226D01*
X157685Y173767D01*
X157892Y174267D01*
X169000D01*
X169663Y174399D01*
X170226Y174774D01*
X171226Y175774D01*
X171601Y176337D01*
X171733Y177000D01*
X171733Y263770D01*
X183230Y275267D01*
X197267Y275267D01*
Y253124D01*
X196856Y253042D01*
X196294Y252667D01*
X195918Y252104D01*
X195786Y251441D01*
Y247362D01*
X195111D01*
X195038Y247726D01*
X194663Y248289D01*
X194100Y248664D01*
X193437Y248796D01*
X185563D01*
X184900Y248664D01*
X184337Y248289D01*
X183962Y247726D01*
X183830Y247063D01*
Y239189D01*
X183962Y238526D01*
X184337Y237963D01*
X184900Y237588D01*
X185563Y237456D01*
X193437D01*
X194100Y237588D01*
X194663Y237963D01*
X195038Y238526D01*
X195111Y238890D01*
X196233D01*
X196294Y238798D01*
X196856Y238422D01*
X197520Y238290D01*
X211758D01*
X212767Y237282D01*
Y233330D01*
X212480Y233096D01*
X197520D01*
X196856Y232964D01*
X196294Y232588D01*
X195918Y232026D01*
X195875Y231805D01*
X193307D01*
X192351Y231615D01*
X191541Y231073D01*
X182234Y221766D01*
X181692Y220956D01*
X181502Y220000D01*
Y168000D01*
X181692Y167044D01*
X182234Y166234D01*
X190903Y157564D01*
X191713Y157023D01*
X192669Y156833D01*
X199637D01*
Y152441D01*
X199769Y151778D01*
X200145Y151215D01*
X200707Y150840D01*
X201370Y150708D01*
X204263D01*
Y124726D01*
Y112205D01*
X199295Y107237D01*
X198000D01*
X196491Y107089D01*
X195039Y106648D01*
X193701Y105933D01*
X192529Y104971D01*
X191567Y103799D01*
X190852Y102461D01*
X190711Y101998D01*
X175000D01*
X174044Y101808D01*
X173234Y101266D01*
X172816Y100848D01*
X172002D01*
X171800Y101151D01*
X171238Y101526D01*
X170575Y101658D01*
X167425D01*
X166762Y101526D01*
X166200Y101151D01*
X165824Y100589D01*
X165692Y99925D01*
Y96776D01*
X165824Y96112D01*
X166200Y95550D01*
X166762Y95174D01*
X167425Y95042D01*
X170575D01*
X171238Y95174D01*
X171800Y95550D01*
X172002Y95852D01*
X173850D01*
X174178Y95917D01*
X174424Y95457D01*
X162202Y83235D01*
X161661Y82424D01*
X161470Y81468D01*
Y66028D01*
X160912Y65655D01*
X160536Y65092D01*
X160405Y64429D01*
Y60571D01*
X160536Y59908D01*
X160912Y59345D01*
X161475Y58969D01*
X162138Y58838D01*
X165799D01*
X166463Y58969D01*
X167000Y59329D01*
X167537Y58969D01*
X168201Y58838D01*
X171862D01*
X172526Y58969D01*
X173088Y59345D01*
X173464Y59908D01*
X173595Y60571D01*
Y64429D01*
X173464Y65092D01*
X173088Y65655D01*
X173086Y65656D01*
X173037Y66154D01*
X173385Y66502D01*
X185391D01*
X185658Y66002D01*
X185474Y65725D01*
X185342Y65062D01*
Y60338D01*
X185474Y59675D01*
X185849Y59112D01*
X186411Y58736D01*
X187075Y58605D01*
X191405D01*
X192069Y58736D01*
X192631Y59112D01*
X193007Y59675D01*
X193139Y60338D01*
Y65062D01*
X193007Y65725D01*
X192631Y66288D01*
X192069Y66664D01*
X191738Y66729D01*
Y67000D01*
X191548Y67956D01*
X191007Y68766D01*
X189006Y70766D01*
X188196Y71308D01*
X187240Y71498D01*
X172350D01*
X171394Y71308D01*
X170584Y70766D01*
X168265Y68448D01*
X167724Y67637D01*
X167534Y66681D01*
Y66028D01*
X167000Y65671D01*
X166466Y66028D01*
Y80434D01*
X183035Y97002D01*
X190711D01*
X190852Y96539D01*
X191567Y95201D01*
X192529Y94029D01*
X193701Y93067D01*
X195039Y92352D01*
X196491Y91911D01*
X198000Y91763D01*
X202500D01*
X203763Y91887D01*
X204263Y91523D01*
Y78500D01*
Y66205D01*
X202892Y64834D01*
X190432Y52374D01*
X136594D01*
X135084Y52226D01*
X133633Y51785D01*
X132295Y51070D01*
X131123Y50108D01*
X124892Y43877D01*
X123930Y42705D01*
X123215Y41367D01*
X122774Y39915D01*
X122626Y38406D01*
Y34000D01*
X122774Y32491D01*
X123215Y31039D01*
X123930Y29701D01*
X124892Y28529D01*
X126064Y27567D01*
X127402Y26852D01*
X128853Y26411D01*
X130363Y26263D01*
X131872Y26411D01*
X133324Y26852D01*
X134662Y27567D01*
X135834Y28529D01*
X136796Y29701D01*
X137511Y31039D01*
X137952Y32491D01*
X138100Y34000D01*
Y35201D01*
X139799Y36900D01*
X161626D01*
Y34000D01*
X161774Y32491D01*
X162215Y31039D01*
X162930Y29701D01*
X163892Y28529D01*
X165064Y27567D01*
X166402Y26852D01*
X167853Y26411D01*
X169363Y26263D01*
X170872Y26411D01*
X172324Y26852D01*
X173662Y27567D01*
X174834Y28529D01*
X175796Y29701D01*
X176511Y31039D01*
X176952Y32491D01*
X177100Y34000D01*
Y35201D01*
X178799Y36900D01*
X193637D01*
X195147Y37048D01*
X196598Y37489D01*
X197936Y38204D01*
X199108Y39166D01*
X200164Y40222D01*
X200626Y40030D01*
Y34000D01*
X200774Y32491D01*
X201215Y31039D01*
X201930Y29701D01*
X202892Y28529D01*
X204064Y27567D01*
X205402Y26852D01*
X206854Y26411D01*
X208363Y26263D01*
X209872Y26411D01*
X211324Y26852D01*
X212662Y27567D01*
X213834Y28529D01*
X214796Y29701D01*
X215511Y31039D01*
X215952Y32491D01*
X216100Y34000D01*
Y56158D01*
X217471Y57529D01*
X218433Y58701D01*
X219031Y59820D01*
X219604Y59954D01*
X223166Y56392D01*
X224338Y55430D01*
X225676Y54715D01*
X227128Y54274D01*
X228637Y54126D01*
X240500D01*
X242009Y54274D01*
X243461Y54715D01*
X244799Y55430D01*
X245971Y56392D01*
X246933Y57564D01*
X247648Y58902D01*
X248089Y60353D01*
X248237Y61863D01*
X248089Y63372D01*
X247648Y64824D01*
X246933Y66162D01*
X245971Y67334D01*
X244799Y68296D01*
X243461Y69011D01*
X242009Y69452D01*
X240500Y69600D01*
X231842D01*
X219737Y81705D01*
Y105393D01*
X220199Y105585D01*
X224392Y101392D01*
X225564Y100430D01*
X226902Y99715D01*
X228354Y99274D01*
X229863Y99126D01*
X240500D01*
X242009Y99274D01*
X243461Y99715D01*
X244799Y100430D01*
X245971Y101392D01*
X246933Y102564D01*
X247648Y103902D01*
X248089Y105353D01*
X248237Y106863D01*
X248089Y108372D01*
X247648Y109824D01*
X246933Y111162D01*
X245971Y112334D01*
X244799Y113296D01*
X243461Y114011D01*
X242009Y114452D01*
X240500Y114600D01*
X233068D01*
X219737Y127931D01*
Y150708D01*
X222630D01*
X223293Y150840D01*
X223855Y151215D01*
X224231Y151778D01*
X224363Y152441D01*
Y166220D01*
X224231Y166884D01*
X223855Y167446D01*
X223293Y167822D01*
X222630Y167954D01*
X201370D01*
X200707Y167822D01*
X200145Y167446D01*
X199769Y166884D01*
X199637Y166220D01*
Y161829D01*
X193704D01*
X186498Y169035D01*
Y218965D01*
X194342Y226809D01*
X195786D01*
Y226638D01*
X195918Y225974D01*
X196294Y225412D01*
X196856Y225036D01*
X197520Y224904D01*
X212480D01*
X212767Y224670D01*
Y217718D01*
X211782Y216733D01*
X204500D01*
X203837Y216601D01*
X203274Y216226D01*
X196774Y209726D01*
X196399Y209163D01*
X196267Y208500D01*
Y194000D01*
X196399Y193337D01*
X196774Y192774D01*
X199274Y190274D01*
X199837Y189899D01*
X200500Y189767D01*
X223500D01*
X224163Y189899D01*
X224726Y190274D01*
X227726Y193274D01*
X228101Y193837D01*
X228233Y194500D01*
Y207000D01*
Y237500D01*
X228209Y237621D01*
X228216Y237745D01*
X228144Y237950D01*
X228101Y238163D01*
X228032Y238266D01*
X227992Y238383D01*
X227846Y238545D01*
X227726Y238726D01*
X227623Y238794D01*
X227540Y238887D01*
X217540Y246387D01*
X217490Y246449D01*
X217342Y246933D01*
X217383Y247010D01*
X217601Y247337D01*
X217733Y248000D01*
Y293569D01*
X217601Y294232D01*
X217555Y294345D01*
X217468Y295000D01*
X217584Y295882D01*
X217578Y295980D01*
X217607Y296126D01*
X217607Y296127D01*
X217607Y296127D01*
X217549Y296416D01*
X217540Y296556D01*
X217509Y296620D01*
X217475Y296790D01*
X217475Y296790D01*
X217475Y296790D01*
X217284Y297075D01*
X217241Y297163D01*
X217204Y297196D01*
X217099Y297352D01*
X212226Y302226D01*
X211663Y302601D01*
X211000Y302733D01*
X200244D01*
X199581Y302601D01*
X199348Y302446D01*
X199256Y302508D01*
X198300Y302698D01*
X175652D01*
X175450Y303000D01*
X174888Y303376D01*
X174224Y303508D01*
X171565D01*
X171142Y304142D01*
X170292Y304991D01*
X169482Y305533D01*
X168526Y305723D01*
X164175D01*
X163219Y305533D01*
X162409Y304991D01*
X160116Y302698D01*
X158652D01*
X158450Y303000D01*
X157888Y303376D01*
X157224Y303508D01*
X154075D01*
X153411Y303376D01*
X152849Y303000D01*
X152473Y302438D01*
X152341Y301775D01*
Y298625D01*
X152473Y297962D01*
X152849Y297400D01*
X153411Y297024D01*
X154075Y296892D01*
X157224D01*
X157888Y297024D01*
X158450Y297400D01*
X158652Y297702D01*
X161150D01*
X162106Y297892D01*
X162917Y298434D01*
X165210Y300727D01*
X166903D01*
X167067Y299900D01*
X167609Y299090D01*
X168265Y298434D01*
X169076Y297892D01*
X169588Y297790D01*
X169849Y297400D01*
X170412Y297024D01*
X171075Y296892D01*
X174224D01*
X174888Y297024D01*
X175450Y297400D01*
X175652Y297702D01*
X184598D01*
X184789Y297240D01*
X180282Y292733D01*
X167000D01*
X166337Y292601D01*
X165774Y292226D01*
X146774Y273226D01*
X146399Y272663D01*
X146267Y272000D01*
Y206387D01*
X142282Y202403D01*
X129669D01*
X129006Y202271D01*
X128444Y201895D01*
X119774Y193226D01*
X119399Y192663D01*
X119267Y192000D01*
X119267Y179000D01*
X119399Y178337D01*
X119399Y178337D01*
X119774Y177774D01*
X119774Y177774D01*
X120278Y177270D01*
X120278Y177270D01*
X122315Y175233D01*
X122108Y174733D01*
X120718D01*
X117733Y177718D01*
Y193282D01*
X125226Y200774D01*
X125601Y201337D01*
X125733Y202000D01*
Y208108D01*
X126233Y208315D01*
X127774Y206774D01*
X128337Y206399D01*
X129000Y206267D01*
X136000D01*
X136663Y206399D01*
X137226Y206774D01*
X141226Y210774D01*
X141601Y211337D01*
X141733Y212000D01*
Y212444D01*
X141796Y212486D01*
X144014Y214704D01*
X144478Y215399D01*
X144641Y216218D01*
Y229500D01*
X144478Y230319D01*
X144014Y231014D01*
X135532Y239496D01*
X134838Y239960D01*
X134018Y240123D01*
X116905D01*
X112141Y244887D01*
Y276113D01*
X115887Y279859D01*
X117234D01*
X117323Y279408D01*
X117699Y278845D01*
X118262Y278469D01*
X118925Y278338D01*
X122586D01*
X123249Y278469D01*
X123787Y278829D01*
X124320Y278472D01*
Y277598D01*
X118493Y271771D01*
X117952Y270960D01*
X117762Y270004D01*
Y267029D01*
X117431Y266964D01*
X116869Y266588D01*
X116493Y266025D01*
X116361Y265362D01*
Y260638D01*
X116493Y259975D01*
X116869Y259412D01*
X117431Y259036D01*
X118095Y258905D01*
X122425D01*
X123089Y259036D01*
X123651Y259412D01*
X124027Y259975D01*
X124159Y260638D01*
Y265362D01*
X124027Y266025D01*
X123651Y266588D01*
X123089Y266964D01*
X122758Y267029D01*
Y268970D01*
X128585Y274797D01*
X129126Y275607D01*
X129316Y276563D01*
Y278472D01*
X129875Y278845D01*
X130251Y279408D01*
X130383Y280071D01*
Y283929D01*
X130251Y284592D01*
X129875Y285155D01*
X129313Y285530D01*
X128649Y285662D01*
X124988D01*
X124325Y285530D01*
X123787Y285171D01*
X123249Y285530D01*
X122586Y285662D01*
X118925D01*
X118262Y285530D01*
X117699Y285155D01*
X117323Y284592D01*
X117234Y284141D01*
X115000D01*
X114181Y283978D01*
X113486Y283514D01*
X109462Y279490D01*
X109000Y279681D01*
Y374016D01*
X271654Y374016D01*
D02*
G37*
G36*
X136794Y214724D02*
X136819Y214656D01*
X136859Y214596D01*
X136916Y214544D01*
X136989Y214500D01*
X137078Y214464D01*
X137184Y214436D01*
X137306Y214416D01*
X137444Y214404D01*
X137598Y214400D01*
Y213600D01*
X137444Y213596D01*
X137306Y213584D01*
X137184Y213564D01*
X137078Y213536D01*
X136989Y213500D01*
X136916Y213456D01*
X136859Y213404D01*
X136819Y213344D01*
X136794Y213276D01*
X136786Y213200D01*
Y214800D01*
X136794Y214724D01*
D02*
G37*
G36*
X88000Y223000D02*
X57000Y223000D01*
Y345000D01*
X88000Y345000D01*
Y223000D01*
D02*
G37*
G36*
X121017Y266562D02*
X121040Y266305D01*
X121077Y266078D01*
X121130Y265881D01*
X121197Y265715D01*
X121280Y265579D01*
X121377Y265473D01*
X121490Y265398D01*
X121617Y265352D01*
X121760Y265337D01*
X118760D01*
X118902Y265352D01*
X119030Y265398D01*
X119142Y265473D01*
X119240Y265579D01*
X119322Y265715D01*
X119390Y265881D01*
X119442Y266078D01*
X119480Y266305D01*
X119502Y266562D01*
X119510Y266849D01*
X121010D01*
X121017Y266562D01*
D02*
G37*
G36*
X215874Y296126D02*
X215866Y296108D01*
X215728Y295058D01*
X215720Y295000D01*
X215866Y293892D01*
X216000Y293569D01*
Y248000D01*
X215000Y247000D01*
X199000D01*
Y277000D01*
X182512Y277000D01*
X170000Y264488D01*
X170000Y177000D01*
X169000Y176000D01*
X124000D01*
X121504Y178496D01*
X121000Y179000D01*
X121000Y192000D01*
X129669Y200669D01*
X143000D01*
X148000Y205669D01*
Y272000D01*
X167000Y291000D01*
X181000D01*
X188722Y298722D01*
X197688D01*
X197889Y298521D01*
X198041Y298529D01*
X198192Y298561D01*
X198299Y298615D01*
X198363Y298690D01*
X198385Y298786D01*
X198363Y298904D01*
X198299Y299044D01*
X198192Y299205D01*
X198041Y299387D01*
X197848Y299591D01*
X199439Y300121D01*
X199754Y299817D01*
X200351Y299304D01*
X200633Y299095D01*
X200904Y298919D01*
X201163Y298775D01*
X201412Y298663D01*
X201649Y298582D01*
X201717Y298568D01*
X201681Y298751D01*
X201360Y299230D01*
X200053Y300538D01*
X200244Y301000D01*
X211000D01*
X215874Y296126D01*
D02*
G37*
G36*
X157214Y301557D02*
X157260Y301430D01*
X157335Y301318D01*
X157441Y301220D01*
X157577Y301137D01*
X157744Y301070D01*
X157940Y301017D01*
X158167Y300980D01*
X158424Y300957D01*
X158711Y300950D01*
Y299450D01*
X158424Y299443D01*
X158167Y299420D01*
X157940Y299382D01*
X157744Y299330D01*
X157577Y299262D01*
X157441Y299180D01*
X157335Y299082D01*
X157260Y298970D01*
X157214Y298843D01*
X157199Y298700D01*
Y301700D01*
X157214Y301557D01*
D02*
G37*
G36*
X128176Y280069D02*
X128049Y280024D01*
X127936Y279949D01*
X127839Y279844D01*
X127756Y279709D01*
X127689Y279544D01*
X127636Y279349D01*
X127599Y279124D01*
X127576Y278869D01*
X127568Y278584D01*
X126068D01*
X126061Y278869D01*
X126039Y279124D01*
X126001Y279349D01*
X125949Y279544D01*
X125881Y279709D01*
X125798Y279844D01*
X125701Y279949D01*
X125589Y280024D01*
X125461Y280069D01*
X125319Y280084D01*
X128319D01*
X128176Y280069D01*
D02*
G37*
G36*
X118950Y281200D02*
X118942Y281276D01*
X118917Y281344D01*
X118877Y281404D01*
X118820Y281456D01*
X118747Y281500D01*
X118658Y281536D01*
X118552Y281564D01*
X118430Y281584D01*
X118292Y281596D01*
X118138Y281600D01*
Y282400D01*
X118292Y282404D01*
X118430Y282416D01*
X118552Y282436D01*
X118658Y282464D01*
X118747Y282500D01*
X118820Y282544D01*
X118877Y282596D01*
X118917Y282656D01*
X118942Y282724D01*
X118950Y282800D01*
Y281200D01*
D02*
G37*
G36*
X50000Y218000D02*
X88000D01*
X103000Y233000D01*
X134000D01*
X140000Y227000D01*
Y215304D01*
X139818Y215122D01*
X132874D01*
X132445Y215036D01*
X132081Y214793D01*
X131838Y214429D01*
X131753Y214000D01*
X131838Y213571D01*
X132081Y213207D01*
X132445Y212964D01*
X132874Y212878D01*
X140000D01*
Y212000D01*
X136000Y208000D01*
X129000D01*
X127000Y210000D01*
Y223000D01*
X125000Y225000D01*
X111000D01*
X108000Y222000D01*
Y209000D01*
X99000Y200000D01*
X50000D01*
Y30000D01*
X13386D01*
X13000Y344646D01*
X13354Y345000D01*
X50000D01*
Y218000D01*
D02*
G37*
G36*
X170789Y65629D02*
X170811Y65372D01*
X170849Y65145D01*
X170902Y64948D01*
X170969Y64782D01*
X171052Y64646D01*
X171149Y64540D01*
X171262Y64465D01*
X171389Y64419D01*
X171531Y64404D01*
X168532D01*
X168674Y64419D01*
X168801Y64465D01*
X168914Y64540D01*
X169011Y64646D01*
X169094Y64782D01*
X169161Y64948D01*
X169214Y65145D01*
X169252Y65372D01*
X169274Y65629D01*
X169281Y65916D01*
X170782D01*
X170789Y65629D01*
D02*
G37*
G36*
X189998Y66262D02*
X190020Y66005D01*
X190058Y65778D01*
X190110Y65582D01*
X190178Y65415D01*
X190260Y65279D01*
X190358Y65173D01*
X190470Y65098D01*
X190598Y65052D01*
X190740Y65037D01*
X187740D01*
X187883Y65052D01*
X188010Y65098D01*
X188123Y65173D01*
X188220Y65279D01*
X188303Y65415D01*
X188370Y65582D01*
X188423Y65778D01*
X188460Y66005D01*
X188483Y66262D01*
X188490Y66549D01*
X189990D01*
X189998Y66262D01*
D02*
G37*
G36*
X88000Y48102D02*
X88102Y39000D01*
Y30000D01*
X57000D01*
Y195000D01*
X88000D01*
Y48102D01*
D02*
G37*
G36*
X164726Y65629D02*
X164749Y65372D01*
X164786Y65145D01*
X164839Y64948D01*
X164906Y64782D01*
X164989Y64646D01*
X165086Y64540D01*
X165199Y64465D01*
X165326Y64419D01*
X165469Y64404D01*
X162469D01*
X162611Y64419D01*
X162739Y64465D01*
X162851Y64540D01*
X162949Y64646D01*
X163031Y64782D01*
X163099Y64948D01*
X163151Y65145D01*
X163189Y65372D01*
X163211Y65629D01*
X163218Y65916D01*
X164718D01*
X164726Y65629D01*
D02*
G37*
G36*
X170565Y99708D02*
X170610Y99580D01*
X170686Y99468D01*
X170792Y99370D01*
X170928Y99288D01*
X171094Y99220D01*
X171291Y99168D01*
X171518Y99130D01*
X171774Y99108D01*
X172062Y99100D01*
Y97600D01*
X171774Y97593D01*
X171518Y97570D01*
X171291Y97533D01*
X171094Y97480D01*
X170928Y97413D01*
X170792Y97330D01*
X170686Y97233D01*
X170610Y97120D01*
X170565Y96993D01*
X170550Y96850D01*
Y99850D01*
X170565Y99708D01*
D02*
G37*
G36*
X201395Y157831D02*
X201380Y157973D01*
X201335Y158101D01*
X201259Y158213D01*
X201153Y158311D01*
X201017Y158393D01*
X200851Y158461D01*
X200654Y158513D01*
X200427Y158551D01*
X200170Y158573D01*
X199883Y158581D01*
Y160081D01*
X200170Y160088D01*
X200427Y160111D01*
X200654Y160148D01*
X200851Y160201D01*
X201017Y160268D01*
X201153Y160351D01*
X201259Y160448D01*
X201335Y160561D01*
X201380Y160688D01*
X201395Y160831D01*
Y157831D01*
D02*
G37*
G36*
X226500Y237500D02*
Y207000D01*
Y194500D01*
X223500Y191500D01*
X200500D01*
X198000Y194000D01*
Y208500D01*
X204500Y215000D01*
X212500D01*
X214500Y217000D01*
Y238000D01*
X212000Y240500D01*
X210500D01*
Y245000D01*
X216500D01*
X226500Y237500D01*
D02*
G37*
G36*
X194482Y98000D02*
X194467Y98142D01*
X194421Y98270D01*
X194346Y98383D01*
X194240Y98480D01*
X194104Y98563D01*
X193937Y98630D01*
X193741Y98682D01*
X193514Y98720D01*
X193257Y98743D01*
X192970Y98750D01*
Y100250D01*
X193257Y100258D01*
X193514Y100280D01*
X193741Y100318D01*
X193937Y100370D01*
X194104Y100437D01*
X194240Y100520D01*
X194346Y100618D01*
X194421Y100730D01*
X194467Y100857D01*
X194482Y101000D01*
Y98000D01*
D02*
G37*
G36*
X124000Y202000D02*
X116000Y194000D01*
Y177000D01*
X120000Y173000D01*
X156000D01*
X161000Y168000D01*
Y154000D01*
X157000Y150000D01*
X112000D01*
X103000Y159000D01*
Y197000D01*
X111000Y205000D01*
Y223000D01*
X124000D01*
Y202000D01*
D02*
G37*
G36*
X171100Y299144D02*
X171089Y299202D01*
X171057Y299254D01*
X171004Y299300D01*
X170929Y299340D01*
X170833Y299373D01*
X170715Y299401D01*
X170576Y299422D01*
X170416Y299438D01*
X170031Y299450D01*
Y300950D01*
X170235Y300953D01*
X170576Y300978D01*
X170715Y300999D01*
X170833Y301027D01*
X170929Y301060D01*
X171004Y301100D01*
X171057Y301146D01*
X171089Y301198D01*
X171100Y301256D01*
Y299144D01*
D02*
G37*
G36*
X174214Y301557D02*
X174260Y301430D01*
X174336Y301318D01*
X174441Y301220D01*
X174577Y301137D01*
X174744Y301070D01*
X174940Y301017D01*
X175167Y300980D01*
X175424Y300957D01*
X175711Y300950D01*
Y299450D01*
X175424Y299443D01*
X175167Y299420D01*
X174940Y299382D01*
X174744Y299330D01*
X174577Y299262D01*
X174441Y299180D01*
X174336Y299082D01*
X174260Y298970D01*
X174214Y298843D01*
X174199Y298700D01*
Y301700D01*
X174214Y301557D01*
D02*
G37*
%LPC*%
G36*
X211962Y370141D02*
X143500D01*
X142681Y369978D01*
X141986Y369514D01*
X136950Y364478D01*
X136486Y363783D01*
X136323Y362964D01*
Y350784D01*
X136218Y350698D01*
X135876Y350527D01*
X135387Y350853D01*
X134724Y350985D01*
X132362D01*
X131698Y350853D01*
X131136Y350478D01*
X130760Y349915D01*
X130628Y349252D01*
Y342559D01*
X130760Y341896D01*
X131136Y341333D01*
X131402Y341156D01*
Y341000D01*
X131565Y340181D01*
X132029Y339486D01*
X133382Y338133D01*
X134077Y337669D01*
X134896Y337506D01*
X212946D01*
X239965Y310486D01*
X240049Y310430D01*
X240576Y309157D01*
X241480Y307980D01*
X242657Y307076D01*
X244028Y306508D01*
X245500Y306314D01*
X246972Y306508D01*
X248343Y307076D01*
X249520Y307980D01*
X250424Y309157D01*
X250992Y310528D01*
X251186Y312000D01*
X250992Y313472D01*
X250424Y314843D01*
X249520Y316020D01*
X248654Y316685D01*
Y317315D01*
X249520Y317980D01*
X250424Y319157D01*
X250992Y320529D01*
X251186Y322000D01*
X250992Y323471D01*
X250424Y324843D01*
X249520Y326020D01*
X248343Y326924D01*
X246972Y327492D01*
X245500Y327686D01*
X244028Y327492D01*
X242657Y326924D01*
X241480Y326020D01*
X240576Y324843D01*
X240285Y324141D01*
X238887D01*
X219875Y343153D01*
Y349252D01*
X219743Y349915D01*
X219367Y350478D01*
X218916Y350779D01*
Y351331D01*
Y363187D01*
X218753Y364007D01*
X218289Y364701D01*
X213476Y369514D01*
X212781Y369978D01*
X211962Y370141D01*
D02*
G37*
G36*
X256526Y362363D02*
X255285D01*
X255118Y362330D01*
X254947D01*
X253730Y362088D01*
X253572Y362022D01*
X253405Y361989D01*
X252258Y361514D01*
X252116Y361420D01*
X251959Y361354D01*
X250927Y360665D01*
X250806Y360544D01*
X250664Y360449D01*
X249787Y359572D01*
X249692Y359430D01*
X249571Y359309D01*
X248882Y358278D01*
X248817Y358120D01*
X248722Y357978D01*
X248247Y356831D01*
X248214Y356664D01*
X248148Y356506D01*
X247906Y355289D01*
Y355118D01*
X247873Y354951D01*
Y353710D01*
X247906Y353543D01*
Y353372D01*
X248148Y352155D01*
X248214Y351997D01*
X248247Y351830D01*
X248722Y350684D01*
X248817Y350542D01*
X248882Y350384D01*
X249571Y349352D01*
X249692Y349232D01*
X249787Y349090D01*
X250664Y348212D01*
X250806Y348117D01*
X250927Y347997D01*
X251959Y347307D01*
X252116Y347242D01*
X252258Y347147D01*
X253405Y346672D01*
X253572Y346639D01*
X253730Y346574D01*
X254947Y346332D01*
X255118D01*
X255285Y346298D01*
X256526D01*
X256693Y346332D01*
X256864D01*
X258081Y346574D01*
X258239Y346639D01*
X258406Y346672D01*
X259553Y347147D01*
X259695Y347242D01*
X259852Y347307D01*
X260884Y347997D01*
X261005Y348117D01*
X261147Y348212D01*
X262024Y349090D01*
X262119Y349232D01*
X262240Y349352D01*
X262929Y350384D01*
X262994Y350542D01*
X263089Y350684D01*
X263564Y351830D01*
X263597Y351997D01*
X263663Y352155D01*
X263905Y353372D01*
Y353543D01*
X263938Y353710D01*
Y354951D01*
X263905Y355119D01*
Y355289D01*
X263663Y356506D01*
X263597Y356664D01*
X263564Y356831D01*
X263089Y357978D01*
X262994Y358120D01*
X262929Y358278D01*
X262240Y359309D01*
X262119Y359430D01*
X262024Y359572D01*
X261147Y360449D01*
X261005Y360544D01*
X260884Y360665D01*
X259852Y361354D01*
X259695Y361420D01*
X259553Y361514D01*
X258406Y361989D01*
X258239Y362022D01*
X258081Y362088D01*
X256864Y362330D01*
X256693D01*
X256526Y362363D01*
D02*
G37*
G36*
X128228Y366340D02*
X124291D01*
X123627Y366208D01*
X123065Y365832D01*
X122689Y365270D01*
X122557Y364606D01*
Y353583D01*
X122689Y352919D01*
X123065Y352357D01*
X123627Y351981D01*
X124291Y351849D01*
X128228D01*
X128891Y351981D01*
X129453Y352357D01*
X129829Y352919D01*
X129961Y353583D01*
Y364606D01*
X129829Y365270D01*
X129453Y365832D01*
X128891Y366208D01*
X128228Y366340D01*
D02*
G37*
G36*
X256526Y27718D02*
X255285D01*
X255118Y27684D01*
X254947D01*
X253730Y27442D01*
X253572Y27377D01*
X253405Y27343D01*
X252258Y26869D01*
X252116Y26774D01*
X251959Y26708D01*
X250927Y26019D01*
X250806Y25898D01*
X250664Y25804D01*
X249787Y24926D01*
X249692Y24784D01*
X249571Y24664D01*
X248882Y23632D01*
X248817Y23474D01*
X248722Y23332D01*
X248247Y22186D01*
X248214Y22018D01*
X248148Y21861D01*
X247906Y20644D01*
Y20473D01*
X247873Y20305D01*
Y19065D01*
X247906Y18897D01*
Y18726D01*
X248148Y17510D01*
X248214Y17352D01*
X248247Y17184D01*
X248722Y16038D01*
X248817Y15896D01*
X248882Y15738D01*
X249571Y14706D01*
X249692Y14586D01*
X249787Y14444D01*
X250664Y13566D01*
X250806Y13472D01*
X250927Y13351D01*
X251959Y12662D01*
X252116Y12596D01*
X252258Y12501D01*
X253405Y12026D01*
X253572Y11993D01*
X253730Y11928D01*
X254947Y11686D01*
X255118D01*
X255285Y11653D01*
X256526D01*
X256693Y11686D01*
X256864D01*
X258081Y11928D01*
X258239Y11993D01*
X258406Y12026D01*
X259553Y12501D01*
X259695Y12596D01*
X259852Y12662D01*
X260884Y13351D01*
X261005Y13472D01*
X261147Y13566D01*
X262024Y14444D01*
X262119Y14586D01*
X262240Y14706D01*
X262929Y15738D01*
X262994Y15896D01*
X263089Y16038D01*
X263564Y17184D01*
X263597Y17352D01*
X263663Y17510D01*
X263905Y18726D01*
Y18897D01*
X263938Y19065D01*
Y20305D01*
X263905Y20473D01*
Y20644D01*
X263663Y21861D01*
X263597Y22018D01*
X263564Y22186D01*
X263089Y23332D01*
X262994Y23474D01*
X262929Y23632D01*
X262240Y24664D01*
X262119Y24784D01*
X262024Y24926D01*
X261147Y25804D01*
X261005Y25898D01*
X260884Y26019D01*
X259852Y26708D01*
X259695Y26774D01*
X259553Y26869D01*
X258406Y27343D01*
X258239Y27377D01*
X258081Y27442D01*
X256864Y27684D01*
X256693D01*
X256526Y27718D01*
D02*
G37*
G36*
X226213Y366340D02*
X222276D01*
X221612Y366208D01*
X221050Y365832D01*
X220674Y365270D01*
X220542Y364606D01*
Y353583D01*
X220674Y352919D01*
X221050Y352357D01*
X221612Y351981D01*
X222276Y351849D01*
X226213D01*
X226876Y351981D01*
X227438Y352357D01*
X227814Y352919D01*
X227946Y353583D01*
Y364606D01*
X227814Y365270D01*
X227438Y365832D01*
X226876Y366208D01*
X226213Y366340D01*
D02*
G37*
%LPD*%
G36*
X162215Y340505D02*
X162336Y340409D01*
X162460Y340324D01*
X162590Y340250D01*
X162724Y340188D01*
X162863Y340137D01*
X163007Y340098D01*
X163155Y340069D01*
X163308Y340052D01*
X163466Y340047D01*
X162500Y339247D01*
X160734Y340047D01*
X160881Y340052D01*
X161000Y340069D01*
X161091Y340098D01*
X161156Y340137D01*
X161193Y340188D01*
X161203Y340250D01*
X161185Y340324D01*
X161140Y340409D01*
X161068Y340505D01*
X160969Y340612D01*
X162100D01*
X162215Y340505D01*
D02*
G37*
G36*
X187715D02*
X187836Y340409D01*
X187961Y340324D01*
X188090Y340250D01*
X188224Y340188D01*
X188363Y340137D01*
X188507Y340098D01*
X188655Y340069D01*
X188808Y340052D01*
X188966Y340047D01*
X188000Y339247D01*
X186234Y340047D01*
X186381Y340052D01*
X186500Y340069D01*
X186591Y340098D01*
X186656Y340137D01*
X186693Y340188D01*
X186703Y340250D01*
X186685Y340324D01*
X186640Y340409D01*
X186568Y340505D01*
X186469Y340612D01*
X187600D01*
X187715Y340505D01*
D02*
G37*
G36*
X217179Y349885D02*
X217191Y349747D01*
X217211Y349625D01*
X217238Y349519D01*
X217274Y349430D01*
X217319Y349357D01*
X217371Y349300D01*
X217430Y349259D01*
X217498Y349235D01*
X217575Y349227D01*
X215974D01*
X216051Y349235D01*
X216119Y349259D01*
X216178Y349300D01*
X216231Y349357D01*
X216274Y349430D01*
X216311Y349519D01*
X216338Y349625D01*
X216359Y349747D01*
X216371Y349885D01*
X216374Y350039D01*
X217175D01*
X217179Y349885D01*
D02*
G37*
G36*
X195966Y367600D02*
X195808Y367594D01*
X195655Y367577D01*
X195507Y367549D01*
X195363Y367510D01*
X195224Y367459D01*
X195090Y367396D01*
X194960Y367323D01*
X194836Y367238D01*
X194715Y367142D01*
X194600Y367034D01*
X193469D01*
X193568Y367142D01*
X193640Y367238D01*
X193685Y367323D01*
X193703Y367396D01*
X193693Y367459D01*
X193656Y367510D01*
X193591Y367549D01*
X193500Y367577D01*
X193381Y367594D01*
X193234Y367600D01*
X195000Y368400D01*
X195966Y367600D01*
D02*
G37*
G36*
X170302D02*
X170145Y367594D01*
X169992Y367577D01*
X169843Y367549D01*
X169700Y367510D01*
X169561Y367459D01*
X169427Y367396D01*
X169297Y367323D01*
X169172Y367238D01*
X169052Y367142D01*
X168937Y367034D01*
X167805D01*
X167905Y367142D01*
X167977Y367238D01*
X168022Y367323D01*
X168039Y367396D01*
X168030Y367459D01*
X167992Y367510D01*
X167928Y367549D01*
X167836Y367577D01*
X167717Y367594D01*
X167571Y367600D01*
X169337Y368400D01*
X170302Y367600D01*
D02*
G37*
G36*
X214116Y339930D02*
X214233Y338681D01*
X214117Y338789D01*
X213997Y338885D01*
X213872Y338969D01*
X213743Y339043D01*
X213608Y339105D01*
X213470Y339156D01*
X213326Y339196D01*
X213178Y339224D01*
X213025Y339241D01*
X212867Y339247D01*
X212067Y340047D01*
X212213Y340052D01*
X212332Y340069D01*
X212424Y340098D01*
X212489Y340137D01*
X212526Y340188D01*
X212535Y340250D01*
X212518Y340324D01*
X212473Y340409D01*
X212401Y340505D01*
X212301Y340612D01*
X214116Y339930D01*
D02*
G37*
G36*
X218109Y342566D02*
X218103Y342549D01*
X218111Y342521D01*
X218133Y342482D01*
X218169Y342431D01*
X218219Y342368D01*
X218361Y342210D01*
X218559Y342006D01*
X217428D01*
X217315Y342114D01*
X217202Y342210D01*
X217089Y342295D01*
X216975Y342368D01*
X216862Y342431D01*
X216749Y342482D01*
X216636Y342521D01*
X216523Y342549D01*
X216410Y342566D01*
X216297Y342572D01*
X218129D01*
X218109Y342566D01*
D02*
G37*
G36*
X186597Y342564D02*
X186529Y342540D01*
X186469Y342500D01*
X186417Y342444D01*
X186374Y342372D01*
X186338Y342284D01*
X186310Y342180D01*
X186290Y342061D01*
X186278Y341925D01*
X186274Y341773D01*
X185474D01*
X185470Y341925D01*
X185458Y342061D01*
X185438Y342180D01*
X185410Y342284D01*
X185374Y342372D01*
X185330Y342444D01*
X185278Y342500D01*
X185218Y342540D01*
X185151Y342564D01*
X185075Y342572D01*
X186673D01*
X186597Y342564D01*
D02*
G37*
G36*
X212763Y342564D02*
X212695Y342540D01*
X212635Y342500D01*
X212583Y342444D01*
X212539Y342372D01*
X212503Y342284D01*
X212475Y342180D01*
X212455Y342060D01*
X212443Y341924D01*
X212439Y341772D01*
X211639D01*
X211635Y341924D01*
X211623Y342060D01*
X211603Y342180D01*
X211575Y342284D01*
X211539Y342372D01*
X211495Y342444D01*
X211443Y342500D01*
X211383Y342540D01*
X211315Y342564D01*
X211239Y342572D01*
X212839D01*
X212763Y342564D01*
D02*
G37*
G36*
X134267D02*
X134199Y342540D01*
X134139Y342500D01*
X134087Y342444D01*
X134043Y342372D01*
X134007Y342284D01*
X133979Y342180D01*
X133959Y342060D01*
X133947Y341924D01*
X133943Y341772D01*
X133143D01*
X133139Y341924D01*
X133127Y342060D01*
X133107Y342180D01*
X133079Y342284D01*
X133043Y342372D01*
X132999Y342444D01*
X132947Y342500D01*
X132887Y342540D01*
X132819Y342564D01*
X132743Y342572D01*
X134343D01*
X134267Y342564D01*
D02*
G37*
G36*
X191199Y349885D02*
X191211Y349747D01*
X191231Y349625D01*
X191259Y349519D01*
X191295Y349430D01*
X191339Y349357D01*
X191391Y349300D01*
X191451Y349259D01*
X191519Y349235D01*
X191595Y349227D01*
X189995D01*
X190071Y349235D01*
X190139Y349259D01*
X190199Y349300D01*
X190251Y349357D01*
X190295Y349430D01*
X190331Y349519D01*
X190359Y349625D01*
X190379Y349747D01*
X190391Y349885D01*
X190395Y350039D01*
X191195D01*
X191199Y349885D01*
D02*
G37*
G36*
X165033D02*
X165045Y349747D01*
X165066Y349625D01*
X165094Y349519D01*
X165129Y349430D01*
X165173Y349357D01*
X165226Y349300D01*
X165286Y349259D01*
X165354Y349235D01*
X165429Y349227D01*
X163830D01*
X163906Y349235D01*
X163973Y349259D01*
X164033Y349300D01*
X164085Y349357D01*
X164129Y349430D01*
X164165Y349519D01*
X164193Y349625D01*
X164214Y349747D01*
X164225Y349885D01*
X164230Y350039D01*
X165030D01*
X165033Y349885D01*
D02*
G37*
G36*
X138868D02*
X138880Y349747D01*
X138900Y349625D01*
X138928Y349519D01*
X138964Y349430D01*
X139008Y349357D01*
X139060Y349300D01*
X139120Y349259D01*
X139188Y349235D01*
X139264Y349227D01*
X137664D01*
X137740Y349235D01*
X137808Y349259D01*
X137868Y349300D01*
X137920Y349357D01*
X137964Y349430D01*
X138000Y349519D01*
X138028Y349625D01*
X138048Y349747D01*
X138060Y349885D01*
X138064Y350039D01*
X138864D01*
X138868Y349885D01*
D02*
G37*
%LPC*%
G36*
X201727Y298518D02*
X197891D01*
X198837Y297573D01*
Y295000D01*
X198949Y294434D01*
X199270Y293955D01*
X199749Y293634D01*
X200315Y293522D01*
X200881Y293634D01*
X201360Y293955D01*
X201681Y294434D01*
X201793Y295000D01*
Y298185D01*
X201727Y298518D01*
D02*
G37*
%LPD*%
D10*
X126259Y359095D02*
D03*
X145747D02*
D03*
X204756D02*
D03*
X224244D02*
D03*
X152425D02*
D03*
X171913D02*
D03*
X178590D02*
D03*
X198079D02*
D03*
D11*
X138464Y345905D02*
D03*
X133543D02*
D03*
X216961D02*
D03*
X212039D02*
D03*
X164629D02*
D03*
X159708D02*
D03*
X190795D02*
D03*
X185874D02*
D03*
D12*
X205000Y222307D02*
D03*
Y249079D02*
D03*
Y242386D02*
D03*
Y229000D02*
D03*
Y235693D02*
D03*
D13*
X258569D02*
D03*
D14*
X247520D02*
D03*
D15*
X212000Y159331D02*
D03*
Y200669D02*
D03*
D16*
X132874Y214000D02*
D03*
X117126D02*
D03*
D17*
X169000Y98350D02*
D03*
Y104650D02*
D03*
D18*
X189500Y258874D02*
D03*
Y243126D02*
D03*
D19*
X172650Y300200D02*
D03*
X166350D02*
D03*
X155650D02*
D03*
X149350D02*
D03*
D20*
X120260Y263000D02*
D03*
X127740D02*
D03*
X189240Y62700D02*
D03*
X181760D02*
D03*
D21*
X126819Y282000D02*
D03*
X120756D02*
D03*
X170031Y62500D02*
D03*
X163969D02*
D03*
D22*
X229863Y106863D02*
X240500D01*
X228637Y61863D02*
X240500D01*
X208363Y34000D02*
Y59363D01*
X169363Y34000D02*
Y38406D01*
X130363Y34000D02*
Y38406D01*
X212000Y124726D02*
Y159331D01*
X198000Y99500D02*
X202500D01*
X175594Y44637D02*
X193637D01*
X169363Y38406D02*
X175594Y44637D01*
X136594D02*
X175594D01*
X130363Y38406D02*
X136594Y44637D01*
X212000Y124726D02*
X229863Y106863D01*
X202500Y99500D02*
X212000Y109000D01*
Y78500D02*
X228637Y61863D01*
X212000Y63000D02*
Y78500D01*
Y109000D01*
Y124726D01*
X193637Y44637D02*
X208363Y59363D01*
X212000Y63000D01*
D23*
X193307Y229307D02*
X206784D01*
X200315Y295000D02*
Y298185D01*
X198300Y300200D02*
X200315Y298185D01*
X172650Y300200D02*
X198300D01*
X192669Y159331D02*
X212000D01*
X184000Y168000D02*
X192669Y159331D01*
X184000Y168000D02*
Y220000D01*
X193307Y229307D01*
X173850Y98350D02*
X175000Y99500D01*
X169000Y98350D02*
X173850D01*
X163969Y81468D02*
X182000Y99500D01*
X163969Y62500D02*
Y81468D01*
X175000Y99500D02*
X182000D01*
X198000D01*
X170031Y62500D02*
Y66681D01*
X172350Y69000D01*
X187240D01*
X189240Y67000D01*
Y62700D02*
Y67000D01*
X126819Y276563D02*
Y282000D01*
X120260Y270004D02*
X126819Y276563D01*
X120260Y263000D02*
Y270004D01*
X155650Y300200D02*
X161150D01*
X164175Y303225D01*
X168526D01*
X169375Y302375D01*
Y300856D02*
Y302375D01*
Y300856D02*
X170031Y300200D01*
X172650D01*
D24*
X189875Y243126D02*
X206350D01*
X206784Y242693D01*
D25*
X216775Y343226D02*
Y351331D01*
X169337Y368000D02*
X196098D01*
X141676Y339647D02*
X167353D01*
X192706D01*
X190795Y345905D02*
Y363795D01*
X195000Y368000D01*
X164629Y345905D02*
Y363293D01*
X169337Y368000D01*
X138464Y362964D02*
X143500Y368000D01*
X138464Y345905D02*
Y362964D01*
X133543Y341000D02*
Y345905D01*
Y341000D02*
X134896Y339647D01*
X141676D01*
X159708Y342439D02*
Y345905D01*
Y342439D02*
X162500Y339647D01*
X185874Y341773D02*
Y345905D01*
Y341773D02*
X188000Y339647D01*
X212039Y341440D02*
Y345905D01*
Y341440D02*
X213833Y339647D01*
X115000Y282000D02*
X120756D01*
X110000Y277000D02*
X115000Y282000D01*
X110000Y244000D02*
Y277000D01*
Y244000D02*
X116018Y237982D01*
X134018D01*
X142500Y229500D01*
Y216218D02*
Y229500D01*
X140282Y214000D02*
X142500Y216218D01*
X132874Y214000D02*
X140282D01*
X238000Y322000D02*
X245500D01*
X216775Y343226D02*
X238000Y322000D01*
X216775Y351331D02*
Y363187D01*
X211962Y368000D02*
X216775Y363187D01*
X196098Y368000D02*
X211962D01*
X143500D02*
X169337D01*
X241479Y312000D02*
X245500D01*
X192706Y339647D02*
X213833D01*
X241479Y312000D01*
D26*
X138000Y134228D02*
D03*
Y161000D02*
D03*
Y187772D02*
D03*
D27*
X39102Y307488D02*
D03*
Y331504D02*
D03*
X67449D02*
D03*
Y307488D02*
D03*
X39102Y166488D02*
D03*
Y190504D02*
D03*
X67449D02*
D03*
Y166488D02*
D03*
X39102Y108756D02*
D03*
Y132772D02*
D03*
X67449D02*
D03*
Y108756D02*
D03*
X39102Y52496D02*
D03*
Y76512D02*
D03*
X67449D02*
D03*
Y52496D02*
D03*
X39102Y229488D02*
D03*
Y253504D02*
D03*
X67449D02*
D03*
Y229488D02*
D03*
D28*
X44614Y309260D02*
D03*
X48551Y313000D02*
D03*
X29653D02*
D03*
X33591Y309260D02*
D03*
X44614Y329732D02*
D03*
X48551Y325992D02*
D03*
X29653D02*
D03*
X33591Y329732D02*
D03*
X61937D02*
D03*
X58000Y325992D02*
D03*
X76898D02*
D03*
X72961Y329732D02*
D03*
X61937Y309260D02*
D03*
X58000Y313000D02*
D03*
X76898D02*
D03*
X72961Y309260D02*
D03*
X44614Y168260D02*
D03*
X48551Y172000D02*
D03*
X29653D02*
D03*
X33591Y168260D02*
D03*
X44614Y188732D02*
D03*
X48551Y184992D02*
D03*
X29653D02*
D03*
X33591Y188732D02*
D03*
X61937D02*
D03*
X58000Y184992D02*
D03*
X76898D02*
D03*
X72961Y188732D02*
D03*
X61937Y168260D02*
D03*
X58000Y172000D02*
D03*
X76898D02*
D03*
X72961Y168260D02*
D03*
X44614Y110528D02*
D03*
X48551Y114268D02*
D03*
X29653D02*
D03*
X33591Y110528D02*
D03*
X44614Y131000D02*
D03*
X48551Y127260D02*
D03*
X29653D02*
D03*
X33591Y131000D02*
D03*
X61937D02*
D03*
X58000Y127260D02*
D03*
X76898D02*
D03*
X72961Y131000D02*
D03*
X61937Y110528D02*
D03*
X58000Y114268D02*
D03*
X76898D02*
D03*
X72961Y110528D02*
D03*
X44614Y54268D02*
D03*
X48551Y58008D02*
D03*
X29653D02*
D03*
X33591Y54268D02*
D03*
X44614Y74740D02*
D03*
X48551Y71000D02*
D03*
X29653D02*
D03*
X33591Y74740D02*
D03*
X61937D02*
D03*
X58000Y71000D02*
D03*
X76898D02*
D03*
X72961Y74740D02*
D03*
X61937Y54268D02*
D03*
X58000Y58008D02*
D03*
X76898D02*
D03*
X72961Y54268D02*
D03*
X44614Y231260D02*
D03*
X48551Y235000D02*
D03*
X29653D02*
D03*
X33591Y231260D02*
D03*
X44614Y251732D02*
D03*
X48551Y247992D02*
D03*
X29653D02*
D03*
X33591Y251732D02*
D03*
X61937D02*
D03*
X58000Y247992D02*
D03*
X76898D02*
D03*
X72961Y251732D02*
D03*
X61937Y231260D02*
D03*
X58000Y235000D02*
D03*
X76898D02*
D03*
X72961Y231260D02*
D03*
D29*
X49929Y319496D02*
D03*
X28276D02*
D03*
X56622D02*
D03*
X78276D02*
D03*
X49929Y178496D02*
D03*
X28276D02*
D03*
X56622D02*
D03*
X78276D02*
D03*
X49929Y120764D02*
D03*
X28276D02*
D03*
X56622D02*
D03*
X78276D02*
D03*
X49929Y64504D02*
D03*
X28276D02*
D03*
X56622D02*
D03*
X78276D02*
D03*
X49929Y241496D02*
D03*
X28276D02*
D03*
X56622D02*
D03*
X78276D02*
D03*
D30*
X67449Y319496D02*
D03*
X39102D02*
D03*
X67449Y178496D02*
D03*
X39102D02*
D03*
X67449Y120764D02*
D03*
X39102D02*
D03*
X67449Y64504D02*
D03*
X39102D02*
D03*
X67449Y241496D02*
D03*
X39102D02*
D03*
D31*
X198000Y99500D02*
D03*
D32*
Y119185D02*
D03*
X220000Y295000D02*
D03*
D33*
X200315D02*
D03*
D34*
X240500Y62500D02*
D03*
Y72500D02*
D03*
Y107500D02*
D03*
Y117500D02*
D03*
X209000Y34000D02*
D03*
X219000D02*
D03*
X170000D02*
D03*
X180000D02*
D03*
X131000D02*
D03*
X141000D02*
D03*
X245500Y322000D02*
D03*
Y312000D02*
D03*
D35*
X195000Y233000D02*
D03*
Y236000D02*
D03*
X192400D02*
D03*
Y233000D02*
D03*
X189500Y236000D02*
D03*
Y233000D02*
D03*
X198500Y224000D02*
D03*
Y220956D02*
D03*
X198400Y217718D02*
D03*
X198500Y214793D02*
D03*
X194937D02*
D03*
Y218000D02*
D03*
Y221000D02*
D03*
Y224000D02*
D03*
X245500Y227500D02*
D03*
Y230500D02*
D03*
Y234000D02*
D03*
Y237500D02*
D03*
X241500D02*
D03*
Y234000D02*
D03*
Y230500D02*
D03*
Y227500D02*
D03*
X249500Y237500D02*
D03*
Y234000D02*
D03*
Y230500D02*
D03*
Y227500D02*
D03*
X253500Y237500D02*
D03*
Y234000D02*
D03*
Y230500D02*
D03*
Y227500D02*
D03*
X237500Y237500D02*
D03*
Y234000D02*
D03*
Y230500D02*
D03*
Y227500D02*
D03*
Y224500D02*
D03*
X241500D02*
D03*
X245500D02*
D03*
X249500D02*
D03*
X253500D02*
D03*
Y221500D02*
D03*
X245500D02*
D03*
X237500D02*
D03*
X241500D02*
D03*
X249500D02*
D03*
X247873Y71000D02*
D03*
Y75000D02*
D03*
Y79500D02*
D03*
X243500D02*
D03*
X238500D02*
D03*
Y83000D02*
D03*
X243500Y83500D02*
D03*
X248000D02*
D03*
X249500Y116500D02*
D03*
X249571Y121000D02*
D03*
Y125500D02*
D03*
X244799D02*
D03*
X240500D02*
D03*
X236500D02*
D03*
Y129500D02*
D03*
X240500D02*
D03*
X244799D02*
D03*
X249571D02*
D03*
X253572Y125500D02*
D03*
Y129500D02*
D03*
Y121000D02*
D03*
Y116500D02*
D03*
X251959Y83500D02*
D03*
Y79500D02*
D03*
Y75000D02*
D03*
Y71000D02*
D03*
X219000Y41367D02*
D03*
X222500D02*
D03*
X226500D02*
D03*
Y45000D02*
D03*
X222500D02*
D03*
X219000D02*
D03*
X226500Y38000D02*
D03*
Y34500D02*
D03*
Y30000D02*
D03*
X187500Y35201D02*
D03*
Y32000D02*
D03*
Y28529D02*
D03*
X184000Y28500D02*
D03*
Y25505D02*
D03*
X181000D02*
D03*
X187500D02*
D03*
X177500D02*
D03*
X149000Y34000D02*
D03*
Y30500D02*
D03*
Y27343D02*
D03*
X145000D02*
D03*
X140500Y27377D02*
D03*
Y23500D02*
D03*
X145000D02*
D03*
X149000Y23632D02*
D03*
X153500Y27377D02*
D03*
Y30500D02*
D03*
Y34000D02*
D03*
Y23632D02*
D03*
X197936Y125500D02*
D03*
X194000D02*
D03*
X190000D02*
D03*
X186498D02*
D03*
X183000D02*
D03*
Y122500D02*
D03*
X186498D02*
D03*
X190000D02*
D03*
Y119500D02*
D03*
X186498D02*
D03*
X183000D02*
D03*
X173385Y105000D02*
D03*
X173308Y108500D02*
D03*
X169663D02*
D03*
Y111162D02*
D03*
X173470D02*
D03*
X183035Y58000D02*
D03*
X179099D02*
D03*
X179000Y54715D02*
D03*
X183000Y54500D02*
D03*
X237000Y292000D02*
D03*
Y297024D02*
D03*
X242000D02*
D03*
Y292000D02*
D03*
Y287500D02*
D03*
X237000D02*
D03*
Y283000D02*
D03*
X242000D02*
D03*
X126233Y258500D02*
D03*
X129500D02*
D03*
Y255500D02*
D03*
X126233D02*
D03*
X168000Y296663D02*
D03*
X164500Y296500D02*
D03*
X160794Y296000D02*
D03*
Y293500D02*
D03*
X150112Y296000D02*
D03*
Y293500D02*
D03*
X147000Y296000D02*
D03*
Y293500D02*
D03*
X144000Y296000D02*
D03*
Y293500D02*
D03*
X253500Y245000D02*
D03*
Y249000D02*
D03*
Y252500D02*
D03*
X249500D02*
D03*
Y249000D02*
D03*
Y245000D02*
D03*
Y241500D02*
D03*
X245500D02*
D03*
Y245000D02*
D03*
Y249000D02*
D03*
Y252500D02*
D03*
X241500Y241500D02*
D03*
Y245000D02*
D03*
Y249000D02*
D03*
Y252500D02*
D03*
X237500Y241500D02*
D03*
Y245000D02*
D03*
Y249000D02*
D03*
Y252500D02*
D03*
X253500Y241500D02*
D03*
X186500Y233058D02*
D03*
Y236000D02*
D03*
X182000Y236500D02*
D03*
Y233500D02*
D03*
Y239500D02*
D03*
Y242500D02*
D03*
Y245500D02*
D03*
Y248500D02*
D03*
X178000D02*
D03*
Y245500D02*
D03*
Y242500D02*
D03*
Y239500D02*
D03*
Y236500D02*
D03*
Y233500D02*
D03*
M02*
