G04 Layer_Color=65535*
%FSLAX25Y25*%
%MOIN*%
G70*
G01*
G75*
%ADD25C,0.00800*%
%ADD36C,0.02362*%
%ADD37C,0.01000*%
%ADD38C,0.00787*%
G36*
X212946Y335803D02*
X212521D01*
Y338621D01*
X210945D01*
Y339000D01*
X212946D01*
Y335803D01*
D02*
G37*
G36*
X187000D02*
X186575D01*
Y338621D01*
X185000D01*
Y339000D01*
X187000D01*
Y335803D01*
D02*
G37*
G36*
X237491Y320802D02*
X237519Y320793D01*
X237556Y320779D01*
X237597Y320765D01*
X237648Y320747D01*
X237703Y320724D01*
X237764Y320696D01*
X237893Y320632D01*
X238022Y320548D01*
X238087Y320497D01*
X238152Y320447D01*
X238207Y320391D01*
X238263Y320327D01*
X238267Y320322D01*
X238276Y320313D01*
X238286Y320290D01*
X238304Y320267D01*
X238327Y320230D01*
X238350Y320193D01*
X238373Y320142D01*
X238397Y320091D01*
X238424Y320031D01*
X238447Y319966D01*
X238470Y319897D01*
X238493Y319823D01*
X238512Y319744D01*
X238521Y319661D01*
X238530Y319573D01*
X238535Y319481D01*
Y319477D01*
Y319458D01*
Y319430D01*
X238530Y319393D01*
Y319352D01*
X238526Y319301D01*
X238517Y319246D01*
X238507Y319181D01*
X238484Y319047D01*
X238447Y318908D01*
X238397Y318770D01*
X238364Y318705D01*
X238327Y318640D01*
X238323Y318636D01*
X238318Y318626D01*
X238304Y318608D01*
X238286Y318589D01*
X238267Y318562D01*
X238239Y318529D01*
X238207Y318493D01*
X238170Y318456D01*
X238128Y318419D01*
X238087Y318377D01*
X237981Y318294D01*
X237856Y318215D01*
X237717Y318146D01*
X237713D01*
X237699Y318137D01*
X237676Y318132D01*
X237648Y318118D01*
X237611Y318109D01*
X237565Y318095D01*
X237514Y318077D01*
X237459Y318063D01*
X237399Y318049D01*
X237329Y318031D01*
X237186Y318007D01*
X237024Y317989D01*
X236858Y317980D01*
X236807D01*
X236775Y317984D01*
X236729D01*
X236683Y317989D01*
X236622Y317993D01*
X236562Y318003D01*
X236428Y318026D01*
X236280Y318058D01*
X236133Y318104D01*
X235989Y318169D01*
X235985Y318174D01*
X235971Y318178D01*
X235952Y318187D01*
X235929Y318206D01*
X235897Y318225D01*
X235860Y318248D01*
X235777Y318308D01*
X235684Y318386D01*
X235592Y318479D01*
X235500Y318585D01*
X235421Y318710D01*
X235417Y318714D01*
X235412Y318728D01*
X235403Y318747D01*
X235389Y318770D01*
X235375Y318807D01*
X235361Y318844D01*
X235343Y318890D01*
X235324Y318941D01*
X235306Y318996D01*
X235287Y319056D01*
X235260Y319185D01*
X235236Y319333D01*
X235227Y319486D01*
Y319490D01*
Y319509D01*
Y319532D01*
X235232Y319564D01*
X235236Y319606D01*
X235241Y319657D01*
X235246Y319707D01*
X235260Y319768D01*
X235287Y319892D01*
X235329Y320031D01*
X235356Y320100D01*
X235389Y320165D01*
X235430Y320230D01*
X235472Y320294D01*
X235477Y320299D01*
X235481Y320308D01*
X235495Y320327D01*
X235518Y320350D01*
X235541Y320373D01*
X235574Y320405D01*
X235611Y320438D01*
X235648Y320474D01*
X235694Y320511D01*
X235749Y320548D01*
X235805Y320590D01*
X235865Y320627D01*
X235934Y320659D01*
X236003Y320696D01*
X236077Y320724D01*
X236160Y320752D01*
X236257Y320336D01*
X236253D01*
X236244Y320331D01*
X236225Y320322D01*
X236202Y320313D01*
X236174Y320304D01*
X236137Y320290D01*
X236063Y320253D01*
X235980Y320206D01*
X235897Y320151D01*
X235819Y320082D01*
X235749Y320008D01*
X235740Y319999D01*
X235721Y319971D01*
X235698Y319925D01*
X235666Y319865D01*
X235638Y319786D01*
X235611Y319698D01*
X235592Y319592D01*
X235588Y319477D01*
Y319472D01*
Y319458D01*
Y319440D01*
X235592Y319416D01*
Y319384D01*
X235597Y319347D01*
X235611Y319259D01*
X235629Y319162D01*
X235661Y319061D01*
X235708Y318954D01*
X235768Y318857D01*
Y318853D01*
X235777Y318848D01*
X235800Y318816D01*
X235837Y318774D01*
X235892Y318724D01*
X235962Y318663D01*
X236040Y318608D01*
X236137Y318557D01*
X236244Y318511D01*
X236248D01*
X236257Y318506D01*
X236271Y318502D01*
X236294Y318497D01*
X236322Y318488D01*
X236354Y318479D01*
X236433Y318465D01*
X236525Y318446D01*
X236627Y318428D01*
X236738Y318419D01*
X236858Y318414D01*
X236927D01*
X236960Y318419D01*
X237001D01*
X237047Y318423D01*
X237098Y318428D01*
X237209Y318442D01*
X237329Y318465D01*
X237449Y318493D01*
X237569Y318529D01*
X237574D01*
X237583Y318534D01*
X237597Y318543D01*
X237620Y318552D01*
X237676Y318580D01*
X237740Y318622D01*
X237814Y318673D01*
X237893Y318737D01*
X237962Y318811D01*
X238027Y318899D01*
Y318904D01*
X238032Y318913D01*
X238041Y318927D01*
X238050Y318945D01*
X238059Y318968D01*
X238073Y318996D01*
X238101Y319061D01*
X238128Y319144D01*
X238152Y319236D01*
X238170Y319338D01*
X238175Y319444D01*
Y319449D01*
Y319458D01*
Y319477D01*
X238170Y319504D01*
Y319537D01*
X238165Y319569D01*
X238147Y319652D01*
X238124Y319749D01*
X238087Y319846D01*
X238036Y319948D01*
X238008Y319999D01*
X237971Y320045D01*
X237967Y320049D01*
X237962Y320054D01*
X237948Y320068D01*
X237934Y320086D01*
X237911Y320105D01*
X237884Y320128D01*
X237856Y320156D01*
X237819Y320179D01*
X237777Y320206D01*
X237731Y320239D01*
X237685Y320267D01*
X237630Y320294D01*
X237569Y320317D01*
X237505Y320340D01*
X237436Y320364D01*
X237362Y320382D01*
X237468Y320807D01*
X237473D01*
X237491Y320802D01*
D02*
G37*
G36*
X238480Y326383D02*
X235971Y324711D01*
X238480D01*
Y324304D01*
X235283D01*
Y324739D01*
X237796Y326416D01*
X235283D01*
Y326822D01*
X238480D01*
Y326383D01*
D02*
G37*
G36*
Y323487D02*
X237509Y323113D01*
Y321773D01*
X238480Y321426D01*
Y320978D01*
X235283Y322198D01*
Y322660D01*
X238480Y323967D01*
Y323487D01*
D02*
G37*
G36*
X160500Y336450D02*
X160075D01*
Y339268D01*
X158500D01*
Y339647D01*
X160500D01*
Y336450D01*
D02*
G37*
G36*
X192000Y335803D02*
X191575D01*
Y337115D01*
X189921D01*
Y335803D01*
X189496D01*
Y339000D01*
X189921D01*
Y337494D01*
X191575D01*
Y339000D01*
X192000D01*
Y335803D01*
D02*
G37*
G36*
X218501D02*
X218076D01*
Y337115D01*
X216422D01*
Y335803D01*
X215997D01*
Y339000D01*
X216422D01*
Y337494D01*
X218076D01*
Y339000D01*
X218501D01*
Y335803D01*
D02*
G37*
G36*
X166337Y336303D02*
X165912D01*
Y337615D01*
X164258D01*
Y336303D01*
X163833D01*
Y339500D01*
X164258D01*
Y337994D01*
X165912D01*
Y339500D01*
X166337D01*
Y336303D01*
D02*
G37*
G36*
X134809Y336450D02*
X134384D01*
Y339268D01*
X132808D01*
Y339647D01*
X134809D01*
Y336450D01*
D02*
G37*
G36*
X139730D02*
X139305D01*
Y337762D01*
X137651D01*
Y336450D01*
X137226D01*
Y339647D01*
X137651D01*
Y338141D01*
X139305D01*
Y339647D01*
X139730D01*
Y336450D01*
D02*
G37*
G36*
X239367Y327118D02*
X239085D01*
Y329719D01*
X239367D01*
Y327118D01*
D02*
G37*
G36*
X7766Y318000D02*
X7000D01*
Y323764D01*
X7766D01*
Y318000D01*
D02*
G37*
G36*
X238500Y314021D02*
X235303D01*
Y314446D01*
X238121D01*
Y316022D01*
X238500D01*
Y314021D01*
D02*
G37*
G36*
X239387Y311138D02*
X239105D01*
Y313739D01*
X239387D01*
Y311138D01*
D02*
G37*
G36*
X190600Y100011D02*
X192856D01*
Y98989D01*
X190600D01*
Y96734D01*
X189634D01*
Y98989D01*
X187379D01*
Y100011D01*
X189634D01*
Y102266D01*
X190600D01*
Y100011D01*
D02*
G37*
G36*
X200826Y303366D02*
X203081D01*
Y302400D01*
X200826D01*
Y300144D01*
X199804D01*
Y302400D01*
X197549D01*
Y303366D01*
X199804D01*
Y305622D01*
X200826D01*
Y303366D01*
D02*
G37*
G36*
X13647Y318000D02*
X12856D01*
X9841Y322523D01*
Y318000D01*
X9108D01*
Y323764D01*
X9890D01*
X12914Y319233D01*
Y323764D01*
X13647D01*
Y318000D01*
D02*
G37*
G36*
X237511Y304823D02*
X237539Y304814D01*
X237576Y304800D01*
X237618Y304786D01*
X237668Y304767D01*
X237724Y304744D01*
X237784Y304717D01*
X237913Y304652D01*
X238043Y304569D01*
X238107Y304518D01*
X238172Y304467D01*
X238227Y304412D01*
X238283Y304347D01*
X238287Y304342D01*
X238297Y304333D01*
X238306Y304310D01*
X238324Y304287D01*
X238348Y304250D01*
X238371Y304213D01*
X238394Y304162D01*
X238417Y304111D01*
X238445Y304051D01*
X238468Y303987D01*
X238491Y303917D01*
X238514Y303843D01*
X238532Y303765D01*
X238542Y303682D01*
X238551Y303594D01*
X238555Y303502D01*
Y303497D01*
Y303478D01*
Y303451D01*
X238551Y303414D01*
Y303372D01*
X238546Y303321D01*
X238537Y303266D01*
X238528Y303201D01*
X238505Y303067D01*
X238468Y302929D01*
X238417Y302790D01*
X238385Y302725D01*
X238348Y302661D01*
X238343Y302656D01*
X238338Y302647D01*
X238324Y302628D01*
X238306Y302610D01*
X238287Y302582D01*
X238260Y302550D01*
X238227Y302513D01*
X238191Y302476D01*
X238149Y302439D01*
X238107Y302397D01*
X238001Y302314D01*
X237876Y302236D01*
X237738Y302166D01*
X237733D01*
X237719Y302157D01*
X237696Y302152D01*
X237668Y302139D01*
X237631Y302129D01*
X237585Y302116D01*
X237534Y302097D01*
X237479Y302083D01*
X237419Y302069D01*
X237350Y302051D01*
X237206Y302028D01*
X237045Y302009D01*
X236878Y302000D01*
X236828D01*
X236795Y302005D01*
X236749D01*
X236703Y302009D01*
X236643Y302014D01*
X236583Y302023D01*
X236449Y302046D01*
X236301Y302079D01*
X236153Y302125D01*
X236010Y302189D01*
X236005Y302194D01*
X235991Y302199D01*
X235973Y302208D01*
X235950Y302226D01*
X235917Y302245D01*
X235880Y302268D01*
X235797Y302328D01*
X235705Y302407D01*
X235613Y302499D01*
X235520Y302605D01*
X235442Y302730D01*
X235437Y302735D01*
X235432Y302748D01*
X235423Y302767D01*
X235409Y302790D01*
X235395Y302827D01*
X235382Y302864D01*
X235363Y302910D01*
X235345Y302961D01*
X235326Y303016D01*
X235308Y303077D01*
X235280Y303206D01*
X235257Y303354D01*
X235247Y303506D01*
Y303511D01*
Y303529D01*
Y303552D01*
X235252Y303585D01*
X235257Y303626D01*
X235261Y303677D01*
X235266Y303728D01*
X235280Y303788D01*
X235308Y303913D01*
X235349Y304051D01*
X235377Y304121D01*
X235409Y304185D01*
X235451Y304250D01*
X235492Y304315D01*
X235497Y304319D01*
X235502Y304328D01*
X235515Y304347D01*
X235539Y304370D01*
X235562Y304393D01*
X235594Y304426D01*
X235631Y304458D01*
X235668Y304495D01*
X235714Y304532D01*
X235770Y304569D01*
X235825Y304610D01*
X235885Y304647D01*
X235954Y304680D01*
X236024Y304717D01*
X236098Y304744D01*
X236181Y304772D01*
X236278Y304356D01*
X236273D01*
X236264Y304352D01*
X236245Y304342D01*
X236222Y304333D01*
X236195Y304324D01*
X236158Y304310D01*
X236084Y304273D01*
X236001Y304227D01*
X235917Y304171D01*
X235839Y304102D01*
X235770Y304028D01*
X235760Y304019D01*
X235742Y303991D01*
X235719Y303945D01*
X235686Y303885D01*
X235659Y303806D01*
X235631Y303719D01*
X235613Y303612D01*
X235608Y303497D01*
Y303492D01*
Y303478D01*
Y303460D01*
X235613Y303437D01*
Y303404D01*
X235617Y303367D01*
X235631Y303280D01*
X235649Y303183D01*
X235682Y303081D01*
X235728Y302975D01*
X235788Y302878D01*
Y302873D01*
X235797Y302869D01*
X235820Y302836D01*
X235857Y302795D01*
X235913Y302744D01*
X235982Y302684D01*
X236061Y302628D01*
X236158Y302577D01*
X236264Y302531D01*
X236268D01*
X236278Y302527D01*
X236292Y302522D01*
X236315Y302517D01*
X236343Y302508D01*
X236375Y302499D01*
X236453Y302485D01*
X236546Y302467D01*
X236647Y302448D01*
X236758Y302439D01*
X236878Y302434D01*
X236948D01*
X236980Y302439D01*
X237022D01*
X237068Y302444D01*
X237119Y302448D01*
X237229Y302462D01*
X237350Y302485D01*
X237470Y302513D01*
X237590Y302550D01*
X237595D01*
X237604Y302554D01*
X237618Y302564D01*
X237641Y302573D01*
X237696Y302601D01*
X237761Y302642D01*
X237835Y302693D01*
X237913Y302758D01*
X237983Y302832D01*
X238047Y302919D01*
Y302924D01*
X238052Y302933D01*
X238061Y302947D01*
X238070Y302966D01*
X238080Y302989D01*
X238093Y303016D01*
X238121Y303081D01*
X238149Y303164D01*
X238172Y303257D01*
X238191Y303358D01*
X238195Y303465D01*
Y303469D01*
Y303478D01*
Y303497D01*
X238191Y303525D01*
Y303557D01*
X238186Y303589D01*
X238167Y303672D01*
X238144Y303769D01*
X238107Y303867D01*
X238056Y303968D01*
X238029Y304019D01*
X237992Y304065D01*
X237987Y304070D01*
X237983Y304074D01*
X237969Y304088D01*
X237955Y304107D01*
X237932Y304125D01*
X237904Y304148D01*
X237876Y304176D01*
X237839Y304199D01*
X237798Y304227D01*
X237752Y304259D01*
X237705Y304287D01*
X237650Y304315D01*
X237590Y304338D01*
X237525Y304361D01*
X237456Y304384D01*
X237382Y304402D01*
X237488Y304827D01*
X237493D01*
X237511Y304823D01*
D02*
G37*
G36*
X238480Y332112D02*
X236974D01*
Y330458D01*
X238480D01*
Y330033D01*
X235283D01*
Y330458D01*
X236595D01*
Y332112D01*
X235283D01*
Y332537D01*
X238480D01*
Y332112D01*
D02*
G37*
G36*
X238500Y307507D02*
X237530Y307133D01*
Y305793D01*
X238500Y305447D01*
Y304998D01*
X235303Y306218D01*
Y306680D01*
X238500Y307987D01*
Y307507D01*
D02*
G37*
G36*
Y310404D02*
X235991Y308731D01*
X238500D01*
Y308325D01*
X235303D01*
Y308759D01*
X237816Y310436D01*
X235303D01*
Y310843D01*
X238500D01*
Y310404D01*
D02*
G37*
%LPC*%
G36*
X237163Y322978D02*
X236285Y322646D01*
X236280D01*
X236267Y322641D01*
X236244Y322632D01*
X236216Y322623D01*
X236184Y322609D01*
X236142Y322595D01*
X236096Y322581D01*
X236050Y322563D01*
X235943Y322526D01*
X235832Y322489D01*
X235721Y322452D01*
X235615Y322420D01*
X235620D01*
X235629Y322415D01*
X235648D01*
X235666Y322406D01*
X235698Y322401D01*
X235731Y322392D01*
X235809Y322373D01*
X235902Y322350D01*
X236003Y322318D01*
X236114Y322286D01*
X236230Y322244D01*
X237163Y321897D01*
Y322978D01*
D02*
G37*
G36*
X237183Y306999D02*
X236305Y306666D01*
X236301D01*
X236287Y306662D01*
X236264Y306652D01*
X236236Y306643D01*
X236204Y306629D01*
X236162Y306615D01*
X236116Y306602D01*
X236070Y306583D01*
X235964Y306546D01*
X235853Y306509D01*
X235742Y306472D01*
X235636Y306440D01*
X235640D01*
X235649Y306435D01*
X235668D01*
X235686Y306426D01*
X235719Y306421D01*
X235751Y306412D01*
X235830Y306394D01*
X235922Y306370D01*
X236024Y306338D01*
X236135Y306306D01*
X236250Y306264D01*
X237183Y305918D01*
Y306999D01*
D02*
G37*
%LPD*%
D25*
X85756Y327370D02*
G03*
X75520Y337606I-10236J0D01*
G01*
Y301386D02*
G03*
X85756Y311622I0J10236D01*
G01*
Y186370D02*
G03*
X75520Y196606I-10236J0D01*
G01*
Y160386D02*
G03*
X85756Y170622I0J10236D01*
G01*
Y128638D02*
G03*
X75520Y138874I-10236J0D01*
G01*
Y102654D02*
G03*
X85756Y112890I0J10236D01*
G01*
Y72378D02*
G03*
X75520Y82614I-10236J0D01*
G01*
Y46394D02*
G03*
X85756Y56630I0J10236D01*
G01*
Y249370D02*
G03*
X75520Y259606I-10236J0D01*
G01*
Y223386D02*
G03*
X85756Y233622I0J10236D01*
G01*
X20795Y337606D02*
X75520D01*
X20795Y301386D02*
X75520D01*
X20795D02*
Y337606D01*
X53276Y333033D02*
X57849Y337606D01*
X53276Y329184D02*
X61698Y337606D01*
X53276Y325334D02*
X65548Y337606D01*
X53276Y321485D02*
X69397Y337606D01*
X53276Y317635D02*
X73246Y337606D01*
X53276Y301386D02*
Y313786D01*
Y301386D02*
Y309937D01*
Y301386D02*
Y306087D01*
Y301386D02*
Y337606D01*
Y313786D02*
X76308Y336818D01*
X53276Y309937D02*
X78232Y334894D01*
X53276Y306087D02*
X80157Y332969D01*
X53440Y302402D02*
X82082Y331044D01*
X60242Y301506D02*
X85756Y327020D01*
X64135Y301550D02*
X85756Y323170D01*
X67832Y301397D02*
X85756Y319321D01*
X71725Y301440D02*
X85756Y315471D01*
X75520Y301386D02*
X85756Y311622D01*
X75520Y337606D02*
X85756Y327370D01*
Y311622D02*
Y327370D01*
X84007Y329119D02*
X85756Y327370D01*
X56349Y301462D02*
X84007Y329119D01*
X20795Y196606D02*
X75520D01*
X20795Y160386D02*
X75520D01*
X20795D02*
Y196606D01*
X53276Y192033D02*
X57849Y196606D01*
X53276Y188184D02*
X61698Y196606D01*
X53276Y184334D02*
X65548Y196606D01*
X53276Y180485D02*
X69397Y196606D01*
X53276Y176636D02*
X73246Y196606D01*
X53276Y160386D02*
Y172786D01*
Y160386D02*
Y168937D01*
Y160386D02*
Y165087D01*
Y160386D02*
Y196606D01*
Y172786D02*
X76308Y195818D01*
X53276Y168937D02*
X78232Y193894D01*
X53276Y165087D02*
X80157Y191969D01*
X53440Y161402D02*
X82082Y190044D01*
X60242Y160506D02*
X85756Y186020D01*
X64135Y160550D02*
X85756Y182170D01*
X67832Y160397D02*
X85756Y178321D01*
X71725Y160440D02*
X85756Y174471D01*
X75520Y160386D02*
X85756Y170622D01*
X75520Y196606D02*
X85756Y186370D01*
Y170622D02*
Y186370D01*
X84007Y188119D02*
X85756Y186370D01*
X56349Y160462D02*
X84007Y188119D01*
X20795Y138874D02*
X75520D01*
X20795Y102654D02*
X75520D01*
X20795D02*
Y138874D01*
X53276Y134301D02*
X57849Y138874D01*
X53276Y130451D02*
X61698Y138874D01*
X53276Y126602D02*
X65548Y138874D01*
X53276Y122753D02*
X69397Y138874D01*
X53276Y118903D02*
X73246Y138874D01*
X53276Y102654D02*
Y115054D01*
Y102654D02*
Y111205D01*
Y102654D02*
Y107355D01*
Y102654D02*
Y138874D01*
Y115054D02*
X76308Y138086D01*
X53276Y111205D02*
X78232Y136161D01*
X53276Y107355D02*
X80157Y134237D01*
X53440Y103670D02*
X82082Y132312D01*
X60242Y102774D02*
X85756Y128287D01*
X64135Y102817D02*
X85756Y124438D01*
X67832Y102664D02*
X85756Y120589D01*
X71725Y102708D02*
X85756Y116739D01*
X75520Y102654D02*
X85756Y112890D01*
X75520Y138874D02*
X85756Y128638D01*
Y112890D02*
Y128638D01*
X84007Y130387D02*
X85756Y128638D01*
X56349Y102730D02*
X84007Y130387D01*
X20795Y82614D02*
X75520D01*
X20795Y46394D02*
X75520D01*
X20795D02*
Y82614D01*
X53276Y78041D02*
X57849Y82614D01*
X53276Y74191D02*
X61698Y82614D01*
X53276Y70342D02*
X65548Y82614D01*
X53276Y66493D02*
X69397Y82614D01*
X53276Y62643D02*
X73246Y82614D01*
X53276Y46394D02*
Y58794D01*
Y46394D02*
Y54945D01*
Y46394D02*
Y51095D01*
Y46394D02*
Y82614D01*
Y58794D02*
X76308Y81826D01*
X53276Y54945D02*
X78232Y79901D01*
X53276Y51095D02*
X80157Y77977D01*
X53440Y47410D02*
X82082Y76052D01*
X60242Y46514D02*
X85756Y72027D01*
X64135Y46558D02*
X85756Y68178D01*
X67832Y46404D02*
X85756Y64329D01*
X71725Y46448D02*
X85756Y60479D01*
X75520Y46394D02*
X85756Y56630D01*
X75520Y82614D02*
X85756Y72378D01*
Y56630D02*
Y72378D01*
X84007Y74127D02*
X85756Y72378D01*
X56349Y46470D02*
X84007Y74127D01*
X20795Y259606D02*
X75520D01*
X20795Y223386D02*
X75520D01*
X20795D02*
Y259606D01*
X53276Y255033D02*
X57849Y259606D01*
X53276Y251184D02*
X61698Y259606D01*
X53276Y247334D02*
X65548Y259606D01*
X53276Y243485D02*
X69397Y259606D01*
X53276Y239635D02*
X73246Y259606D01*
X53276Y223386D02*
Y235786D01*
Y223386D02*
Y231937D01*
Y223386D02*
Y228087D01*
Y223386D02*
Y259606D01*
Y235786D02*
X76308Y258818D01*
X53276Y231937D02*
X78232Y256894D01*
X53276Y228087D02*
X80157Y254969D01*
X53440Y224402D02*
X82082Y253044D01*
X60242Y223506D02*
X85756Y249020D01*
X64135Y223550D02*
X85756Y245170D01*
X67832Y223397D02*
X85756Y241321D01*
X71725Y223440D02*
X85756Y237471D01*
X75520Y223386D02*
X85756Y233622D01*
X75520Y259606D02*
X85756Y249370D01*
Y233622D02*
Y249370D01*
X84007Y251119D02*
X85756Y249370D01*
X56349Y223462D02*
X84007Y251119D01*
D36*
X118781Y190771D02*
G03*
X118781Y190771I-1181J0D01*
G01*
D37*
X218079Y109343D02*
G03*
X218079Y109343I-20079J0D01*
G01*
X230236Y295000D02*
G03*
X230236Y295000I-20079J0D01*
G01*
X167500Y118871D02*
Y203071D01*
X108400D02*
X167500D01*
X108400Y118871D02*
Y203071D01*
Y118871D02*
X167500D01*
X114000Y194571D02*
X162000D01*
X114000Y127071D02*
Y194571D01*
Y127071D02*
X162000D01*
Y194571D01*
X266500Y71437D02*
X268074Y73011D01*
Y81799D01*
X266500Y63563D02*
X268074Y61989D01*
X240500Y53200D02*
X268059D01*
X268074Y53215D01*
Y61989D01*
X266500Y63563D02*
Y71437D01*
X240500Y81799D02*
X268059D01*
X240500Y53200D02*
Y57500D01*
Y77499D02*
Y81799D01*
X266500Y116437D02*
X268074Y118011D01*
Y126799D01*
X266500Y108563D02*
X268074Y106989D01*
X240500Y98200D02*
X268059D01*
X268074Y98215D01*
Y106989D01*
X266500Y108563D02*
Y116437D01*
X240500Y126799D02*
X268059D01*
X240500Y98200D02*
Y102500D01*
Y122499D02*
Y126799D01*
X217937Y8000D02*
X219511Y6426D01*
X228299D01*
X208489D02*
X210063Y8000D01*
X199700Y6441D02*
Y34000D01*
Y6441D02*
X199715Y6426D01*
X208489D01*
X210063Y8000D02*
X217937D01*
X228299Y6441D02*
Y34000D01*
X199700D02*
X204000D01*
X223999D02*
X228299D01*
X178937Y8000D02*
X180511Y6426D01*
X189299D01*
X169489D02*
X171063Y8000D01*
X160700Y6441D02*
Y34000D01*
Y6441D02*
X160715Y6426D01*
X169489D01*
X171063Y8000D02*
X178937D01*
X189299Y6441D02*
Y34000D01*
X160700D02*
X165000D01*
X184999D02*
X189299D01*
X139937Y8000D02*
X141511Y6426D01*
X150299D01*
X130489D02*
X132063Y8000D01*
X121700Y6441D02*
Y34000D01*
Y6441D02*
X121715Y6426D01*
X130489D01*
X132063Y8000D02*
X139937D01*
X150299Y6441D02*
Y34000D01*
X121700D02*
X126000D01*
X145999D02*
X150299D01*
X245500Y326999D02*
Y331299D01*
Y302700D02*
Y307000D01*
Y331299D02*
X273059D01*
X271500Y313063D02*
Y320937D01*
X273074Y302715D02*
Y311489D01*
X273059Y302700D02*
X273074Y302715D01*
X245500Y302700D02*
X273059D01*
X271500Y313063D02*
X273074Y311489D01*
Y322511D02*
Y331299D01*
X271500Y320937D02*
X273074Y322511D01*
X172000Y151998D02*
Y146000D01*
X175999D01*
X177998D02*
X179997D01*
X178998D01*
Y151998D01*
X177998Y150998D01*
X161550Y69050D02*
Y75048D01*
X164549D01*
X165549Y74048D01*
Y72049D01*
X164549Y71049D01*
X161550D01*
X163549D02*
X165549Y69050D01*
X171547D02*
X167548D01*
X171547Y73049D01*
Y74048D01*
X170547Y75048D01*
X168548D01*
X167548Y74048D01*
X118337Y288550D02*
Y294548D01*
X121336D01*
X122336Y293548D01*
Y291549D01*
X121336Y290549D01*
X118337D01*
X120336D02*
X122336Y288550D01*
X124335D02*
X126334D01*
X125335D01*
Y294548D01*
X124335Y293548D01*
X179850Y74948D02*
Y68950D01*
X182849D01*
X183849Y69950D01*
Y73948D01*
X182849Y74948D01*
X179850D01*
X188847Y68950D02*
Y74948D01*
X185848Y71949D01*
X189847D01*
X119000Y275998D02*
Y270000D01*
X121999D01*
X122999Y271000D01*
Y274998D01*
X121999Y275998D01*
X119000D01*
X124998Y274998D02*
X125998Y275998D01*
X127997D01*
X128997Y274998D01*
Y273999D01*
X127997Y272999D01*
X126997D01*
X127997D01*
X128997Y271999D01*
Y271000D01*
X127997Y270000D01*
X125998D01*
X124998Y271000D01*
X166000Y258998D02*
Y253000D01*
X168999D01*
X169999Y254000D01*
Y257998D01*
X168999Y258998D01*
X166000D01*
X175997Y253000D02*
X171998D01*
X175997Y256999D01*
Y257998D01*
X174997Y258998D01*
X172998D01*
X171998Y257998D01*
X141000Y217990D02*
Y211992D01*
X143999D01*
X144999Y212992D01*
Y216990D01*
X143999Y217990D01*
X141000D01*
X146998Y211992D02*
X148997D01*
X147998D01*
Y217990D01*
X146998Y216990D01*
X156999Y104498D02*
X155999Y105498D01*
X154000D01*
X153000Y104498D01*
Y100500D01*
X154000Y99500D01*
X155999D01*
X156999Y100500D01*
X162997Y105498D02*
X158998D01*
Y102499D01*
X160997Y103499D01*
X161997D01*
X162997Y102499D01*
Y100500D01*
X161997Y99500D01*
X159998D01*
X158998Y100500D01*
X169249Y310548D02*
X168249Y311548D01*
X166250D01*
X165250Y310548D01*
Y306550D01*
X166250Y305550D01*
X168249D01*
X169249Y306550D01*
X174247Y305550D02*
Y311548D01*
X171248Y308549D01*
X175247D01*
X152249Y310548D02*
X151249Y311548D01*
X149250D01*
X148250Y310548D01*
Y306550D01*
X149250Y305550D01*
X151249D01*
X152249Y306550D01*
X154248Y310548D02*
X155248Y311548D01*
X157247D01*
X158247Y310548D01*
Y309549D01*
X157247Y308549D01*
X156247D01*
X157247D01*
X158247Y307549D01*
Y306550D01*
X157247Y305550D01*
X155248D01*
X154248Y306550D01*
X204999Y82498D02*
X203999Y83498D01*
X202000D01*
X201000Y82498D01*
Y78500D01*
X202000Y77500D01*
X203999D01*
X204999Y78500D01*
X210997Y77500D02*
X206998D01*
X210997Y81499D01*
Y82498D01*
X209997Y83498D01*
X207998D01*
X206998Y82498D01*
X181999Y311998D02*
X180999Y312998D01*
X179000D01*
X178000Y311998D01*
Y308000D01*
X179000Y307000D01*
X180999D01*
X181999Y308000D01*
X183998Y307000D02*
X185997D01*
X184998D01*
Y312998D01*
X183998Y311998D01*
D38*
X177900Y109343D02*
X218100D01*
X179200Y115642D02*
X185500Y109343D01*
X182150Y121693D02*
X194500Y109343D01*
X186800Y126042D02*
X203500Y109343D01*
X192950Y128893D02*
X212500Y109343D01*
X201750Y129093D02*
X217700Y113143D01*
X210157Y274900D02*
Y315100D01*
Y307500D02*
X216458Y313800D01*
X210157Y298500D02*
X222508Y310850D01*
X210157Y289500D02*
X226857Y306200D01*
X210157Y280500D02*
X229708Y300050D01*
X213958Y275300D02*
X229907Y291250D01*
X125362Y278890D02*
X129830D01*
X117744D02*
X122212D01*
X125362Y285110D02*
X129830D01*
X117744Y278890D02*
Y285110D01*
X129830Y278890D02*
Y285110D01*
X117744D02*
X122212D01*
X168575Y59390D02*
X173043D01*
X160957D02*
X165425D01*
X168575Y65610D02*
X173043D01*
X160957Y59390D02*
Y65610D01*
X173043Y59390D02*
Y65610D01*
X160957D02*
X165425D01*
M02*
