G04 Layer_Color=32768*
%FSLAX25Y25*%
%MOIN*%
G70*
G01*
G75*
%ADD25C,0.00800*%
%ADD37C,0.01000*%
%ADD66C,0.00591*%
%ADD67C,0.00700*%
%ADD68C,0.00300*%
D25*
X187394Y154803D02*
X236606D01*
X187394D02*
Y205197D01*
X236606Y154803D02*
Y205197D01*
X187394D02*
X236606D01*
D37*
X116700Y208000D02*
Y220000D01*
X135500Y208000D02*
Y220000D01*
X115800Y208000D02*
Y220000D01*
X114900Y208000D02*
Y220000D01*
X114000Y208000D02*
Y220000D01*
X135500D01*
X114000Y208000D02*
X135500D01*
X183500Y242700D02*
X195500D01*
X183500Y261500D02*
X195500D01*
X183500Y241800D02*
X195500D01*
X183500Y240900D02*
X195500D01*
X183500Y240000D02*
X195500D01*
X183500D02*
Y261500D01*
X195500Y240000D02*
Y261500D01*
D66*
X147322Y346693D02*
Y352706D01*
X124684Y346693D02*
Y352706D01*
X140564Y346693D02*
X147322D01*
X124684D02*
X131443D01*
X128917Y363425D02*
X143090D01*
X225819Y346693D02*
Y352706D01*
X203181Y346693D02*
Y352706D01*
X219061Y346693D02*
X225819D01*
X203181D02*
X209939D01*
X207413Y363425D02*
X221587D01*
X173488Y346693D02*
Y352706D01*
X150850Y346693D02*
Y352706D01*
X166729Y346693D02*
X173488D01*
X150850D02*
X157608D01*
X155082Y363425D02*
X169255D01*
X199653Y346693D02*
Y352706D01*
X177016Y346693D02*
Y352706D01*
X192895Y346693D02*
X199653D01*
X177016D02*
X183774D01*
X181248Y363425D02*
X195421D01*
D67*
X260315Y215738D02*
Y255648D01*
X200079D02*
X260315D01*
X212677Y215738D02*
Y255648D01*
X200079Y215738D02*
Y255648D01*
Y215738D02*
X260315D01*
D68*
X171200Y96400D02*
Y106600D01*
X166800D02*
X171200D01*
X166800Y96400D02*
Y106600D01*
Y96400D02*
X171200D01*
X164400Y302400D02*
X174600D01*
X164400Y298000D02*
Y302400D01*
Y298000D02*
X174600D01*
Y302400D01*
X147400D02*
X157600D01*
X147400Y298000D02*
Y302400D01*
Y298000D02*
X157600D01*
Y302400D01*
X128300Y259850D02*
Y266150D01*
X128500Y259850D02*
Y266150D01*
X128700Y259850D02*
Y266150D01*
X128900Y259850D02*
Y266150D01*
X129100Y259850D02*
Y266150D01*
X117500Y259850D02*
Y266150D01*
X130500D01*
Y259850D02*
Y266150D01*
X117500Y259850D02*
X130500D01*
X129300D02*
Y266150D01*
X129500Y259850D02*
Y266150D01*
X129700Y259850D02*
Y266150D01*
X129900Y259850D02*
Y266150D01*
X130100Y259850D02*
Y266150D01*
X130300Y259850D02*
Y266150D01*
X192000Y59550D02*
Y65850D01*
X179000Y59550D02*
X192000D01*
X179000D02*
Y65850D01*
X192000D01*
X180200Y59550D02*
Y65850D01*
X180000Y59550D02*
Y65850D01*
X179800Y59550D02*
Y65850D01*
X179600Y59550D02*
Y65850D01*
X179400Y59550D02*
Y65850D01*
X179200Y59550D02*
Y65850D01*
X180400Y59550D02*
Y65850D01*
X180600Y59550D02*
Y65850D01*
X180800Y59550D02*
Y65850D01*
X181000Y59550D02*
Y65850D01*
X181200Y59550D02*
Y65850D01*
M02*
