G04 Layer_Color=8421504*
%FSLAX25Y25*%
%MOIN*%
G70*
G01*
G75*
%ADD10R,0.03937X0.11024*%
%ADD11R,0.02362X0.06693*%
%ADD12R,0.14961X0.04724*%
%ADD15R,0.21260X0.13780*%
%ADD16R,0.07874X0.07874*%
%ADD18R,0.07874X0.07874*%
%ADD21R,0.03661X0.03858*%
%ADD39R,0.03550X0.14800*%
%ADD40R,0.04700X0.09800*%
%ADD41R,0.04700X0.16800*%
%ADD42R,0.02700X0.05500*%
G36*
X170450Y104331D02*
X169591Y103150D01*
X168409D01*
X167550Y104331D01*
Y106102D01*
X170450D01*
Y104331D01*
D02*
G37*
G36*
X122049Y265140D02*
X122160Y265029D01*
X122220Y264885D01*
Y264806D01*
Y264181D01*
Y264103D01*
X122160Y263958D01*
X122049Y263847D01*
X121904Y263787D01*
X121449D01*
X121295Y263772D01*
X121011Y263655D01*
X120794Y263437D01*
X120677Y263154D01*
Y262846D01*
X120794Y262562D01*
X121011Y262345D01*
X121295Y262228D01*
X121449Y262213D01*
X121904D01*
X122049Y262153D01*
X122160Y262042D01*
X122220Y261897D01*
Y261819D01*
Y261194D01*
Y261115D01*
X122160Y260971D01*
X122049Y260860D01*
X121904Y260800D01*
X118615D01*
X118471Y260860D01*
X118360Y260971D01*
X118300Y261115D01*
Y261194D01*
Y264806D01*
Y264885D01*
X118360Y265029D01*
X118471Y265140D01*
X118615Y265200D01*
X121904D01*
X122049Y265140D01*
D02*
G37*
G36*
X170450Y98669D02*
Y96898D01*
X167550D01*
Y98669D01*
X168409Y99850D01*
X169591D01*
X170450Y98669D01*
D02*
G37*
G36*
X183549Y64840D02*
X183660Y64729D01*
X183720Y64585D01*
Y64506D01*
Y63881D01*
Y63803D01*
X183660Y63658D01*
X183549Y63547D01*
X183404Y63487D01*
X182949D01*
X182795Y63472D01*
X182511Y63355D01*
X182294Y63138D01*
X182176Y62854D01*
Y62546D01*
X182294Y62262D01*
X182511Y62045D01*
X182795Y61928D01*
X182949Y61913D01*
X183404D01*
X183549Y61853D01*
X183660Y61742D01*
X183720Y61597D01*
Y61519D01*
Y60894D01*
Y60815D01*
X183660Y60671D01*
X183549Y60560D01*
X183404Y60500D01*
X180115D01*
X179971Y60560D01*
X179860Y60671D01*
X179800Y60815D01*
Y60894D01*
Y64506D01*
Y64585D01*
X179860Y64729D01*
X179971Y64840D01*
X180115Y64900D01*
X183404D01*
X183549Y64840D01*
D02*
G37*
G36*
X191029D02*
X191140Y64729D01*
X191200Y64585D01*
Y64506D01*
Y60894D01*
Y60815D01*
X191140Y60671D01*
X191029Y60560D01*
X190885Y60500D01*
X187596D01*
X187451Y60560D01*
X187340Y60671D01*
X187280Y60815D01*
Y60894D01*
Y61519D01*
Y61597D01*
X187340Y61742D01*
X187451Y61853D01*
X187596Y61913D01*
X188051D01*
X188205Y61928D01*
X188489Y62045D01*
X188706Y62262D01*
X188823Y62546D01*
Y62854D01*
X188706Y63138D01*
X188489Y63355D01*
X188205Y63472D01*
X188051Y63487D01*
X187596D01*
X187451Y63547D01*
X187340Y63658D01*
X187280Y63803D01*
Y63881D01*
Y64506D01*
Y64585D01*
X187340Y64729D01*
X187451Y64840D01*
X187596Y64900D01*
X190885D01*
X191029Y64840D01*
D02*
G37*
G36*
X167850Y300791D02*
Y299609D01*
X166669Y298750D01*
X164898D01*
Y301650D01*
X166669D01*
X167850Y300791D01*
D02*
G37*
G36*
X174102Y298750D02*
X172331D01*
X171150Y299609D01*
Y300791D01*
X172331Y301650D01*
X174102D01*
Y298750D01*
D02*
G37*
G36*
X157102D02*
X155331D01*
X154150Y299609D01*
Y300791D01*
X155331Y301650D01*
X157102D01*
Y298750D01*
D02*
G37*
G36*
X129529Y265140D02*
X129640Y265029D01*
X129700Y264885D01*
Y264806D01*
Y261194D01*
Y261115D01*
X129640Y260971D01*
X129529Y260860D01*
X129385Y260800D01*
X126096D01*
X125951Y260860D01*
X125840Y260971D01*
X125780Y261115D01*
Y261194D01*
Y261819D01*
Y261897D01*
X125840Y262042D01*
X125951Y262153D01*
X126096Y262213D01*
X126551D01*
X126705Y262228D01*
X126989Y262345D01*
X127206Y262562D01*
X127323Y262846D01*
Y263154D01*
X127206Y263437D01*
X126989Y263655D01*
X126705Y263772D01*
X126551Y263787D01*
X126096D01*
X125951Y263847D01*
X125840Y263958D01*
X125780Y264103D01*
Y264181D01*
Y264806D01*
Y264885D01*
X125840Y265029D01*
X125951Y265140D01*
X126096Y265200D01*
X129385D01*
X129529Y265140D01*
D02*
G37*
G36*
X150850Y300791D02*
Y299609D01*
X149669Y298750D01*
X147898D01*
Y301650D01*
X149669D01*
X150850Y300791D01*
D02*
G37*
D10*
X126259Y359095D02*
D03*
X145747D02*
D03*
X204756D02*
D03*
X224244D02*
D03*
X152425D02*
D03*
X171913D02*
D03*
X178590D02*
D03*
X198079D02*
D03*
D11*
X138464Y345905D02*
D03*
X133543D02*
D03*
X216961D02*
D03*
X212039D02*
D03*
X164629D02*
D03*
X159708D02*
D03*
X190795D02*
D03*
X185874D02*
D03*
D12*
X205000Y222307D02*
D03*
Y249079D02*
D03*
Y242386D02*
D03*
Y229000D02*
D03*
Y235693D02*
D03*
D15*
X212000Y159331D02*
D03*
Y200669D02*
D03*
D16*
X132874Y214000D02*
D03*
X117126D02*
D03*
D18*
X189500Y258874D02*
D03*
Y243126D02*
D03*
D21*
X126819Y282000D02*
D03*
X120756D02*
D03*
X170031Y62500D02*
D03*
X163969D02*
D03*
D39*
X255660Y227193D02*
D03*
X255660Y244193D02*
D03*
D40*
X250384Y241693D02*
D03*
Y229693D02*
D03*
D41*
X260884Y245193D02*
D03*
Y226193D02*
D03*
D42*
X245584Y239543D02*
D03*
Y231843D02*
D03*
M02*
