G04 Layer_Color=255*
%FSLAX25Y25*%
%MOIN*%
G70*
G01*
G75*
%ADD26O,0.33465X0.11811*%
%ADD27C,0.05512*%
%ADD28C,0.04724*%
%ADD29C,0.03543*%
%ADD30O,0.25590X0.31496*%
%ADD31R,0.07087X0.07087*%
%ADD32C,0.07087*%
%ADD33R,0.07087X0.07087*%
%ADD34C,0.07874*%
D26*
X138000Y134228D02*
D03*
Y161000D02*
D03*
Y187772D02*
D03*
D27*
X39102Y307488D02*
D03*
Y331504D02*
D03*
X67449D02*
D03*
Y307488D02*
D03*
X39102Y166488D02*
D03*
Y190504D02*
D03*
X67449D02*
D03*
Y166488D02*
D03*
X39102Y108756D02*
D03*
Y132772D02*
D03*
X67449D02*
D03*
Y108756D02*
D03*
X39102Y52496D02*
D03*
Y76512D02*
D03*
X67449D02*
D03*
Y52496D02*
D03*
X39102Y229488D02*
D03*
Y253504D02*
D03*
X67449D02*
D03*
Y229488D02*
D03*
D28*
X44614Y309260D02*
D03*
X48551Y313000D02*
D03*
X29653D02*
D03*
X33591Y309260D02*
D03*
X44614Y329732D02*
D03*
X48551Y325992D02*
D03*
X29653D02*
D03*
X33591Y329732D02*
D03*
X61937D02*
D03*
X58000Y325992D02*
D03*
X76898D02*
D03*
X72961Y329732D02*
D03*
X61937Y309260D02*
D03*
X58000Y313000D02*
D03*
X76898D02*
D03*
X72961Y309260D02*
D03*
X44614Y168260D02*
D03*
X48551Y172000D02*
D03*
X29653D02*
D03*
X33591Y168260D02*
D03*
X44614Y188732D02*
D03*
X48551Y184992D02*
D03*
X29653D02*
D03*
X33591Y188732D02*
D03*
X61937D02*
D03*
X58000Y184992D02*
D03*
X76898D02*
D03*
X72961Y188732D02*
D03*
X61937Y168260D02*
D03*
X58000Y172000D02*
D03*
X76898D02*
D03*
X72961Y168260D02*
D03*
X44614Y110528D02*
D03*
X48551Y114268D02*
D03*
X29653D02*
D03*
X33591Y110528D02*
D03*
X44614Y131000D02*
D03*
X48551Y127260D02*
D03*
X29653D02*
D03*
X33591Y131000D02*
D03*
X61937D02*
D03*
X58000Y127260D02*
D03*
X76898D02*
D03*
X72961Y131000D02*
D03*
X61937Y110528D02*
D03*
X58000Y114268D02*
D03*
X76898D02*
D03*
X72961Y110528D02*
D03*
X44614Y54268D02*
D03*
X48551Y58008D02*
D03*
X29653D02*
D03*
X33591Y54268D02*
D03*
X44614Y74740D02*
D03*
X48551Y71000D02*
D03*
X29653D02*
D03*
X33591Y74740D02*
D03*
X61937D02*
D03*
X58000Y71000D02*
D03*
X76898D02*
D03*
X72961Y74740D02*
D03*
X61937Y54268D02*
D03*
X58000Y58008D02*
D03*
X76898D02*
D03*
X72961Y54268D02*
D03*
X44614Y231260D02*
D03*
X48551Y235000D02*
D03*
X29653D02*
D03*
X33591Y231260D02*
D03*
X44614Y251732D02*
D03*
X48551Y247992D02*
D03*
X29653D02*
D03*
X33591Y251732D02*
D03*
X61937D02*
D03*
X58000Y247992D02*
D03*
X76898D02*
D03*
X72961Y251732D02*
D03*
X61937Y231260D02*
D03*
X58000Y235000D02*
D03*
X76898D02*
D03*
X72961Y231260D02*
D03*
D29*
X49929Y319496D02*
D03*
X28276D02*
D03*
X56622D02*
D03*
X78276D02*
D03*
X49929Y178496D02*
D03*
X28276D02*
D03*
X56622D02*
D03*
X78276D02*
D03*
X49929Y120764D02*
D03*
X28276D02*
D03*
X56622D02*
D03*
X78276D02*
D03*
X49929Y64504D02*
D03*
X28276D02*
D03*
X56622D02*
D03*
X78276D02*
D03*
X49929Y241496D02*
D03*
X28276D02*
D03*
X56622D02*
D03*
X78276D02*
D03*
D30*
X67449Y319496D02*
D03*
X39102D02*
D03*
X67449Y178496D02*
D03*
X39102D02*
D03*
X67449Y120764D02*
D03*
X39102D02*
D03*
X67449Y64504D02*
D03*
X39102D02*
D03*
X67449Y241496D02*
D03*
X39102D02*
D03*
D31*
X198000Y99500D02*
D03*
D32*
Y119185D02*
D03*
X220000Y295000D02*
D03*
D33*
X200315D02*
D03*
D34*
X240500Y62500D02*
D03*
Y72500D02*
D03*
Y107500D02*
D03*
Y117500D02*
D03*
X209000Y34000D02*
D03*
X219000D02*
D03*
X170000D02*
D03*
X180000D02*
D03*
X131000D02*
D03*
X141000D02*
D03*
X245500Y322000D02*
D03*
Y312000D02*
D03*
M02*
