M48
;Layer_Color=9474304
;FILE_FORMAT=2:5
INCH,TZ
;TYPE=PLATED
T1F00S00C0.01500
T2F00S00C0.01968
T3F00S00C0.03150
T4F00S00C0.03937
T6F00S00C0.17717
%
T01
X177500Y25505
X181000
X184000
Y28500
X187500Y28529
Y25505
Y32000
Y35201
X183000Y54500
X183035Y58000
X179099
X179000Y54715
X219000Y45000
X222500
Y41367
X219000
X226500
Y38000
Y34500
Y30000
Y45000
X247873Y71000
Y75000
X251959
Y71000
X153500Y34000
Y30500
Y27377
Y23632
X149000
Y27343
Y30500
Y34000
X145000Y27343
Y23500
X140500
Y27377
X169663Y108500
Y111162
X173470
X173308Y108500
X173385Y105000
X183000Y119500
Y122500
Y125500
X186498
Y122500
Y119500
X190000
Y122500
Y125500
X194000
X197936
X236500
X240500
Y129500
X236500
X244799
Y125500
X249571
Y129500
X253572
Y125500
Y121000
X249571
X249500Y116500
X253572
X251959Y83500
X248000
X247873Y79500
X251959
X243500
Y83500
X238500Y83000
Y79500
X237500Y221500
Y224500
Y227500
Y230500
X241500
Y227500
Y224500
Y221500
X245500
Y224500
Y227500
Y230500
X249500
Y227500
Y224500
Y221500
X253500
Y224500
Y227500
Y230500
X198500Y224000
Y220956
X198400Y217718
X198500Y214793
X194937
Y218000
Y221000
Y224000
X195000Y233000
X192400
X189500
Y236000
X192400
X195000
X186500
Y233058
X182000Y233500
Y236500
Y239500
Y242500
Y245500
Y248500
X178000
Y245500
Y242500
Y239500
Y236500
Y233500
X237500Y234000
Y237500
X241500
Y234000
X245500
Y237500
X249500
Y234000
X253500
Y237500
Y241500
Y245000
Y249000
Y252500
X249500
Y249000
Y245000
Y241500
X245500
Y245000
Y249000
Y252500
X241500
Y249000
Y245000
Y241500
X237500
Y245000
Y249000
Y252500
X237000Y283000
Y287500
Y292000
X242000
Y287500
Y283000
Y297024
X237000
X168000Y296663
X164500Y296500
X160794Y296000
Y293500
X150112
Y296000
X147000
Y293500
X144000
Y296000
X129500Y258500
Y255500
X126233
Y258500
T02
X28276Y64504
X49929
X56622
X78276
Y120764
X56622
X49929
X28276
Y178496
X49929
X56622
X78276
Y241496
X56622
X49929
X28276
Y319496
X49929
X56622
X78276
T03
X29653Y58008
X33591Y54268
X39102Y52496
X44614Y54268
X48551Y58008
X58000
X61937Y54268
X67449Y52496
X72961Y54268
X76898Y58008
Y71000
X72961Y74740
X61937
X58000Y71000
X48551
X44614Y74740
X33591
X29653Y71000
X39102Y76512
X67449
Y108756
X61937Y110528
X58000Y114268
X48551
X44614Y110528
X39102Y108756
X33591Y110528
X29653Y114268
Y127260
X33591Y131000
X39102Y132772
X44614Y131000
X48551Y127260
X58000
X61937Y131000
X67449Y132772
X72961Y131000
X76898Y127260
Y114268
X72961Y110528
Y168260
X67449Y166488
X61937Y168260
X58000Y172000
X48551
X44614Y168260
X39102Y166488
X33591Y168260
X29653Y172000
Y184992
X33591Y188732
X39102Y190504
X44614Y188732
X48551Y184992
X58000
X61937Y188732
X67449Y190504
X72961Y188732
X76898Y184992
Y172000
X72961Y231260
X67449Y229488
X61937Y231260
X44614
X39102Y229488
X33591Y231260
X198000Y119185
Y99500
X200315Y295000
X220000
X76898Y313000
X72961Y309260
X67449Y307488
X61937Y309260
X58000Y313000
X48551
X44614Y309260
X39102Y307488
X33591Y309260
X29653Y313000
Y325992
X33591Y329732
X39102Y331504
X44614Y329732
X48551Y325992
X58000
X61937Y329732
X67449Y331504
X72961Y329732
X76898Y325992
Y247992
X72961Y251732
X67449Y253504
X61937Y251732
X58000Y247992
X48551
X44614Y251732
X39102Y253504
X33591Y251732
X29653Y247992
Y235000
X48551
X58000
X76898
T04
X170000Y34000
X180000
X209000
X219000
X240500Y62500
Y72500
X141000Y34000
X131000
X240500Y107500
Y117500
X245500Y312000
Y322000
T06
X39102Y64504
X67449
Y120764
X39102
Y178496
X67449
Y241496
X39102
Y319496
X67449
M30
